<svg xmlns="http://www.w3.org/2000/svg" viewBox="0 0 500 500"><g id="freepik--Floor--inject-342"><path d="M412.32,247.87c-90.23-52.1-236-52.1-325.7,0s-89.18,136.56,1,188.66,236.07,52.1,325.72,0S502.56,300,412.32,247.87Z" style="fill:#f5f5f5"></path></g><g id="freepik--Shadows--inject-342"><path d="M47.93,357.72c6.67-3.86,17.46-3.86,24.09,0s6.59,10.1-.08,13.95-17.46,3.86-24.09,0S41.25,361.57,47.93,357.72Z" style="fill:#e0e0e0"></path><path d="M439.12,330.2c7-4,18.31-4,25.27,0s6.91,10.59-.08,14.63-18.32,4-25.27,0S432.12,334.24,439.12,330.2Z" style="fill:#e0e0e0"></path><polygon points="328.71 260.64 72.35 410.34 61.49 404.07 317.85 254.37 328.71 260.64" style="fill:#e0e0e0"></polygon><path d="M396.87,340c-25-14.43-65.37-14.43-90.19,0-21.94,12.74-24.37,32.48-7.41,46.86-13.69-.85-27.87,1.76-38.32,7.83-18.35,10.66-18.25,27.95.21,38.61s48.31,10.66,66.65,0c14.6-8.48,17.51-21.16,8.79-31.35,21,3,44.18-.19,60.56-9.71C422,377.84,421.86,354.45,396.87,340Z" style="fill:#e0e0e0"></path></g><g id="freepik--Pictures--inject-342"><polygon points="114.09 93.27 79.01 113.53 79.09 140.34 114.17 120.08 114.09 93.27" style="fill:none"></polygon><polygon points="114.09 93.27 114.17 120.08 117.42 121.97 117.33 91.4 114.09 93.27" style="fill:#f0f0f0"></polygon><polygon points="79.09 140.34 79.1 144.1 117.42 121.97 114.17 120.08 79.09 140.34" style="fill:#f5f5f5"></polygon><path d="M121.25,84.63,75.07,111.29l.11,39.59,46.18-26.66ZM79.1,144.1v-3.76L79,113.53l35.08-20.26,3.24-1.87.09,30.57Z" style="fill:#e0e0e0"></path><polygon points="121.25 84.63 118 82.74 71.82 109.4 75.07 111.29 121.25 84.63" style="fill:#f5f5f5"></polygon><polygon points="71.82 109.4 71.93 148.99 75.18 150.88 75.07 111.29 71.82 109.4" style="fill:#f0f0f0"></polygon><polygon points="389.65 169.56 424.73 189.82 424.66 216.63 389.57 196.38 389.65 169.56" style="fill:none"></polygon><polygon points="389.65 169.56 389.57 196.38 386.32 198.26 386.41 167.69 389.65 169.56" style="fill:#f0f0f0"></polygon><polygon points="424.66 216.63 424.65 220.39 386.32 198.26 389.57 196.38 424.66 216.63" style="fill:#f5f5f5"></polygon><path d="M382.39,200.51l46.17,26.66.11-39.59L382.5,160.92Zm3.94-2.25.08-30.57,3.24,1.87,35.08,20.26-.07,26.81v3.76Z" style="fill:#e0e0e0"></path><polygon points="382.5 160.92 385.75 159.03 431.92 185.69 428.67 187.58 382.5 160.92" style="fill:#f5f5f5"></polygon><polygon points="431.92 185.69 431.81 225.28 428.56 227.17 428.67 187.58 431.92 185.69" style="fill:#f0f0f0"></polygon><path d="M168.3,109.81h0l1.26-.62h0Z" style="fill:none"></path><path d="M167.84,110h0l.46-.22h0Z" style="fill:none"></path><polygon points="182.61 57.56 173.02 63.1 163.27 68.73 173.02 63.1 182.61 57.56" style="fill:none"></polygon><polygon points="182.7 89.19 182.68 80.29 182.65 72.15 182.68 80.29 182.7 89.19" style="fill:none"></polygon><path d="M169.56,109.19l.27-.13-.27.13Z" style="fill:none"></path><polygon points="182.81 128.21 182.79 120.77 182.77 114.25 182.79 120.77 182.81 128.21" style="fill:none"></polygon><path d="M164.12,111.56q1.84-.66,3.72-1.53h0Q166,110.9,164.12,111.56Z" style="fill:none"></path><polygon points="154.12 85.03 154.2 113.62 154.25 130.19 154.2 113.62 154.12 85.03" style="fill:none"></polygon><path d="M182.79,120.76l0-6.51-.3.17-.54.32c-4.81,2.91-9.64,7.47-14.13,12.41-.75.81-1.48,1.64-2.21,2.47-3.79,4.34-7.49,8.94-11.31,13.24l0,10.52,4.59-2.65A101.06,101.06,0,0,1,182.79,120.76Z" style="fill:#ebebeb"></path><path d="M182.84,136.91l0-8.7a55.19,55.19,0,0,0-9.76,14.35Z" style="fill:#ebebeb"></path><path d="M173.05,142.56a55.19,55.19,0,0,1,9.76-14.35l0-7.45a101.06,101.06,0,0,0-23.89,30l14.15-8.17Z" style="fill:#fafafa"></path><path d="M167.84,110h0" style="fill:none;stroke:gray;stroke-linecap:round;stroke-linejoin:round;stroke-width:0px"></path><path d="M168.3,109.81h0" style="fill:none;stroke:gray;stroke-linecap:round;stroke-linejoin:round;stroke-width:0px"></path><path d="M163.45,111.79l.67-.23q1.84-.66,3.72-1.53l.46-.22,1.26-.62c.73-.37,1.45-.76,2.18-1.17-.73.41-1.45.8-2.18,1.17l.27-.13c.63-.33,1.27-.68,1.91-1l.41-.23.34-.2a69.83,69.83,0,0,0,9.82-7l.42-.37,0-11c-7,3.57-13.85,4.68-19.39,3A17,17,0,0,1,154.12,85l.08,28.59A33.46,33.46,0,0,0,163.45,111.79Z" style="fill:#fafafa"></path><path d="M167.8,127.15c4.49-4.94,9.32-9.5,14.13-12.41l.54-.32.3-.17,0-6.3A136.44,136.44,0,0,0,157,127.53c-.93.89-1.86,1.79-2.79,2.66l0,12.67c3.82-4.3,7.52-8.9,11.31-13.24C166.32,128.79,167.05,128,167.8,127.15Z" style="fill:#fafafa"></path><path d="M182.75,108l0-7.76-.42.37a69.83,69.83,0,0,1-9.82,7l-.34.2-.41.23c-.64.36-1.28.71-1.91,1l-.27.13-.17.09h0l.17-.09-1.26.62-.46.22q-1.87.87-3.72,1.53l.7-.26-.7.26-.67.23a33.46,33.46,0,0,1-9.25,1.83l.05,16.57c.93-.87,1.86-1.77,2.79-2.66A136.44,136.44,0,0,1,182.75,108Z" style="fill:#ebebeb"></path><path d="M182.68,80.29l0-8.14c-4.41-1-7.83-4.24-9.63-9.05l-9.75,5.63A20.15,20.15,0,0,0,182.68,80.29Z" style="fill:#fafafa"></path><path d="M163.31,92.15c5.54,1.72,12.41.61,19.39-3l0-8.9a20.15,20.15,0,0,1-19.41-11.56L154.09,74l0,11A17,17,0,0,0,163.31,92.15Z" style="fill:#ebebeb"></path><path d="M184.21,54.79,152.47,73.12l.24,83,31.74-18.32Zm-29.9,98.59,0-10.52,0-12.67-.05-16.57L154.12,85l0-11,9.18-5.3L173,63.1l9.59-5.54,0,14.59,0,8.14,0,8.9,0,11,0,7.76,0,6.3,0,6.51,0,7.45,0,8.7-9.79,5.65h0l-14.15,8.17Z" style="fill:#fff"></path><path d="M169.36,109.29h0" style="fill:none;stroke:gray;stroke-linecap:round;stroke-linejoin:round;stroke-width:0px"></path><path d="M169.39,109.28l.17-.09" style="fill:none;stroke:gray;stroke-linecap:round;stroke-linejoin:round;stroke-width:0px"></path><path d="M171.74,108c-.73.41-1.45.8-2.18,1.17" style="fill:none;stroke:gray;stroke-linecap:round;stroke-linejoin:round;stroke-width:0px"></path><line x1="169.56" y1="109.19" x2="169.56" y2="109.19" style="fill:none;stroke:gray;stroke-linecap:round;stroke-linejoin:round;stroke-width:0px"></line><path d="M164.12,111.56l.7-.26" style="fill:none;stroke:gray;stroke-linecap:round;stroke-linejoin:round;stroke-width:0px"></path><path d="M182.65,72.15l0-14.59L173,63.1C174.82,67.91,178.24,71.12,182.65,72.15Z" style="fill:#ebebeb"></path><polygon points="184.45 137.82 152.71 156.15 152.71 158.36 186.35 138.93 184.45 137.82" style="fill:#cacaca"></polygon><polygon points="184.21 54.79 184.45 137.82 186.35 138.93 186.11 53.7 184.21 54.79" style="fill:#f0f0f0"></polygon><path d="M191.22,44.86,147.33,70.19l.28,97,43.88-25.34Zm-38.51,113.5v-2.21l-.24-83,31.74-18.33,1.9-1.09.25,85.23Z" style="fill:#e0e0e0"></path><polygon points="191.22 44.86 187.6 42.91 143.72 68.25 147.34 70.19 191.22 44.86" style="fill:#f5f5f5"></polygon><polygon points="143.72 68.25 143.99 165.25 147.61 167.19 147.34 70.19 143.72 68.25" style="fill:#f0f0f0"></polygon><polygon points="102.95 103.45 112.51 110.98 112.53 118.34 80.71 136.72 80.69 129.36 86.76 117.31 92.2 121.54 90.28 127.52 93.07 122.21 102.95 103.45" style="fill:#e0e0e0"></polygon><path d="M92.49,107.16c1.5-.86,2.72-.17,2.73,1.55a6,6,0,0,1-2.71,4.68c-1.5.87-2.71.17-2.72-1.55A6,6,0,0,1,92.49,107.16Z" style="fill:#e0e0e0"></path><polygon points="400.8 179.74 391.23 187.28 391.21 194.64 423.03 213.01 423.05 205.65 416.99 193.6 411.54 197.83 413.47 203.81 410.67 198.5 400.8 179.74" style="fill:#e0e0e0"></polygon><path d="M411.25,183.45c-1.5-.86-2.72-.17-2.72,1.55a6,6,0,0,0,2.7,4.69c1.5.86,2.72.17,2.72-1.56A5.94,5.94,0,0,0,411.25,183.45Z" style="fill:#e0e0e0"></path></g><g id="freepik--Plants--inject-342"><path d="M43.77,335.54l16.16.48,16.16-.48c.7,10.92-1.43,22-4.37,27.47h0a7.41,7.41,0,0,1-3.2,3.26C63.74,369,56,369,51.3,366.27a7.23,7.23,0,0,1-3.2-3.34C45.19,357.46,43.08,346.4,43.77,335.54Z" style="fill:#fff"></path><path d="M48.54,328.93c-6.33,3.65-6.36,9.58-.07,13.23s16.52,3.66,22.85,0,6.37-9.58.08-13.23S54.88,325.27,48.54,328.93Z" style="fill:#ebebeb"></path><path d="M51.05,330.38c-4.94,2.85-5,7.48-.06,10.33s12.89,2.85,17.83,0,5-7.48.06-10.33S56,327.53,51.05,330.38Z" style="fill:#e0e0e0"></path><g style="opacity:0.15"><path d="M51.05,330.38c-4.94,2.85-5,7.48-.06,10.33s12.89,2.85,17.83,0,5-7.48.06-10.33S56,327.53,51.05,330.38Z"></path></g><path d="M33.36,266.59c36.42,11.92,36.75,36.28,28.54,53.63-2.07,3.52-8.34,5.4-13.79-16.18l9.57,1.23-11.15-5.65L43.63,291l9.3.69-11.8-5A175,175,0,0,0,33.36,266.59Z" style="fill:#582570"></path><path d="M33.36,266.59c36.42,11.92,36.75,36.28,28.54,53.63-2.07,3.52-8.34,5.4-13.79-16.18l9.57,1.23-11.15-5.65L43.63,291l9.3.69-11.8-5A175,175,0,0,0,33.36,266.59Z" style="opacity:0.2"></path><path d="M33.36,266.59c36.42,11.92,36.75,36.28,28.54,53.63-2.07,3.52-8.34,5.4-13.79-16.18l9.57,1.23-11.15-5.65L43.63,291l9.3.69-11.8-5A175,175,0,0,0,33.36,266.59Z" style="fill:#fff;opacity:0.2"></path><path d="M43.66,272.68C62.87,287.26,64.6,304,59.18,321.41,61.1,306.05,63.17,290.52,43.66,272.68Z" style="fill:#fff"></path><path d="M95.05,291.34c-35.9,5.05-40.26,27.68-35.49,45.21,1.34,3.61,6.86,6.41,15.53-12.78L66,323.32l11.32-3.41,4.13-7.58-8.77-.9,11.81-2.66A163.56,163.56,0,0,1,95.05,291.34Z" style="fill:#582570"></path><path d="M95.05,291.34c-35.9,5.05-40.26,27.68-35.49,45.21,1.34,3.61,6.86,6.41,15.53-12.78L66,323.32l11.32-3.41,4.13-7.58-8.77-.9,11.81-2.66A163.56,163.56,0,0,1,95.05,291.34Z" style="fill:#fff;opacity:0.2"></path><path d="M95.05,291.34c-35.9,5.05-40.26,27.68-35.49,45.21,1.34,3.61,6.86,6.41,15.53-12.78L66,323.32l11.32-3.41,4.13-7.58-8.77-.9,11.81-2.66A163.56,163.56,0,0,1,95.05,291.34Z" style="opacity:0.1"></path><path d="M84.44,295.3C64.13,305.68,59.74,321,61.9,338.11,62.66,323.48,63.31,308.67,84.44,295.3Z" style="fill:#fff"></path><path d="M22.86,299.82c32.92.54,39.38,20.45,37,36.77-.8,3.41-5.47,6.55-15.42-9.77l8.16-1.43-10.59-1.8-4.57-6.37,7.8-1.79-10.94-1.08A150.2,150.2,0,0,0,22.86,299.82Z" style="fill:#582570"></path><path d="M32.86,302.2C52.32,309.29,58,322.56,58,338.26,55.64,325.17,53.4,311.89,32.86,302.2Z" style="fill:#fff"></path><path d="M22.86,299.82c32.92.54,39.38,20.45,37,36.77-.8,3.41-5.47,6.55-15.42-9.77l8.16-1.43-10.59-1.8-4.57-6.37,7.8-1.79-10.94-1.08A150.2,150.2,0,0,0,22.86,299.82Z" style="fill:#fff;opacity:0.2"></path><path d="M434.77,306.94l16.94.5,17-.5c.73,11.45-1.5,23.11-4.58,28.81h0a7.72,7.72,0,0,1-3.35,3.41c-5,2.89-13.08,2.89-18,0a7.51,7.51,0,0,1-3.35-3.5C436.25,329.93,434,318.33,434.77,306.94Z" style="fill:#fff"></path><path d="M439.77,300c-6.64,3.84-6.68,10.05-.08,13.89s17.33,3.83,24,0,6.67-10.05.08-13.89S446.41,296.17,439.77,300Z" style="fill:#ebebeb"></path><path d="M442.4,301.53c-5.18,3-5.21,7.84-.07,10.83s13.52,3,18.7,0,5.21-7.84.06-10.83S447.58,298.54,442.4,301.53Z" style="fill:#e0e0e0"></path><g style="opacity:0.15"><path d="M442.4,301.53c-5.18,3-5.21,7.84-.07,10.83s13.52,3,18.7,0,5.21-7.84.06-10.83S447.58,298.54,442.4,301.53Z"></path></g><path d="M460.36,272.26c2.75-3.42,5.95-6.49,8.48-10.09,1.73-2.46,3.17-5.46,2.44-8.37a7.5,7.5,0,0,0-5.93-5.23,11.38,11.38,0,0,0-8,1.78,24.28,24.28,0,0,0-6,5.73,59.81,59.81,0,0,0-12.6,42.7,9,9,0,0,0,1.58,4.91,4.89,4.89,0,0,0,5.06,1.55c4.62-1.37,4-7.61,4.76-11.27a51.09,51.09,0,0,1,10.19-21.71Z" style="fill:#582570"></path><path d="M460.36,272.26c2.75-3.42,5.95-6.49,8.48-10.09,1.73-2.46,3.17-5.46,2.44-8.37a7.5,7.5,0,0,0-5.93-5.23,11.38,11.38,0,0,0-8,1.78,24.28,24.28,0,0,0-6,5.73,59.81,59.81,0,0,0-12.6,42.7,9,9,0,0,0,1.58,4.91,4.89,4.89,0,0,0,5.06,1.55c4.62-1.37,4-7.61,4.76-11.27a51.09,51.09,0,0,1,10.19-21.71Z" style="fill:#fff;opacity:0.2"></path><path d="M445.12,300.59a.41.41,0,0,0,.33-.38c.32-7.41,2.73-32.7,20.16-47a.4.4,0,0,0,.06-.57.41.41,0,0,0-.57-.06c-17.69,14.57-20.13,40.15-20.46,47.65a.41.41,0,0,0,.39.42Z" style="fill:#f0f0f0"></path><path d="M442.58,301.4a12.34,12.34,0,0,0,5.66,7.84,15.91,15.91,0,0,0,8.56,1.44,37.87,37.87,0,0,0,8.7-2.06c1.39-.47,2.95-1.11,3.1-2.84a3.08,3.08,0,0,0-1-2.44,11.45,11.45,0,0,0-.9-.78.89.89,0,0,1,.47-1.6,20.74,20.74,0,0,0,2.48-.31,10.89,10.89,0,0,0,5.2-2.35,8.71,8.71,0,0,0,2.41-3.56c.42-1.16.54-2.62-.35-3.49a3.76,3.76,0,0,0-1.92-.84c-.62-.13-1.24-.25-1.87-.35a.83.83,0,0,1-.19-1.58l2.63-1.09a4.94,4.94,0,0,0,2-1.24,4.33,4.33,0,0,0,.51-3.62c-.32-1.65-.89-3.23-1.28-4.87a10.46,10.46,0,0,1-.17-5,41.73,41.73,0,0,0-14.73,1,10.6,10.6,0,0,0-4,1.76c-1.64,1.31-2.06,3.28-1.89,5.41a.38.38,0,0,1-.71.2L453.59,278a2,2,0,0,0-2.62-.84,12.1,12.1,0,0,0-3.84,3,6.66,6.66,0,0,0-1.64,4.92,43,43,0,0,0,1.22,7.22.66.66,0,0,1-1,.7l-.08-.05a2.23,2.23,0,0,0-1.59-.46c-1.48.18-1.86,1.68-2,3A25,25,0,0,0,442.58,301.4Z" style="fill:#582570"></path><path d="M442.58,301.4a12.34,12.34,0,0,0,5.66,7.84,15.91,15.91,0,0,0,8.56,1.44,37.87,37.87,0,0,0,8.7-2.06c1.39-.47,2.95-1.11,3.1-2.84a3.08,3.08,0,0,0-1-2.44,11.45,11.45,0,0,0-.9-.78.89.89,0,0,1,.47-1.6,20.74,20.74,0,0,0,2.48-.31,10.89,10.89,0,0,0,5.2-2.35,8.71,8.71,0,0,0,2.41-3.56c.42-1.16.54-2.62-.35-3.49a3.76,3.76,0,0,0-1.92-.84c-.62-.13-1.24-.25-1.87-.35a.83.83,0,0,1-.19-1.58l2.63-1.09a4.94,4.94,0,0,0,2-1.24,4.33,4.33,0,0,0,.51-3.62c-.32-1.65-.89-3.23-1.28-4.87a10.46,10.46,0,0,1-.17-5,41.73,41.73,0,0,0-14.73,1,10.6,10.6,0,0,0-4,1.76c-1.64,1.31-2.06,3.28-1.89,5.41a.38.38,0,0,1-.71.2L453.59,278a2,2,0,0,0-2.62-.84,12.1,12.1,0,0,0-3.84,3,6.66,6.66,0,0,0-1.64,4.92,43,43,0,0,0,1.22,7.22.66.66,0,0,1-1,.7l-.08-.05a2.23,2.23,0,0,0-1.59-.46c-1.48.18-1.86,1.68-2,3A25,25,0,0,0,442.58,301.4Z" style="opacity:0.2"></path><path d="M442.58,301.4a12.34,12.34,0,0,0,5.66,7.84,15.91,15.91,0,0,0,8.56,1.44,37.87,37.87,0,0,0,8.7-2.06c1.39-.47,2.95-1.11,3.1-2.84a3.08,3.08,0,0,0-1-2.44,11.45,11.45,0,0,0-.9-.78.89.89,0,0,1,.47-1.6,20.74,20.74,0,0,0,2.48-.31,10.89,10.89,0,0,0,5.2-2.35,8.71,8.71,0,0,0,2.41-3.56c.42-1.16.54-2.62-.35-3.49a3.76,3.76,0,0,0-1.92-.84c-.62-.13-1.24-.25-1.87-.35a.83.83,0,0,1-.19-1.58l2.63-1.09a4.94,4.94,0,0,0,2-1.24,4.33,4.33,0,0,0,.51-3.62c-.32-1.65-.89-3.23-1.28-4.87a10.46,10.46,0,0,1-.17-5,41.73,41.73,0,0,0-14.73,1,10.6,10.6,0,0,0-4,1.76c-1.64,1.31-2.06,3.28-1.89,5.41a.38.38,0,0,1-.71.2L453.59,278a2,2,0,0,0-2.62-.84,12.1,12.1,0,0,0-3.84,3,6.66,6.66,0,0,0-1.64,4.92,43,43,0,0,0,1.22,7.22.66.66,0,0,1-1,.7l-.08-.05a2.23,2.23,0,0,0-1.59-.46c-1.48.18-1.86,1.68-2,3A25,25,0,0,0,442.58,301.4Z" style="fill:#fff;opacity:0.2"></path><path d="M450.39,308.84a59.13,59.13,0,0,1,4-11.48.41.41,0,0,1,.14-.3l.27-.6a37.11,37.11,0,0,0-3.92-13.14.41.41,0,1,1,.7-.41,37.65,37.65,0,0,1,3.87,12.22c3.35-6.72,8.7-14.59,17-20.33a.39.39,0,0,1,.56.1.4.4,0,0,1-.1.56c-8.52,5.93-13.89,14.14-17.16,21a24.73,24.73,0,0,1,14-1.9.4.4,0,0,1,.32.47.39.39,0,0,1-.32.32h-.15c-.08,0-7.79-1.41-14.45,2.31A58.86,58.86,0,0,0,451.18,309a.39.39,0,0,1-.32.31h-.16A.39.39,0,0,1,450.39,308.84Z" style="fill:#f0f0f0"></path></g><g id="freepik--landing-page--inject-342"><polygon points="68.55 222.15 68.51 207.88 61.07 203.65 61.11 217.58 61.11 217.58 61.11 217.9 68.55 222.15 68.55 222.15" style="fill:#582570"></polygon><path d="M69,387.38l-.47-165.23-7.44-4.25.46,164.92a3.13,3.13,0,0,0,1.25,2.79h0l0,0,0,0,7.34,4.48A3.09,3.09,0,0,1,69,387.38Z" style="fill:#582570"></path><path d="M69,387.38l-.47-165.23-7.44-4.25.46,164.92a3.13,3.13,0,0,0,1.25,2.79h0l0,0,0,0,7.34,4.48A3.09,3.09,0,0,1,69,387.38Z" style="fill:#fff;opacity:0.2"></path><path d="M73.44,389.9a5.45,5.45,0,0,1-.86.4A5.45,5.45,0,0,0,73.44,389.9Z" style="fill:#455a64"></path><path d="M72,390.44l-.18,0Z" style="fill:#455a64"></path><path d="M70.45,390.28h0l0,0Z" style="fill:#455a64"></path><path d="M68.54,207.85l0-8.21A9.71,9.71,0,0,1,72.9,192l249-143.75a3.15,3.15,0,0,1,3.08-.33l-7.35-4.51h0a3.06,3.06,0,0,0-3.18.26l-249,143.75a9.68,9.68,0,0,0-4.39,7.62l0,8.22h0l0,0v.32l7.44,4.24Z" style="fill:#582570"></path><path d="M68.54,207.85l0-8.21A9.71,9.71,0,0,1,72.9,192l249-143.75a3.15,3.15,0,0,1,3.08-.33l-7.35-4.51h0a3.06,3.06,0,0,0-3.18.26l-249,143.75a9.68,9.68,0,0,0-4.39,7.62l0,8.22h0l0,0v.32l7.44,4.24Z" style="fill:#fff;opacity:0.30000000000000004"></path><polygon points="68.55 222.15 68.51 207.88 61.07 203.65 61.11 217.58 61.11 217.58 61.11 217.9 68.55 222.15 68.55 222.15" style="opacity:0.2"></polygon><polygon points="68.55 222.15 68.51 207.88 61.07 203.65 61.11 217.58 61.11 217.58 61.11 217.9 68.55 222.15 68.55 222.15" style="fill:#fff;opacity:0.2"></polygon><path d="M321.89,48.27c2.43-1.4,4.41-.27,4.42,2.53l0,8.22L68.54,207.85l0-8.21A9.71,9.71,0,0,1,72.9,192Z" style="fill:#582570"></path><path d="M305.2,61.87c1.3-.76,2.36-.15,2.36,1.34a5.16,5.16,0,0,1-2.35,4.07c-1.3.76-2.36.15-2.36-1.34A5.13,5.13,0,0,1,305.2,61.87Z" style="fill:#fff"></path><path d="M312.39,57.71c1.3-.75,2.36-.14,2.36,1.35a5.13,5.13,0,0,1-2.35,4.07c-1.3.75-2.36.15-2.36-1.35A5.19,5.19,0,0,1,312.39,57.71Z" style="fill:#fff"></path><path d="M319.57,53.57c1.31-.76,2.36-.15,2.37,1.34A5.19,5.19,0,0,1,319.59,59c-1.3.76-2.36.15-2.37-1.34A5.19,5.19,0,0,1,319.57,53.57Z" style="fill:#fff"></path><path d="M120.38,169.77c1-.56,1.87-.46,2.33.26l2.34,3.6c.47.72,1.36.82,2.33.26L326.3,59l0,14.29L68.55,222.17l0-14.29,7.64-4.41a5.89,5.89,0,0,0,2.33-2.95l2.3-6.28a5.79,5.79,0,0,1,2.32-2.94Z" style="fill:#e0e0e0"></path><path d="M326.34,73.31l.47,165.24a9.67,9.67,0,0,1-4.39,7.6L73.44,389.9c-2.44,1.41-4.41.28-4.42-2.52l-.47-165.23Z" style="fill:#582570"></path><g style="opacity:0.4"><path d="M326.34,73.31l.47,165.24a9.67,9.67,0,0,1-4.39,7.6L73.44,389.9c-2.44,1.41-4.41.28-4.42-2.52l-.47-165.23Z" style="fill:#fff"></path></g><path d="M316.15,67.82c1.73-1,3.13-.2,3.14,1.79A6.9,6.9,0,0,1,316.17,75L98,201c-1.73,1-3.14.19-3.15-1.8a6.9,6.9,0,0,1,3.13-5.4Z" style="fill:#fff"></path><path d="M72.67,209.15a.31.31,0,0,1,.33,0c.16.11.15.44,0,.73l-1.37,2.25L75.21,210a.27.27,0,0,1,.44.25.94.94,0,0,1-.44.77l-3.61,2.08,1.38.66c.18.09.2.4,0,.69a1,1,0,0,1-.32.36.35.35,0,0,1-.31,0l-2.21-1.06-.09-.09v0l0-.18,0-.22,0,0,.08-.18,2.21-3.62A.81.81,0,0,1,72.67,209.15Z" style="fill:#e0e0e0"></path><path d="M80.49,204.64a.33.33,0,0,1,.3,0L83,205.65l.08.1h0l0,.18,0,.22,0,.05-.07.18L80.81,210a.86.86,0,0,1-.3.3.29.29,0,0,1-.32,0c-.17-.1-.16-.43,0-.73l1.37-2.24L78,209.45c-.24.13-.44,0-.44-.26a1,1,0,0,1,.43-.76l3.62-2.08-1.38-.66c-.19-.09-.19-.4,0-.71A.88.88,0,0,1,80.49,204.64Z" style="fill:#e0e0e0"></path><path d="M87.91,200.35a2,2,0,0,1,1.5-.28l.33-.44a.83.83,0,0,1,.24-.22.42.42,0,0,1,.24,0c.15,0,.22.18.2.4l-.19,1.36a1,1,0,0,1-.19.45.82.82,0,0,1-.24.22l-.11.05-1.07.3a.25.25,0,0,1-.33-.23.85.85,0,0,1,.2-.61l.1-.14a1.39,1.39,0,0,0-.67.2,3.51,3.51,0,0,0-1.59,2.74c0,1,.72,1.42,1.6.91a3.42,3.42,0,0,0,1.39-1.74,1,1,0,0,1,.38-.49.45.45,0,0,1,.21-.06c.22,0,.3.28.18.59A5.43,5.43,0,0,1,87.93,206c-1.36.78-2.47.15-2.48-1.42A5.44,5.44,0,0,1,87.91,200.35Z" style="fill:#e0e0e0"></path><g style="opacity:0.30000000000000004"><path d="M72.67,209.15a.31.31,0,0,1,.33,0c.16.11.15.44,0,.73l-1.37,2.25L75.21,210a.27.27,0,0,1,.44.25.94.94,0,0,1-.44.77l-3.61,2.08,1.38.66c.18.09.2.4,0,.69a1,1,0,0,1-.32.36.35.35,0,0,1-.31,0l-2.21-1.06-.09-.09v0l0-.18,0-.22,0,0,.08-.18,2.21-3.62A.81.81,0,0,1,72.67,209.15Z"></path></g><g style="opacity:0.30000000000000004"><path d="M80.49,204.64a.33.33,0,0,1,.3,0L83,205.65l.08.1h0l0,.18,0,.22,0,.05-.07.18L80.81,210a.86.86,0,0,1-.3.3.29.29,0,0,1-.32,0c-.17-.1-.16-.43,0-.73l1.37-2.24L78,209.45c-.24.13-.44,0-.44-.26a1,1,0,0,1,.43-.76l3.62-2.08-1.38-.66c-.19-.09-.19-.4,0-.71A.88.88,0,0,1,80.49,204.64Z"></path></g><g style="opacity:0.30000000000000004"><path d="M87.91,200.35a2,2,0,0,1,1.5-.28l.33-.44a.83.83,0,0,1,.24-.22.42.42,0,0,1,.24,0c.15,0,.22.18.2.4l-.19,1.36a1,1,0,0,1-.19.45.82.82,0,0,1-.24.22l-.11.05-1.07.3a.25.25,0,0,1-.33-.23.85.85,0,0,1,.2-.61l.1-.14a1.39,1.39,0,0,0-.67.2,3.51,3.51,0,0,0-1.59,2.74c0,1,.72,1.42,1.6.91a3.42,3.42,0,0,0,1.39-1.74,1,1,0,0,1,.38-.49.45.45,0,0,1,.21-.06c.22,0,.3.28.18.59A5.43,5.43,0,0,1,87.93,206c-1.36.78-2.47.15-2.48-1.42A5.44,5.44,0,0,1,87.91,200.35Z"></path></g><g style="opacity:0.6000000000000001"><path d="M314.9,121.62l.23,59.41a15.34,15.34,0,0,1-7.63,13.29L178.79,269a5.1,5.1,0,0,1-7.66-4.4l-.22-59.41a15.31,15.31,0,0,1,7.62-13.29l128.71-74.66A5.1,5.1,0,0,1,314.9,121.62Z" style="fill:#fff"></path></g><polygon points="262.71 157.59 236.88 206.65 229.57 220.55 234.6 204.9 220.36 193.84 204.5 225.35 204.56 244.6 287.79 196.54 287.73 177.29 262.71 157.59" style="fill:#582570"></polygon><path d="M235.42,183.6a15.63,15.63,0,0,0,7.07-12.25c0-4.5-3.2-6.32-7.12-4.06a15.6,15.6,0,0,0-7.07,12.25C228.31,184,231.5,185.86,235.42,183.6Z" style="fill:#582570"></path><g style="opacity:0.30000000000000004"><polygon points="262.71 157.59 236.88 206.65 229.57 220.55 234.6 204.9 220.36 193.84 204.5 225.35 204.56 244.6 287.79 196.54 287.73 177.29 262.71 157.59" style="fill:#fff"></polygon><path d="M235.42,183.6a15.63,15.63,0,0,0,7.07-12.25c0-4.5-3.2-6.32-7.12-4.06a15.6,15.6,0,0,0-7.07,12.25C228.31,184,231.5,185.86,235.42,183.6Z" style="fill:#fff"></path></g><g style="opacity:0.6000000000000001"><path d="M239,245.61l.1,35.88a6.94,6.94,0,0,1-3.45,6L174.47,323a2.31,2.31,0,0,1-3.46-2l-.1-35.89a6.89,6.89,0,0,1,3.45-6l61.16-35.49A2.31,2.31,0,0,1,239,245.61Z" style="fill:#fff"></path></g><polygon points="198.93 275.67 217.88 277.3 199 300.76 198.93 275.67" style="fill:#582570"></polygon><g style="opacity:0.30000000000000004"><polygon points="198.93 275.67 217.88 277.3 199 300.76 198.93 275.67" style="fill:#fff"></polygon></g><g style="opacity:0.6000000000000001"><path d="M314.2,202l.1,35.88a6.91,6.91,0,0,1-3.45,6L250,278.75a2.31,2.31,0,0,1-3.47-2l-.1-35.88a6.94,6.94,0,0,1,3.45-6L310.73,200A2.31,2.31,0,0,1,314.2,202Z" style="fill:#fff"></path></g><polygon points="273.51 230.76 292.45 232.39 273.58 255.85 273.51 230.76" style="fill:#582570"></polygon><g style="opacity:0.30000000000000004"><polygon points="273.51 230.76 292.45 232.39 273.58 255.85 273.51 230.76" style="fill:#fff"></polygon></g><g style="opacity:0.7000000000000001"><polygon points="136.43 199.35 136.45 208.4 84.68 238.29 84.66 229.25 136.43 199.35" style="fill:#fff"></polygon><polygon points="115.65 225.35 115.67 229.85 84.71 247.73 84.7 243.23 115.65 225.35" style="fill:#fff"></polygon><polygon points="199.45 163.01 199.47 168.29 184.48 176.94 184.46 171.67 199.45 163.01" style="fill:#fff"></polygon><polygon points="228.2 146.41 228.21 151.69 208.23 163.23 208.22 157.95 228.2 146.41" style="fill:#fff"></polygon><polygon points="285.99 113.05 286 118.33 271.01 126.98 271 121.71 285.99 113.05" style="fill:#fff"></polygon><polygon points="314.74 96.45 314.75 101.73 294.77 113.27 294.75 107.99 314.74 96.45" style="fill:#fff"></polygon><polygon points="260.71 127.64 260.72 132.92 236.87 146.7 236.85 141.42 260.71 127.64" style="fill:#fff"></polygon></g><g style="opacity:0.7000000000000001"><polygon points="136.83 250.19 136.84 254.18 84.77 284.24 84.76 280.25 136.83 250.19" style="fill:#fff"></polygon><polygon points="105.22 275.37 105.24 279.35 84.79 291.16 84.78 287.17 105.22 275.37" style="fill:#fff"></polygon><polygon points="136.89 273.57 136.9 277.56 84.84 307.62 84.83 303.63 136.89 273.57" style="fill:#fff"></polygon><polygon points="136.87 266.65 136.88 270.63 84.82 300.69 84.81 296.71 136.87 266.65" style="fill:#fff"></polygon><polygon points="136.81 243.27 136.82 247.25 84.75 277.31 84.74 273.33 136.81 243.27" style="fill:#fff"></polygon><polygon points="125.67 286.98 125.68 290.96 84.86 314.53 84.84 310.55 125.67 286.98" style="fill:#fff"></polygon></g><g style="opacity:0.7000000000000001"><path d="M135.3,312c4.48-2.59,8.13-.51,8.15,4.64s-3.61,11.43-8.1,14L91.77,355.81c-4.49,2.59-8.14.52-8.15-4.64s3.61-11.43,8.09-14Z" style="fill:#582570"></path></g><polygon points="107.21 334.02 107.25 341 105.38 342.07 105.35 338.9 104.04 342.22 103.14 342.74 101.81 341.06 101.82 344.13 99.95 345.21 99.93 338.22 101.61 337.25 103.61 339.83 105.53 334.99 107.21 334.02" style="fill:#fff"></polygon><path d="M111.41,331.44c2-1.14,3.43-.44,3.44,1.67a7,7,0,0,1-3.42,5.64c-2,1.14-3.44.44-3.45-1.67A7,7,0,0,1,111.41,331.44Zm0,5.4a3,3,0,0,0,1.36-2.53c0-1.09-.61-1.4-1.37-1a3,3,0,0,0-1.35,2.53c0,1.09.61,1.39,1.36,1" style="fill:#fff"></path><path d="M120.15,331.39l1.29,1.41-2.19,1.27-1-1.16-.56.32V335l-2,1.18,0-7,2.93-1.7c1.69-1,2.77-.58,2.78,1A4.43,4.43,0,0,1,120.15,331.39Zm-1.76-.37a1.46,1.46,0,0,0,.83-1.29c0-.51-.27-.67-.83-.34l-.75.43v1.63l.74-.43" style="fill:#fff"></path><polygon points="127 322.59 127.01 324.38 124.08 326.06 124.08 326.88 126.65 325.4 126.66 327.09 124.09 328.57 124.09 329.5 127.13 327.74 127.13 329.52 122.08 332.43 122.06 325.45 127 322.59" style="fill:#fff"></polygon></g><g id="freepik--Datas--inject-342"><polygon points="253.26 426.92 253.25 431.29 223.51 414.12 223.52 409.75 253.26 426.92" style="fill:#582570"></polygon><polygon points="253.28 420.32 253.26 424.7 241.17 417.72 241.18 413.33 253.28 420.32" style="fill:#582570"></polygon><g style="isolation:isolate"><polygon points="203.97 405.06 203.96 409.44 182.55 397.08 182.56 392.7 203.97 405.06" style="fill:#582570"></polygon><polygon points="216.9 405.93 216.89 410.3 182.57 390.49 182.58 386.11 216.9 405.93" style="fill:#582570"></polygon><polygon points="235.42 410.01 235.41 414.39 201.44 394.78 198.13 392.87 182.36 383.77 182.37 379.38 198.15 388.49 201.46 390.4 235.42 410.01" style="fill:#582570"></polygon><polygon points="225.52 388.7 225.51 393.07 182.63 368.32 182.65 363.95 225.52 388.7" style="fill:#582570"></polygon><polygon points="223.06 380.67 223.04 385.04 214.67 380.2 214.68 375.83 223.06 380.67" style="fill:#582570"></polygon></g><polygon points="220.62 414.68 220.61 419.05 208.52 412.07 208.53 407.7 220.62 414.68" style="fill:#582570"></polygon><polygon points="253.34 398.15 253.33 402.52 229.49 388.76 229.5 384.38 253.34 398.15" style="fill:#582570"></polygon><polygon points="253.36 391.56 253.35 395.93 236.68 386.31 233 384.19 210.91 371.43 210.92 367.06 233.01 379.81 236.69 381.94 253.36 391.56" style="fill:#582570"></polygon><polygon points="235.54 368.06 235.52 372.43 207.78 356.41 207.79 352.04 235.54 368.06" style="fill:#582570"></polygon><polygon points="207.73 371.82 207.72 376.19 182.65 361.72 182.66 357.35 207.73 371.82" style="fill:#582570"></polygon><g style="isolation:isolate"><polygon points="204.09 363.12 204.08 367.49 182.67 355.13 182.68 350.76 204.09 363.12" style="fill:#582570"></polygon><polygon points="201.57 348.45 201.56 352.82 182.48 341.81 182.49 337.43 201.57 348.45" style="fill:#582570"></polygon><polygon points="217.02 363.98 217.01 368.35 182.69 348.54 182.7 344.17 217.02 363.98" style="fill:#582570"></polygon><polygon points="210.71 347.12 210.7 351.5 182.5 335.22 182.51 330.84 210.71 347.12" style="fill:#582570"></polygon></g><polygon points="253.38 384.97 253.37 389.35 223.63 372.18 223.64 367.8 253.38 384.97" style="fill:#582570"></polygon><polygon points="253.4 378.37 253.38 382.74 241.29 375.76 241.3 371.39 253.4 378.37" style="fill:#582570"></polygon><g style="opacity:0.6000000000000001"><polygon points="253.26 426.92 253.25 431.29 223.51 414.12 223.52 409.75 253.26 426.92" style="fill:#fff"></polygon><polygon points="253.28 420.32 253.26 424.7 241.17 417.72 241.18 413.33 253.28 420.32" style="fill:#fff"></polygon><g style="isolation:isolate"><polygon points="203.97 405.06 203.96 409.44 182.55 397.08 182.56 392.7 203.97 405.06" style="fill:#fff"></polygon><polygon points="216.9 405.93 216.89 410.3 182.57 390.49 182.58 386.11 216.9 405.93" style="fill:#fff"></polygon><polygon points="235.42 410.01 235.41 414.39 201.44 394.78 198.13 392.87 182.36 383.77 182.37 379.38 198.15 388.49 201.46 390.4 235.42 410.01" style="fill:#fff"></polygon><polygon points="225.52 388.7 225.51 393.07 182.63 368.32 182.65 363.95 225.52 388.7" style="fill:#fff"></polygon><polygon points="223.06 380.67 223.04 385.04 214.67 380.2 214.68 375.83 223.06 380.67" style="fill:#fff"></polygon></g><polygon points="220.62 414.68 220.61 419.05 208.52 412.07 208.53 407.7 220.62 414.68" style="fill:#fff"></polygon><polygon points="253.34 398.15 253.33 402.52 229.49 388.76 229.5 384.38 253.34 398.15" style="fill:#fff"></polygon><polygon points="253.36 391.56 253.35 395.93 236.68 386.31 233 384.19 210.91 371.43 210.92 367.06 233.01 379.81 236.69 381.94 253.36 391.56" style="fill:#fff"></polygon><polygon points="235.54 368.06 235.52 372.43 207.78 356.41 207.79 352.04 235.54 368.06" style="fill:#fff"></polygon><polygon points="207.73 371.82 207.72 376.19 182.65 361.72 182.66 357.35 207.73 371.82" style="fill:#fff"></polygon><g style="isolation:isolate"><polygon points="204.09 363.12 204.08 367.49 182.67 355.13 182.68 350.76 204.09 363.12" style="fill:#fff"></polygon><polygon points="201.57 348.45 201.56 352.82 182.48 341.81 182.49 337.43 201.57 348.45" style="fill:#fff"></polygon><polygon points="217.02 363.98 217.01 368.35 182.69 348.54 182.7 344.17 217.02 363.98" style="fill:#fff"></polygon><polygon points="210.71 347.12 210.7 351.5 182.5 335.22 182.51 330.84 210.71 347.12" style="fill:#fff"></polygon></g><polygon points="253.38 384.97 253.37 389.35 223.63 372.18 223.64 367.8 253.38 384.97" style="fill:#fff"></polygon><polygon points="253.4 378.37 253.38 382.74 241.29 375.76 241.3 371.39 253.4 378.37" style="fill:#fff"></polygon></g><path d="M168,341.76l-10.14-6a.51.51,0,0,1-.25-.44V272.12l-13.08-7.57.51-.88,13.33,7.72a.51.51,0,0,1,.26.44v63.23l9.89,5.82Z" style="fill:#582570"></path><path d="M170.92,338.7a8,8,0,0,1,3.61,6.26c0,2.3-1.63,3.23-3.64,2.07a8,8,0,0,1-3.61-6.26C167.29,338.47,168.92,337.54,170.92,338.7Z" style="fill:#582570"></path><path d="M146.67,261a8,8,0,0,1,3.62,6.26c0,2.3-1.64,3.23-3.64,2.07a8,8,0,0,1-3.62-6.26C143,260.78,144.67,259.85,146.67,261Z" style="fill:#582570"></path><g style="opacity:0.2"><path d="M168,341.76l-10.14-6a.51.51,0,0,1-.25-.44V272.12l-13.08-7.57.51-.88,13.33,7.72a.51.51,0,0,1,.26.44v63.23l9.89,5.82Z" style="fill:#fff"></path><path d="M170.92,338.7a8,8,0,0,1,3.61,6.26c0,2.3-1.63,3.23-3.64,2.07a8,8,0,0,1-3.61-6.26C167.29,338.47,168.92,337.54,170.92,338.7Z" style="fill:#fff"></path><path d="M146.67,261a8,8,0,0,1,3.62,6.26c0,2.3-1.64,3.23-3.64,2.07a8,8,0,0,1-3.62-6.26C143,260.78,144.67,259.85,146.67,261Z" style="fill:#fff"></path></g><polygon points="430.12 131.6 430.1 135.98 400.37 118.81 400.38 114.43 430.12 131.6" style="fill:#582570"></polygon><polygon points="430.13 125 430.12 129.39 418.03 122.4 418.04 118.02 430.13 125" style="fill:#582570"></polygon><g style="isolation:isolate"><polygon points="380.83 109.75 380.82 114.12 359.41 101.76 359.42 97.39 380.83 109.75" style="fill:#582570"></polygon><polygon points="393.76 110.61 393.75 114.99 359.43 95.17 359.44 90.8 393.76 110.61" style="fill:#582570"></polygon><polygon points="412.27 114.69 412.26 119.08 378.3 99.47 374.99 97.56 359.22 88.45 359.23 84.06 375 93.17 378.31 95.08 412.27 114.69" style="fill:#582570"></polygon></g><polygon points="397.48 119.36 397.46 123.73 385.38 116.76 385.39 112.38 397.48 119.36" style="fill:#582570"></polygon><g style="opacity:0.6000000000000001"><polygon points="430.12 131.6 430.1 135.98 400.37 118.81 400.38 114.43 430.12 131.6" style="fill:#fff"></polygon><polygon points="430.13 125 430.12 129.39 418.03 122.4 418.04 118.02 430.13 125" style="fill:#fff"></polygon><g style="isolation:isolate"><polygon points="380.83 109.75 380.82 114.12 359.41 101.76 359.42 97.39 380.83 109.75" style="fill:#fff"></polygon><polygon points="393.76 110.61 393.75 114.99 359.43 95.17 359.44 90.8 393.76 110.61" style="fill:#fff"></polygon><polygon points="412.27 114.69 412.26 119.08 378.3 99.47 374.99 97.56 359.22 88.45 359.23 84.06 375 93.17 378.31 95.08 412.27 114.69" style="fill:#fff"></polygon></g><polygon points="397.48 119.36 397.46 123.73 385.38 116.76 385.39 112.38 397.48 119.36" style="fill:#fff"></polygon></g><polygon points="430.13 148.65 430.12 153.03 418.03 146.05 418.04 141.67 430.13 148.65" style="fill:#582570"></polygon><g style="isolation:isolate"><polygon points="393.76 134.26 393.75 138.63 359.43 118.82 359.44 114.45 393.76 134.26" style="fill:#582570"></polygon><polygon points="412.27 138.34 412.26 142.72 378.3 123.12 374.99 121.2 359.22 112.1 359.23 107.71 375 116.82 378.31 118.73 412.27 138.34" style="fill:#582570"></polygon></g><g style="opacity:0.6000000000000001"><polygon points="430.13 148.65 430.12 153.03 418.03 146.05 418.04 141.67 430.13 148.65" style="fill:#fff"></polygon><g style="isolation:isolate"><polygon points="393.76 134.26 393.75 138.63 359.43 118.82 359.44 114.45 393.76 134.26" style="fill:#fff"></polygon><polygon points="412.27 138.34 412.26 142.72 378.3 123.12 374.99 121.2 359.22 112.1 359.23 107.71 375 116.82 378.31 118.73 412.27 138.34" style="fill:#fff"></polygon></g></g><path d="M377.28,135c-2-1.16-3.63-.23-3.63,2.07a7.1,7.1,0,0,0,.86,3.19l-51,29.52-16.08-9.38a8,8,0,0,0-3.61-6.2c-2-1.16-3.63-.23-3.64,2.07a8,8,0,0,0,3.61,6.26c1.67,1,3.06.47,3.49-1l16.23,9.47L375,141.09a7,7,0,0,0,2.23,2.2c2,1.16,3.63.23,3.64-2.07A8,8,0,0,0,377.28,135Z" style="fill:#582570"></path><path d="M377.28,135c-2-1.16-3.63-.23-3.63,2.07a7.1,7.1,0,0,0,.86,3.19l-51,29.52-16.08-9.38a8,8,0,0,0-3.61-6.2c-2-1.16-3.63-.23-3.64,2.07a8,8,0,0,0,3.61,6.26c1.67,1,3.06.47,3.49-1l16.23,9.47L375,141.09a7,7,0,0,0,2.23,2.2c2,1.16,3.63.23,3.64-2.07A8,8,0,0,0,377.28,135Z" style="fill:#fff;opacity:0.2"></path></g><g id="freepik--Character--inject-342"><path d="M318.75,290.32c-8.52,5.92-18.12,10-25.23,17.95-13.3,14.81-13.61,38.66-3.17,55.6S320.21,391,340,393.34c20.74,2.44,42.5-3.29,58.78-16.38s26.62-33.55,26.61-54.43-10.7-41.68-28.19-53.09c-16-10.41-38.9-13.38-54.91-1.47-8.1,6-13.49,14.91-21.57,20.95C320.06,289.4,319.41,289.86,318.75,290.32Z" style="fill:#37474f"></path><path d="M318.75,290.32c-8.52,5.92-18.12,10-25.23,17.95-13.3,14.81-13.61,38.66-3.17,55.6S320.21,391,340,393.34c20.74,2.44,42.5-3.29,58.78-16.38s26.62-33.55,26.61-54.43-10.7-41.68-28.19-53.09c-16-10.41-38.9-13.38-54.91-1.47-8.1,6-13.49,14.91-21.57,20.95C320.06,289.4,319.41,289.86,318.75,290.32Z" style="opacity:0.2"></path><path d="M318.75,290.32c-8.52,5.92-18.12,10-25.23,17.95-13.3,14.81-13.61,38.66-3.17,55.6S320.21,391,340,393.34c20.74,2.44,42.5-3.29,58.78-16.38s26.62-33.55,26.61-54.43-10.7-41.68-28.19-53.09c-16-10.41-38.9-13.38-54.91-1.47-8.1,6-13.49,14.91-21.57,20.95C320.06,289.4,319.41,289.86,318.75,290.32Z" style="fill:#fff;opacity:0.1"></path><path d="M322.22,377.14l.06-.42A22.43,22.43,0,0,1,340.46,358a70.71,70.71,0,0,0,23.28-8.92c5.09-3.07,9.89-6.84,15.6-8.51a25.4,25.4,0,0,1,16.81,1c-4.79-5-13-7.26-19.59-5,4.55-7,8.55-14.46,10.12-22.63s.46-17.13-4.47-23.83a24,24,0,0,0-37-2c-4.88,5.34-7.63,12.84-10.83,19.32-2.31,4.66-4.68,9.42-8.48,13-5.72,5.35-13.95,7.28-19.88,12.4-6.73,5.81-9.63,15.09-9.66,24a70.76,70.76,0,0,0,2.6,17.73,67.33,67.33,0,0,0,24.33,14.87A26.42,26.42,0,0,1,322.22,377.14Z" style="opacity:0.1"></path><g style="opacity:0.2"><path d="M414.24,319.66a61,61,0,0,0-52-59.18,44.82,44.82,0,0,0-5.88,1,59.42,59.42,0,0,1,56.27,58.22c.38,19.44-9.12,39.25-25.43,53-12.78,10.78-29.76,17.92-48.42,20.49l1.2.16c1.67.19,3.36.33,5,.42,16.57-3.21,31.59-10.05,43.2-19.84C404.91,359.86,414.63,339.58,414.24,319.66Z" style="fill:#fff"></path></g><path d="M300.5,370.65a59.33,59.33,0,0,1,1,9.7l2.3-.87a5.94,5.94,0,0,1,6.39,1.45l.12.12a2.31,2.31,0,0,0,3.19.15h0a2.32,2.32,0,0,0,.8-1.67l.31-9.8Z" style="fill:#ffa8a7"></path><path d="M309.38,407c-4.77,5.11-13.56,9.58-19.95,5.22l.71,1.63c6.39,4.35,15.18-.11,20-5.22s1.68-8.65,6-13.18a15.51,15.51,0,0,0,3.72-5.52c-.19-.48-.38-1.12-.6-1.85a19.76,19.76,0,0,1-3.83,5.75C311.06,398.4,314.16,401.94,309.38,407Z" style="fill:#f5f5f5"></path><path d="M316.84,382.78a9.48,9.48,0,0,1-1.51-3.48,2,2,0,0,0-.94-1.42l-.05,1.65a2.32,2.32,0,0,1-4,1.52l-.12-.12a5.94,5.94,0,0,0-6.39-1.45l-2.34.88a1.8,1.8,0,0,0-1.16,1.72c.15,6.7-3,15.59-6.26,20.48-3.37,1.4-6.29,6-4.8,9.36l.15.34c6.39,4.36,15.18-.11,19.95-5.22s1.68-8.64,6-13.17a19.76,19.76,0,0,0,3.83-5.75A21.3,21.3,0,0,0,316.84,382.78Z" style="fill:#455a64"></path><path d="M307.49,392.45a.82.82,0,0,0,1.09-.36.8.8,0,0,0-.33-1.08,9.34,9.34,0,0,0-9.18,0c-.14.53-.29,1.05-.45,1.57A9,9,0,0,1,307.49,392.45Z" style="fill:#fff"></path><path d="M308.67,388.83a.82.82,0,0,0,.75-1.45,9.81,9.81,0,0,0-9.54.08c-.1.55-.21,1.09-.33,1.64C302.33,387.63,305.14,387.05,308.67,388.83Z" style="fill:#fff"></path><path d="M306.2,396.06a.82.82,0,0,0,1.09-.37.81.81,0,0,0-.34-1.08,9.29,9.29,0,0,0-9-.09c-.2.57-.42,1.12-.64,1.67A9,9,0,0,1,306.2,396.06Z" style="fill:#fff"></path><path d="M294.08,402.56c-3.37,1.4-6.29,6-4.8,9.36l.15.34c6.29,4.29,14.91,0,19.73-5C305.14,399.39,296.74,401.35,294.08,402.56Z" style="fill:#fff"></path><path d="M304.79,399.58a.82.82,0,0,0,.75-1.45,9.29,9.29,0,0,0-9-.08c-.29.62-.58,1.22-.88,1.8C298.45,398.38,301.26,397.79,304.79,399.58Z" style="fill:#fff"></path><path d="M290.46,390.12a59.55,59.55,0,0,1-3,9.29l2.45.14a6,6,0,0,1,5.27,3.91l0,.15a2.33,2.33,0,0,0,2.87,1.43h0a2.36,2.36,0,0,0,1.4-1.21l4.23-8.84Z" style="fill:#ffa8a7"></path><path d="M283.9,427c-6.43,2.75-16.28,3.29-20.36-3.28v1.78c4.08,6.56,13.93,6,20.36,3.28s5-7.23,10.78-9.64a15.63,15.63,0,0,0,5.63-3.55c0-.53.11-1.18.2-1.94a19.41,19.41,0,0,1-5.83,3.71C288.92,419.77,290.33,424.26,283.9,427Z" style="fill:#f5f5f5"></path><path d="M300.51,407.82a9.32,9.32,0,0,1,0-3.8,2,2,0,0,0-.29-1.68l-.71,1.49a2.36,2.36,0,0,1-1.4,1.21,2.33,2.33,0,0,1-2.87-1.43l0-.15a6,6,0,0,0-5.27-3.91l-2.49-.14a1.8,1.8,0,0,0-1.76,1.1c-2.57,6.19-9,13.07-14,16.22-3.65-.09-8.17,2.94-8.17,6.63v.36c4.08,6.57,13.93,6,20.36,3.28s5-7.23,10.78-9.64a19.41,19.41,0,0,0,5.83-3.71A20.85,20.85,0,0,0,300.51,407.82Z" style="fill:#455a64"></path><path d="M288.06,412.89a.81.81,0,0,0,1.27-1,9.33,9.33,0,0,0-8.4-3.69q-.51.65-1.05,1.26A9,9,0,0,1,288.06,412.89Z" style="fill:#fff"></path><path d="M290.6,410.05a.81.81,0,0,0,1.14.11.82.82,0,0,0,.13-1.13,9.79,9.79,0,0,0-8.76-3.78c-.31.46-.64.92-1,1.37C285.28,406.4,288.09,407,290.6,410.05Z" style="fill:#fff"></path><path d="M285.43,415.67a.81.81,0,0,0,1.27-1,9.32,9.32,0,0,0-8.18-3.71c-.41.44-.83.86-1.26,1.27A9,9,0,0,1,285.43,415.67Z" style="fill:#fff"></path><path d="M271.71,416.73c-3.65-.09-8.17,2.94-8.17,6.63v.36c4,6.47,13.63,6,20.06,3.4C283.11,418.29,274.63,416.69,271.71,416.73Z" style="fill:#fff"></path><path d="M282.71,418.32a.82.82,0,0,0,1.14.1.8.8,0,0,0,.13-1.12,9.3,9.3,0,0,0-8.19-3.71c-.51.46-1,.89-1.53,1.29C277.4,414.66,280.2,415.26,282.71,418.32Z" style="fill:#fff"></path><path d="M328.24,306.48l-32.19,17.93a16,16,0,0,0-7.92,16.84l6.25,33.65-5.12,16.27c4.42,5.93,14.56,6.23,14.56,6.23,5.66-11.35,9.82-16.17,13-25.68s5.36-16.08,5.36-16.08l26.73-7.3a31.67,31.67,0,0,0,23.16-26.95c.46-4.05.48-6.81.48-6.81Z" style="fill:#582570"></path><path d="M328.24,306.48l-32.19,17.93a16,16,0,0,0-7.92,16.84l6.25,33.65-5.12,16.27c4.42,5.93,14.56,6.23,14.56,6.23,5.66-11.35,9.82-16.17,13-25.68s5.36-16.08,5.36-16.08l26.73-7.3a31.67,31.67,0,0,0,23.16-26.95c.46-4.05.48-6.81.48-6.81Z" style="opacity:0.30000000000000004"></path><path d="M328.24,306.48l-32.19,17.93a16,16,0,0,0-7.92,16.84l6.25,33.65-5.12,16.27c4.42,5.93,14.56,6.23,14.56,6.23,5.66-11.35,9.82-16.17,13-25.68s5.36-16.08,5.36-16.08l26.73-7.3a31.67,31.67,0,0,0,23.16-26.95c.46-4.05.48-6.81.48-6.81Z" style="fill:#fff;opacity:0.1"></path><path d="M328.48,315.52a15.19,15.19,0,0,0,3.6,9.81l-22.71,14.22a16.31,16.31,0,0,0-6.95,9.06l-8,26.29,7.25-29.28a13.28,13.28,0,0,1,5.91-8.1l21-13C326.36,319.2,328.48,315.52,328.48,315.52Z" style="opacity:0.2"></path><path d="M306.94,269.52l-7.24,6.54c-4.63-5.91-10.84-9.9-16.27-18.18-1.56-2-1.4-5.93-2.46-7.95-.84-1.58-2.3-4-2.91-5.29a.88.88,0,0,0-1.33-.35c-1.49,1.14-.68,3.8.12,6.59.95,3.3-4-1.17-4.7-1.93-3.16-2.94-5.87-10.15-8-9.43s-.45,4.31-.45,4.31c-2,.42-1.23,3.58-1.23,3.58-1.17,2.07-.84,5.26,1.57,8.23,1.75,2.15,6.48,5.11,8.94,6.56a8.1,8.1,0,0,1,2.56,2.42L291,287.68a9.29,9.29,0,0,0,13.26,2.25l10.53-7.88Z" style="fill:#ffa8a7"></path><path d="M306.94,269.52l-7.24,6.54c-4.63-5.91-10.84-9.9-16.27-18.18-1.56-2-1.4-5.93-2.46-7.95-.84-1.58-2.3-4-2.91-5.29a.88.88,0,0,0-1.33-.35c-1.49,1.14-.68,3.8.12,6.59.95,3.3-4-1.17-4.7-1.93-3.16-2.94-5.87-10.15-8-9.43s-.45,4.31-.45,4.31c-2,.42-1.23,3.58-1.23,3.58-1.17,2.07-.84,5.26,1.57,8.23,1.75,2.15,6.48,5.11,8.94,6.56a8.1,8.1,0,0,1,2.56,2.42L291,287.68a9.29,9.29,0,0,0,13.26,2.25l10.53-7.88Z" style="opacity:0.30000000000000004"></path><path d="M330.37,251.41c-7.86-.34-18.29,11.32-25,18.31a25.76,25.76,0,0,0,8.78,14.07A190.52,190.52,0,0,0,330.37,271Z" style="fill:#455a64"></path><path d="M330.37,251.41c-7.86-.34-18.29,11.32-25,18.31a25.76,25.76,0,0,0,8.78,14.07A190.52,190.52,0,0,0,330.37,271Z" style="fill:#fff;opacity:0.30000000000000004"></path><path d="M373.09,317.09c-5.71,5.49-33.13,6.5-47.12-6.82,1.34-9.41.89-19.48,0-29.44s-6.72-27.39,4.4-29.42c14.85-2.9,24.55-2.67,34.48,2.92C375.44,272,374,298.4,373.09,317.09Z" style="fill:#455a64"></path><path d="M373.09,317.09c-5.71,5.49-33.13,6.5-47.12-6.82,1.34-9.41.89-19.48,0-29.44s-6.72-27.39,4.4-29.42c14.85-2.9,24.55-2.67,34.48,2.92C375.44,272,374,298.4,373.09,317.09Z" style="fill:#455a64"></path><path d="M373.09,317.09c-5.71,5.49-33.13,6.5-47.12-6.82,1.34-9.41.89-19.48,0-29.44s-6.72-27.39,4.4-29.42c14.85-2.9,24.55-2.67,34.48,2.92C375.44,272,374,298.4,373.09,317.09Z" style="fill:#fff;opacity:0.2"></path><path d="M351,328.92a1.26,1.26,0,0,1,0,.43,0,0,0,0,1,0,0,1.25,1.25,0,0,1-.16.33l0,0a2.21,2.21,0,0,1-.29.33l0,0a3.1,3.1,0,0,1-.44.31l-23.55,13.68a3.79,3.79,0,0,1-.68.3l-.26.08-.34.09-.42.07h-.1l-.57,0H324a5.12,5.12,0,0,1-.56,0h-.09a4.85,4.85,0,0,1-.55-.09l-.1,0-.47-.14-.09,0a3.11,3.11,0,0,1-.52-.25l-38.86-22.43a3.1,3.1,0,0,1-.44-.31l-.11-.12a2.05,2.05,0,0,1-.2-.23,1.09,1.09,0,0,1-.08-.15.91.91,0,0,1-.11-.22.76.76,0,0,1,0-.16,1.43,1.43,0,0,1,0-.22v1.38a1.43,1.43,0,0,0,0,.22.74.74,0,0,0,.14.38,1.09,1.09,0,0,0,.08.15,1.37,1.37,0,0,0,.2.22,1.31,1.31,0,0,0,.11.12,2.49,2.49,0,0,0,.44.32l38.86,22.43a3.11,3.11,0,0,0,.52.25l.09,0,.47.14.1,0a4.85,4.85,0,0,0,.55.09h.09a5.12,5.12,0,0,0,.56,0h.1l.57,0h.1l.42-.08.34-.08.26-.08a3.79,3.79,0,0,0,.68-.3L350,331.77a3.07,3.07,0,0,0,.44-.3,0,0,0,0,1,0,0,2.86,2.86,0,0,0,.29-.33l0,0a1.25,1.25,0,0,0,.16-.33,0,0,0,0,0,0,0,1.16,1.16,0,0,0,0-.32h0v-1.5Z" style="fill:#e0e0e0"></path><path d="M351,328.92a1.26,1.26,0,0,1,0,.43,0,0,0,0,1,0,0,1.25,1.25,0,0,1-.16.33l0,0a2.21,2.21,0,0,1-.29.33l0,0a3.1,3.1,0,0,1-.44.31l-23.55,13.68a3.79,3.79,0,0,1-.68.3l-.26.08-.34.09-.42.07h-.1l-.57,0H324a5.12,5.12,0,0,1-.56,0h-.09a4.85,4.85,0,0,1-.55-.09l-.1,0-.47-.14-.09,0a3.11,3.11,0,0,1-.52-.25l-38.86-22.43a3.1,3.1,0,0,1-.44-.31l-.11-.12a2.05,2.05,0,0,1-.2-.23,1.09,1.09,0,0,1-.08-.15.91.91,0,0,1-.11-.22.76.76,0,0,1,0-.16,1.43,1.43,0,0,1,0-.22v1.38a1.43,1.43,0,0,0,0,.22.74.74,0,0,0,.14.38,1.09,1.09,0,0,0,.08.15,1.37,1.37,0,0,0,.2.22,1.31,1.31,0,0,0,.11.12,2.49,2.49,0,0,0,.44.32l38.86,22.43a3.11,3.11,0,0,0,.52.25l.09,0,.47.14.1,0a4.85,4.85,0,0,0,.55.09h.09a5.12,5.12,0,0,0,.56,0h.1l.57,0h.1l.42-.08.34-.08.26-.08a3.79,3.79,0,0,0,.68-.3L350,331.77a3.07,3.07,0,0,0,.44-.3,0,0,0,0,1,0,0,2.86,2.86,0,0,0,.29-.33l0,0a1.25,1.25,0,0,0,.16-.33,0,0,0,0,0,0,0,1.16,1.16,0,0,0,0-.32h0v-1.5Z" style="opacity:0.2"></path><path d="M281.77,320.62a.91.91,0,0,0,.11.22,1.09,1.09,0,0,0,.08.15,2.05,2.05,0,0,0,.2.23l.11.12a3.1,3.1,0,0,0,.44.31l38.86,22.43a3.11,3.11,0,0,0,.52.25l.09,0,.47.14.1,0a4.85,4.85,0,0,0,.55.09h.09a5.12,5.12,0,0,0,.56,0h.1l.57,0h.1l.42-.07.34-.09.26-.08a3.79,3.79,0,0,0,.68-.3L350,330.4a3.1,3.1,0,0,0,.44-.31l0,0a2.21,2.21,0,0,0,.29-.33l0,0a1.25,1.25,0,0,0,.16-.33,0,0,0,0,0,0,0,1.26,1.26,0,0,0,0-.43,1.75,1.75,0,0,0-1-1.33l-38.86-22.43a5.28,5.28,0,0,0-4.83,0L282.7,318.84a1.73,1.73,0,0,0-1,1.4,1.43,1.43,0,0,0,0,.22A.76.76,0,0,0,281.77,320.62Z" style="fill:#e0e0e0"></path><path d="M285,320.24,322.76,342l.14.07.09,0,.29.09.21,0h.14l.37,0h0a2.75,2.75,0,0,0,.39,0l.25,0,.3-.08a1.19,1.19,0,0,0,.26-.11L337.38,335l-39-22.51Z" style="fill:#e0e0e0"></path><path d="M324,342.3h0Z" style="fill:#263238"></path><path d="M320.92,314.25l-7.1,4.18a.71.71,0,0,0,0,1.24l10.62,6.13a1.18,1.18,0,0,0,1.19,0l7.1-4.17a.72.72,0,0,0,0-1.24l-10.62-6.14A1.18,1.18,0,0,0,320.92,314.25Z" style="fill:#e0e0e0"></path><path d="M285,320.24,322.76,342l.14.07.09,0,.29.09.21,0h.14l.37,0h0a2.75,2.75,0,0,0,.39,0l.25,0,.3-.08a1.19,1.19,0,0,0,.26-.11L337.38,335l-39-22.51Z" style="opacity:0.4"></path><path d="M320.92,314.25l-7.1,4.18a.71.71,0,0,0,0,1.24l10.62,6.13a1.18,1.18,0,0,0,1.19,0l7.1-4.17a.72.72,0,0,0,0-1.24l-10.62-6.14A1.18,1.18,0,0,0,320.92,314.25Z" style="opacity:0.4"></path><path d="M323.76,342.69l-4-25.58a4.7,4.7,0,0,0-2.29-3.35L278.32,291a1.17,1.17,0,0,0-1-.07h0l-.93.46.31.12a1.14,1.14,0,0,0-.1.69l4,25.59a4.7,4.7,0,0,0,2.29,3.34L322,343.89a1.45,1.45,0,0,0,.26.11l0,.37.9-.44h0A1.17,1.17,0,0,0,323.76,342.69Z" style="fill:#e0e0e0"></path><path d="M323.76,342.69l-4-25.58a4.7,4.7,0,0,0-2.29-3.35L278.32,291a1.17,1.17,0,0,0-1-.07h0l-.93.46.31.12a1.14,1.14,0,0,0-.1.69l4,25.59a4.7,4.7,0,0,0,2.29,3.34L322,343.89a1.45,1.45,0,0,0,.26.11l0,.37.9-.44h0A1.17,1.17,0,0,0,323.76,342.69Z" style="opacity:0.30000000000000004"></path><path d="M316.66,314.15,277.53,291.4a1.18,1.18,0,0,0-1.76,1.21l4,25.58a4.78,4.78,0,0,0,2.3,3.35l39.13,22.75a1.18,1.18,0,0,0,1.76-1.21l-4-25.58A4.74,4.74,0,0,0,316.66,314.15Z" style="fill:#e0e0e0"></path><path d="M297.7,314.81a8.66,8.66,0,0,1,3.88,5.6c.26,2-1.06,2.74-3,1.64a8.64,8.64,0,0,1-3.88-5.59C294.48,314.46,295.81,313.73,297.7,314.81Z" style="fill:#fff"></path><path d="M382.05,298.34l-4.2-15.62L363.12,286l3.53,12.11-21.59,15.33-7.26,3.06a11.4,11.4,0,0,0-4.81,3.82l-5.92,8.2a.68.68,0,0,0-.06.35,1.13,1.13,0,0,0,2,.54c1.31-1.5,2.41-2.89,3.78-4.2l-3.49,4.71a1.41,1.41,0,0,0,.44,2,5.42,5.42,0,0,0,1.26.55,5.32,5.32,0,0,0,4.9-1.23l4.57-4.19,1.26-.44a19.14,19.14,0,0,0,9.18-6.89l25.31-9.83A9.67,9.67,0,0,0,382.05,298.34Z" style="fill:#ffa8a7"></path><path d="M382.05,298.34l-4.2-15.62L363.12,286l3.53,12.11-21.59,15.33-7.26,3.06a11.4,11.4,0,0,0-4.81,3.82l-5.92,8.2a.68.68,0,0,0-.06.35,1.13,1.13,0,0,0,2,.54c1.31-1.5,2.41-2.89,3.78-4.2l-3.49,4.71a1.41,1.41,0,0,0,.44,2,5.42,5.42,0,0,0,1.26.55,5.32,5.32,0,0,0,4.9-1.23l4.57-4.19,1.26-.44a19.14,19.14,0,0,0,9.18-6.89l25.31-9.83A9.67,9.67,0,0,0,382.05,298.34Z" style="opacity:0.30000000000000004"></path><path d="M380.16,284.76l-.45-2.07c-5.35-24.32-9.62-26.05-16.79-29.38-7,6.08-5.81,16.42-5.81,16.42l6.25,18.71.19.54A21.75,21.75,0,0,0,380.16,284.76Z" style="fill:#455a64"></path><path d="M380.16,284.76l-.45-2.07c-5.35-24.32-9.62-26.05-16.79-29.38-7,6.08-5.81,16.42-5.81,16.42l6.25,18.71.19.54A21.75,21.75,0,0,0,380.16,284.76Z" style="fill:#fff;opacity:0.30000000000000004"></path><path d="M352.94,233.85a44.24,44.24,0,0,0,2.33-13.68c0-2.48-.25-5.19-2-7-2.09-2.14-5.67-2.12-8.34-.77s-4.63,3.74-6.51,6.06a54.93,54.93,0,0,0,4.12,11.72c.94,1.82,2.08,3.67,3.9,4.6S351.32,235.11,352.94,233.85Z" style="fill:#455a64"></path><path d="M339.73,262.42c-3.59,2.27-8.25-1.94-4.08-8.08a.22.22,0,0,0,.05-.11V244l13.54-7.47.31,13.67C348.1,254.43,342.85,260.44,339.73,262.42Z" style="fill:#ffa8a7"></path><path d="M339.73,262.42c-3.59,2.27-8.25-1.94-4.08-8.08a.22.22,0,0,0,.05-.11V244l13.54-7.47.31,13.67C348.1,254.43,342.85,260.44,339.73,262.42Z" style="opacity:0.30000000000000004"></path><path d="M342.67,247.27c-2.26,1.09-5.08,2.19-7,2.9V244l13.54-7.47C349.13,243.3,346.43,245.45,342.67,247.27Z" style="opacity:0.2"></path><path d="M323.88,217.76a114.86,114.86,0,0,0,.28,20.23A10,10,0,0,0,336,246.81c2.22-.46,4.34-1,6.14-1.47a9.23,9.23,0,0,0,6.56-6.76l.5-2.08a4.25,4.25,0,0,0,5.12,1.2,5.73,5.73,0,0,0,3.25-4.41,5.3,5.3,0,0,0-.24-2.79,3.67,3.67,0,0,0-1.88-2,4.09,4.09,0,0,0-4.51,1.29,8.68,8.68,0,0,0-1.82,4.6,14.19,14.19,0,0,1-3.56-10.24,5.11,5.11,0,0,1-3.28-1.68,4.46,4.46,0,0,1-.84-3.33C336.15,221.79,328.85,221.07,323.88,217.76Z" style="fill:#ffa8a7"></path><path d="M323.88,217.76a114.86,114.86,0,0,0,.28,20.23A10,10,0,0,0,336,246.81c2.22-.46,4.34-1,6.14-1.47a9.23,9.23,0,0,0,6.56-6.76l.5-2.08a4.25,4.25,0,0,0,5.12,1.2,5.73,5.73,0,0,0,3.25-4.41,5.3,5.3,0,0,0-.24-2.79,3.67,3.67,0,0,0-1.88-2,4.09,4.09,0,0,0-4.51,1.29,8.68,8.68,0,0,0-1.82,4.6,14.19,14.19,0,0,1-3.56-10.24,5.11,5.11,0,0,1-3.28-1.68,4.46,4.46,0,0,1-.84-3.33C336.15,221.79,328.85,221.07,323.88,217.76Z" style="opacity:0.30000000000000004"></path><polygon points="333.33 229.08 328.63 234.78 332.95 236.3 333.33 229.08" style="fill:#f28f8f"></polygon><polygon points="333.33 229.08 328.63 234.78 332.95 236.3 333.33 229.08" style="opacity:0.30000000000000004"></polygon><path d="M336.89,239.13l-3.63,1.11a2.24,2.24,0,0,0,2.45,1.13A2,2,0,0,0,336.89,239.13Z" style="fill:#f28f8f"></path><path d="M336.89,239.13l-3.63,1.11a2.24,2.24,0,0,0,2.45,1.13A2,2,0,0,0,336.89,239.13Z" style="opacity:0.4"></path><path d="M334.52,241.3a2.11,2.11,0,0,0,1.19.07,1.83,1.83,0,0,0,1.18-1.64,2.22,2.22,0,0,0-1.41.25A2.18,2.18,0,0,0,334.52,241.3Z" style="fill:#f28f8f"></path><path d="M339.73,230.33a1.29,1.29,0,1,1-1.22-1.36A1.29,1.29,0,0,1,339.73,230.33Z" style="fill:#263238"></path><path d="M328.93,229.33a1.29,1.29,0,1,1-1.22-1.35A1.29,1.29,0,0,1,328.93,229.33Z" style="fill:#263238"></path><path d="M328,224.14,325,226a1.85,1.85,0,0,1,.67-2A2.16,2.16,0,0,1,328,224.14Z" style="fill:#263238"></path><path d="M339,224.57l2.76,2.13a1.86,1.86,0,0,0-.45-2A2.23,2.23,0,0,0,339,224.57Z" style="fill:#263238"></path><path d="M342.06,218.68a4.48,4.48,0,0,1-1.24,2.41,3.52,3.52,0,0,1-2.54,1,2.8,2.8,0,0,1-2.34-1.35,3.31,3.31,0,0,1-3.05,1.35,3.67,3.67,0,0,1-2.94-1.92,3.48,3.48,0,0,1-3.62,1.42,3.33,3.33,0,0,1-2.47-2.89,4.33,4.33,0,0,1-3.23-.46,3.19,3.19,0,0,1-1.54-2.8,2.56,2.56,0,0,1,2-2.35,3.36,3.36,0,0,1,.84-4A3.29,3.29,0,0,1,326,209a2.59,2.59,0,0,1,1.53-2.29,2.55,2.55,0,0,1,2.7.52,4.07,4.07,0,0,1,7.55-1.63,3.52,3.52,0,0,1,3.28-1.75,3.29,3.29,0,0,1,2.84,2.17,4.08,4.08,0,0,1,7.48,2,2.52,2.52,0,0,1,3.47.2,3.15,3.15,0,0,1,.29,3.61,4.16,4.16,0,0,1-3.18,1.93,3.28,3.28,0,0,1-5.64,3.23,2.43,2.43,0,0,1-1.55,2.58A2.27,2.27,0,0,1,342.06,218.68Z" style="fill:#263238"></path></g></svg>