<?xml version="1.0" encoding="utf-8"?>
<!-- Generator: Adobe Illustrator 27.5.0, SVG Export Plug-In . SVG Version: 6.00 Build 0)  -->
<svg version="1.1" xmlns="http://www.w3.org/2000/svg" xmlns:xlink="http://www.w3.org/1999/xlink" x="0px" y="0px" viewBox="0 0 3710 3710" style="enable-background:new 0 0 3710 3710;" xml:space="preserve">
  <g id="Background">
    <g>
      <g>
        <rect style="fill:transparent;" width="3710" height="3710" />
      </g>
    </g>
  </g>
  <g id="Illustration">
    <g>
      <path style="fill:transparent;" d="M1822.328,418.216C1110.083,396.588,493.129,928.056,399.917,1625.41
			C298.005,2387.871,858.92,3073.902,1549.104,3183.78c858.472,136.671,1691.141-653.982,1616.376-1511.722
			C3109.152,1025.826,2546.339,440.202,1822.328,418.216z" />
      <g>
        <g>
          <path style="fill:#97A6B7;" d="M2127.274,3146.819c-37.919-12.577-66.259-44.758-74.251-84.312l-55.189-273.148l-472.104,16.765
					l-58.102,284.559c-8.137,39.852,24.437,79.834,61.951,94.512l197.518,77.282c36.737,14.374,76.226,20.099,115.475,16.741
					l417.427-35.71c12.203-1.044,21.991-10.636,23.411-22.942c1.42-12.306,9.97-26.123-1.666-29.983L2127.274,3146.819z" />
          <linearGradient id="SVGID_1_" gradientUnits="userSpaceOnUse" x1="1879.3405" y1="3643.0315" x2="1886.1375" y2="3065.2651">
            <stop offset="0.494" style="stop-color:transparent" />
            <stop offset="1" style="stop-color:transparent" />
          </linearGradient>
          <path style="fill:url(#SVGID_1_);" d="M2131.946,3130.206c-37.88-12.419-66.193-44.196-74.177-83.253l-55.134-269.714
					l-460.596,16.572l-58.044,280.982c-8.129,39.351,13.379,78.813,50.856,93.306l197.319,76.31
					c36.7,14.193,76.15,19.846,115.359,16.531l417.006-35.261c12.19-1.031,21.969-10.502,23.387-22.654
					c1.419-12.151-5.915-23.621-17.54-27.432L2131.946,3130.206z" />
        </g>
        <g>
          <g>
            <path style="fill:#97A6B7;" d="M561.05,2970.906c-51.196,3.052-93.08-30.161-93.08-74.053V1314.884
						c0-43.892,41.884-77.786,93.08-75.568l2377.896,164.62c37.587,1.629,57.755-28.714,57.755,8.615v1345.453
						c0,37.33-30.435,69.515-68.022,71.756L561.05,2970.906z" />
            <path style="fill:#FFFFFF;" d="M582.328,2970.906c-51.196,3.052-93.08-30.161-93.08-74.053V1314.884
						c0-43.892,41.884-77.786,93.08-75.568l2367.629,102.587c37.587,1.629,68.022,33.318,68.022,70.648v1345.453
						c0,37.33-30.435,69.515-68.022,71.756L582.328,2970.906z" />
            <path style="opacity:0.3;fill:#D8DEE8;" d="M2949.958,1373.567l-2367.629-97.4c-27.37-1.126-49.623,16.959-49.623,40.396
						v1230.355v347.548c0,23.438,22.253,41.159,49.623,39.588l2367.629-135.959c20.146-1.157,36.437-18.328,36.437-38.357v-307.566
						V1411.331C2986.395,1391.303,2970.104,1374.396,2949.958,1373.567z" />
          </g>
          <g>

            <linearGradient id="SVGID_00000041996648658175160390000003048029612773935503_" gradientUnits="userSpaceOnUse" x1="1593.6443" y1="1778.476" x2="2712.6697" y2="3830.9053">
              <stop offset="0" style="stop-color:#444B8C" />
              <stop offset="0.9964" style="stop-color:#26264F" />
            </linearGradient>
            <path style="fill:url(#SVGID_00000041996648658175160390000003048029612773935503_);" d="M2932.364,2684.249L607.989,2798.986
						c-24.397,1.204-44.225-14.923-44.225-36.024V1337.286c0-21.101,19.828-37.471,44.225-36.566l2324.375,86.278
						c18.242,0.677,32.997,15.966,32.997,34.149v1228.547C2965.361,2667.879,2950.606,2683.348,2932.364,2684.249z" />
            <polygon style="opacity:0.6;fill:#FFFFFF;" points="1187.837,1451.284 657.003,1435.671 657.003,1385.059 1187.837,1402.228 
											" />
            <polygon style="opacity:0.36;fill:#FFFFFF;" points="1437.824,1444.635 1315.197,1440.925 1315.197,1406.346 
						1437.824,1410.313 					" />
            <polygon style="opacity:0.36;fill:#FFFFFF;" points="1437.824,1492.324 1315.197,1488.967 1315.197,1454.389 
						1437.824,1458.001 					" />

            <linearGradient id="SVGID_00000122699146038475261130000009991795236181267385_" gradientUnits="userSpaceOnUse" x1="1760.427" y1="1177.4042" x2="1961.2992" y2="2401.7661">
              <stop offset="0.0036" style="stop-color:#E38DDD" />
              <stop offset="1" style="stop-color:#9571F6" />
            </linearGradient>
            <polygon style="fill:url(#SVGID_00000122699146038475261130000009991795236181267385_);" points="2048.929,1509.05 
						1573.188,1496.029 1573.188,1461.988 2048.929,1475.999 					" />

            <linearGradient id="SVGID_00000000197494880635619690000002518178855120242867_" gradientUnits="userSpaceOnUse" x1="1655.9308" y1="1534.1814" x2="2126.9402" y2="1534.1814">
              <stop offset="0" style="stop-color:#FF9085" />
              <stop offset="1" style="stop-color:#FB6FBB" />
            </linearGradient>
            <polygon style="opacity:0.5;fill:url(#SVGID_00000000197494880635619690000002518178855120242867_);" points="
						2126.94,1556.881 1655.931,1545.351 1655.931,1511.482 2126.94,1523.992 					" />

            <linearGradient id="SVGID_00000109021118632182915370000016610294784573056395_" gradientUnits="userSpaceOnUse" x1="1655.9308" y1="1580.5582" x2="2126.9402" y2="1580.5582">
              <stop offset="0" style="stop-color:#FF9085" />
              <stop offset="1" style="stop-color:#FB6FBB" />
            </linearGradient>
            <polygon style="opacity:0.5;fill:url(#SVGID_00000109021118632182915370000016610294784573056395_);" points="
						2126.94,1602.577 1655.931,1592.409 1655.931,1558.54 2126.94,1569.688 					" />
            <polygon style="opacity:0.6;fill:#FFFFFF;" points="2126.94,1648.273 1655.931,1639.466 1655.931,1605.597 2126.94,1615.384 
											" />
            <polygon style="opacity:0.36;fill:#FFFFFF;" points="1437.824,1540.012 1315.197,1537.01 1315.197,1502.432 1437.824,1505.689 
											" />
            <polygon style="opacity:0.36;fill:#FFFFFF;" points="1437.824,1587.7 1315.197,1585.053 1315.197,1550.475 1437.824,1553.377 
											" />
            <polygon style="opacity:0.36;fill:#FFFFFF;" points="1437.824,1635.388 1315.197,1633.096 1315.197,1598.517 
						1437.824,1601.066 					" />
            <polygon style="opacity:0.36;fill:#FFFFFF;" points="1437.824,1683.077 1315.197,1681.138 1315.197,1646.56 1437.824,1648.754 
											" />
            <polygon style="opacity:0.6;fill:#FFFFFF;" points="1766.425,1688.27 1464.584,1683.5 1464.584,1649.232 1766.425,1654.631 
											" />
            <polygon style="opacity:0.36;fill:#FFFFFF;" points="1437.824,1730.765 1315.197,1729.181 1315.197,1694.603 
						1437.824,1696.442 					" />
            <polygon style="opacity:0.36;fill:#FFFFFF;" points="1437.824,1778.453 1315.197,1777.224 1315.197,1742.646 1437.824,1744.13 
											" />
            <polygon style="opacity:0.36;fill:#FFFFFF;" points="1437.824,1826.141 1315.197,1825.267 1315.197,1790.688 
						1437.824,1791.818 					" />

            <linearGradient id="SVGID_00000131355115318575792070000004346561426594115222_" gradientUnits="userSpaceOnUse" x1="1573.1881" y1="1717.6533" x2="1907.8433" y2="1717.6533">
              <stop offset="0" style="stop-color:#FF9085" />
              <stop offset="1" style="stop-color:#FB6FBB" />
            </linearGradient>
            <polygon style="opacity:0.5;fill:url(#SVGID_00000131355115318575792070000004346561426594115222_);" points="
						1907.843,1736.835 1573.188,1732.513 1573.188,1698.472 1907.843,1703.49 					" />
            <polygon style="opacity:0.6;fill:#FFFFFF;" points="2081.703,1784.907 1655.931,1780.639 1655.931,1746.77 2081.703,1751.924 
											" />

            <linearGradient id="SVGID_00000027565611718390453500000009581955857652465047_" gradientUnits="userSpaceOnUse" x1="1764.7057" y1="1178.1425" x2="1948.5009" y2="2298.4163">
              <stop offset="0.0036" style="stop-color:#E38DDD" />
              <stop offset="1" style="stop-color:#9571F6" />
            </linearGradient>
            <polygon style="fill:url(#SVGID_00000027565611718390453500000009581955857652465047_);" points="2081.703,1830.734 
						1655.931,1827.697 1655.931,1793.828 2081.703,1797.751 					" />
            <polygon style="opacity:0.36;fill:#FFFFFF;" points="1437.824,1873.829 1315.197,1873.309 1315.197,1838.731 
						1437.824,1839.507 					" />
            <polygon style="opacity:0.36;fill:#FFFFFF;" points="1437.824,1921.518 1315.197,1921.352 1315.197,1886.774 
						1437.824,1887.195 					" />
            <polygon style="opacity:0.36;fill:#FFFFFF;" points="1437.824,1969.206 1315.197,1969.395 1315.197,1934.817 
						1437.824,1934.883 					" />
            <polygon style="opacity:0.36;fill:#FFFFFF;" points="1437.824,2016.894 1315.197,2017.437 1315.197,1982.859 
						1437.824,1982.571 					" />
            <polygon style="opacity:0.36;fill:#FFFFFF;" points="1437.824,2064.582 1315.197,2065.48 1315.197,2030.902 1437.824,2030.259 
											" />
            <polygon style="opacity:0.36;fill:#FFFFFF;" points="1437.824,2112.271 1315.197,2113.523 1315.197,2078.945 
						1437.824,2077.948 					" />
            <polygon style="opacity:0.36;fill:#FFFFFF;" points="1437.824,2159.959 1315.197,2161.566 1315.197,2126.988 
						1437.824,2125.636 					" />
            <polygon style="opacity:0.36;fill:#FFFFFF;" points="1437.824,2207.647 1315.197,2209.608 1315.197,2175.031 
						1437.824,2173.324 					" />
            <polygon style="opacity:0.36;fill:#FFFFFF;" points="1437.824,2255.335 1315.197,2257.651 1315.197,2223.073 
						1437.824,2221.012 					" />
            <polygon style="opacity:0.36;fill:#FFFFFF;" points="1437.824,2303.023 1315.197,2305.694 1315.197,2271.116 
						1437.824,2268.701 					" />
            <polygon style="opacity:0.36;fill:#FFFFFF;" points="1437.824,2350.712 1315.197,2353.737 1315.197,2319.159 
						1437.824,2316.389 					" />
            <polygon style="opacity:0.36;fill:#FFFFFF;" points="1437.824,2398.4 1315.197,2401.779 1315.197,2367.201 1437.824,2364.077 
											" />
            <polygon style="opacity:0.36;fill:#FFFFFF;" points="1437.824,2446.088 1315.197,2449.822 1315.197,2415.244 
						1437.824,2411.765 					" />
            <polygon style="opacity:0.36;fill:#FFFFFF;" points="1437.824,2493.776 1315.197,2497.865 1315.197,2463.287 
						1437.824,2459.453 					" />
            <polygon style="opacity:0.36;fill:#FFFFFF;" points="1437.824,2541.464 1315.197,2545.908 1315.197,2511.33 1437.824,2507.142 
											" />
            <polygon style="opacity:0.36;fill:#FFFFFF;" points="1437.824,2589.153 1315.197,2593.95 1315.197,2559.372 1437.824,2554.83 
											" />
            <polygon style="opacity:0.36;fill:#FFFFFF;" points="1437.824,2636.841 1315.197,2641.993 1315.197,2607.415 
						1437.824,2602.518 					" />
            <polygon style="opacity:0.36;fill:#FFFFFF;" points="1437.824,2684.529 1315.197,2690.036 1315.197,2655.458 
						1437.824,2650.206 					" />

            <linearGradient id="SVGID_00000022547099276168531340000018044478521667554982_" gradientUnits="userSpaceOnUse" x1="1463.7509" y1="1433.3458" x2="1798.1877" y2="1433.3458">
              <stop offset="0" style="stop-color:#FF9085" />
              <stop offset="1" style="stop-color:#FB6FBB" />
            </linearGradient>
            <polygon style="opacity:0.5;fill:url(#SVGID_00000022547099276168531340000018044478521667554982_);" points="
						1798.188,1455.541 1463.751,1445.42 1463.751,1411.151 1798.188,1421.968 					" />
            <polygon style="opacity:0.6;fill:#FFFFFF;" points="2048.929,2427.479 1573.188,2441.966 1573.188,2407.925 2048.929,2394.428 
											" />

            <linearGradient id="SVGID_00000150818847827080587710000013729036453186074536_" gradientUnits="userSpaceOnUse" x1="1655.9308" y1="2462.2073" x2="2126.9402" y2="2462.2073">
              <stop offset="0" style="stop-color:#FF9085" />
              <stop offset="1" style="stop-color:#FB6FBB" />
            </linearGradient>
            <polygon style="opacity:0.5;fill:url(#SVGID_00000150818847827080587710000013729036453186074536_);" points="
						2126.94,2470.799 1655.931,2486.504 1655.931,2452.635 2126.94,2437.91 					" />

            <linearGradient id="SVGID_00000063600567107774598580000004240094174946728373_" gradientUnits="userSpaceOnUse" x1="1655.9308" y1="2508.584" x2="2126.9402" y2="2508.584">
              <stop offset="0" style="stop-color:#FF9085" />
              <stop offset="1" style="stop-color:#FB6FBB" />
            </linearGradient>
            <polygon style="opacity:0.5;fill:url(#SVGID_00000063600567107774598580000004240094174946728373_);" points="
						2126.94,2516.495 1655.931,2533.562 1655.931,2499.692 2126.94,2483.606 					" />

            <linearGradient id="SVGID_00000044861820981065793390000001927790772098951554_" gradientUnits="userSpaceOnUse" x1="1871.0964" y1="2546.9922" x2="2329.9111" y2="2546.9922">
              <stop offset="0" style="stop-color:#FF9085" />
              <stop offset="1" style="stop-color:#FB6FBB" />
            </linearGradient>
            <polygon style="opacity:0.5;fill:url(#SVGID_00000044861820981065793390000001927790772098951554_);" points="
						2329.911,2554.25 1871.096,2572.201 1871.096,2538.78 2329.911,2521.783 					" />

            <linearGradient id="SVGID_00000171721872635318359440000015420225234202625717_" gradientUnits="userSpaceOnUse" x1="1907.5281" y1="1416.5332" x2="2051.0906" y2="2291.5793">
              <stop offset="0.0036" style="stop-color:#E38DDD" />
              <stop offset="1" style="stop-color:#9571F6" />
            </linearGradient>
            <polygon style="fill:url(#SVGID_00000171721872635318359440000015420225234202625717_);" points="2329.911,2599.359 
						1871.096,2618.636 1871.096,2585.215 2329.911,2566.892 					" />
            <polygon style="opacity:0.6;fill:#FFFFFF;" points="2329.911,2644.468 1871.096,2665.072 1871.096,2631.651 2329.911,2612.001 
											" />

            <linearGradient id="SVGID_00000151529740559148261680000001140271966291324847_" gradientUnits="userSpaceOnUse" x1="1463.7509" y1="2376.2903" x2="1798.1877" y2="2376.2903">
              <stop offset="0" style="stop-color:#FF9085" />
              <stop offset="1" style="stop-color:#FB6FBB" />
            </linearGradient>
            <polygon style="opacity:0.5;fill:url(#SVGID_00000151529740559148261680000001140271966291324847_);" points="
						1798.188,2388.468 1463.751,2397.685 1463.751,2363.416 1798.188,2354.895 					" />

            <linearGradient id="SVGID_00000150786453821724398970000011447545850729716643_" gradientUnits="userSpaceOnUse" x1="1573.1881" y1="1905.0011" x2="2048.9287" y2="1905.0011">
              <stop offset="0" style="stop-color:#FF9085" />
              <stop offset="1" style="stop-color:#FB6FBB" />
            </linearGradient>
            <polygon style="opacity:0.5;fill:url(#SVGID_00000150786453821724398970000011447545850729716643_);" points="
						2048.929,1922.343 1573.188,1921.7 1573.188,1887.659 2048.929,1889.292 					" />
            <polygon style="opacity:0.6;fill:#FFFFFF;" points="2126.94,1968.144 1655.931,1968.87 1655.931,1935.001 2126.94,1935.255 
											" />

            <linearGradient id="SVGID_00000029022557423969292960000018233168484529310603_" gradientUnits="userSpaceOnUse" x1="1655.9308" y1="1998.4392" x2="2126.9402" y2="1998.4392">
              <stop offset="0" style="stop-color:#FF9085" />
              <stop offset="1" style="stop-color:#FB6FBB" />
            </linearGradient>
            <polygon style="opacity:0.5;fill:url(#SVGID_00000029022557423969292960000018233168484529310603_);" points="2126.94,2013.84 
						1655.931,2015.927 1655.931,1982.058 2126.94,1980.951 					" />

            <linearGradient id="SVGID_00000080923019244493882480000004732684572960381866_" gradientUnits="userSpaceOnUse" x1="1655.9308" y1="2044.8162" x2="2126.9402" y2="2044.8162">
              <stop offset="0" style="stop-color:#FF9085" />
              <stop offset="1" style="stop-color:#FB6FBB" />
            </linearGradient>
            <polygon style="opacity:0.5;fill:url(#SVGID_00000080923019244493882480000004732684572960381866_);" points="
						2126.94,2059.536 1655.931,2062.985 1655.931,2029.116 2126.94,2026.647 					" />

            <linearGradient id="SVGID_00000051363481929697920060000012236515863679151243_" gradientUnits="userSpaceOnUse" x1="1464.5842" y1="2093.6362" x2="1766.4246" y2="2093.6362">
              <stop offset="0" style="stop-color:#FF9085" />
              <stop offset="1" style="stop-color:#FB6FBB" />
            </linearGradient>
            <polygon style="opacity:0.5;fill:url(#SVGID_00000051363481929697920060000012236515863679151243_);" points="
						1766.425,2108.914 1464.584,2111.997 1464.584,2077.73 1766.425,2075.275 					" />
            <polygon style="opacity:0.6;fill:#FFFFFF;" points="1907.843,2153.799 1573.188,2158.185 1573.188,2124.144 1907.843,2120.454 
											" />

            <linearGradient id="SVGID_00000165234320557467708710000004108526654339737254_" gradientUnits="userSpaceOnUse" x1="1715.915" y1="1252.29" x2="1882.7567" y2="2269.2285">
              <stop offset="0.0036" style="stop-color:#E38DDD" />
              <stop offset="1" style="stop-color:#9571F6" />
            </linearGradient>
            <polygon style="fill:url(#SVGID_00000165234320557467708710000004108526654339737254_);" points="2081.703,2197.347 
						1655.931,2204.158 1655.931,2170.289 2081.703,2164.364 					" />

            <linearGradient id="SVGID_00000077304082244076958350000000309625999365332911_" gradientUnits="userSpaceOnUse" x1="1655.9308" y1="2230.7034" x2="2081.7029" y2="2230.7034">
              <stop offset="0" style="stop-color:#FF9085" />
              <stop offset="1" style="stop-color:#FB6FBB" />
            </linearGradient>
            <polygon style="opacity:0.5;fill:url(#SVGID_00000077304082244076958350000000309625999365332911_);" points="
						2081.703,2243.174 1655.931,2251.216 1655.931,2217.347 2081.703,2210.191 					" />

            <linearGradient id="SVGID_00000034048332798519174780000007204861252547591326_" gradientUnits="userSpaceOnUse" x1="1755.4427" y1="2275.1323" x2="2176.0916" y2="2275.1323">
              <stop offset="0" style="stop-color:#FF9085" />
              <stop offset="1" style="stop-color:#FB6FBB" />
            </linearGradient>
            <polygon style="opacity:0.5;fill:url(#SVGID_00000034048332798519174780000007204861252547591326_);" points="
						2176.092,2286.945 1755.443,2296.106 1755.443,2262.444 2176.092,2254.158 					" />

            <linearGradient id="SVGID_00000027595581021981197130000008673610799949955213_" gradientUnits="userSpaceOnUse" x1="1755.4427" y1="2321.2942" x2="2176.0916" y2="2321.2942">
              <stop offset="0" style="stop-color:#FF9085" />
              <stop offset="1" style="stop-color:#FB6FBB" />
            </linearGradient>
            <polygon style="opacity:0.5;fill:url(#SVGID_00000027595581021981197130000008673610799949955213_);" points="
						2176.092,2332.499 1755.443,2342.876 1755.443,2309.214 2176.092,2299.712 					" />

            <linearGradient id="SVGID_00000018950751227375896290000009509988749978350493_" gradientUnits="userSpaceOnUse" x1="1524.4347" y1="1208.5099" x2="1709.3271" y2="2335.4717">
              <stop offset="0.0036" style="stop-color:#E38DDD" />
              <stop offset="1" style="stop-color:#9571F6" />
            </linearGradient>
            <polygon style="fill:url(#SVGID_00000018950751227375896290000009509988749978350493_);" points="1798.188,1875.358 
						1463.751,1873.939 1463.751,1839.671 1798.188,1841.785 					" />
            <polygon style="fill:#FFFFFF;" points="1187.837,1527.934 883.999,1520.389 883.999,1470.442 1187.837,1478.878 					" />
            <polygon style="opacity:0.6;fill:#FFFFFF;" points="805.412,1518.437 862.638,1519.858 862.638,1469.849 805.412,1468.26 					
						" />
            <polygon style="opacity:0.6;fill:#FFFFFF;" points="1187.837,1598.453 883.999,1592.187 883.999,1542.24 1187.837,1549.397 
											" />
            <polygon style="opacity:0.6;fill:#FFFFFF;" points="805.412,1590.566 862.638,1591.746 862.638,1541.737 805.412,1540.389 
											" />
            <polygon style="opacity:0.6;fill:#FFFFFF;" points="1187.837,1668.972 883.999,1663.985 883.999,1614.038 1187.837,1619.915 
											" />
            <polygon style="opacity:0.6;fill:#FFFFFF;" points="805.412,1662.695 862.638,1663.635 862.638,1613.625 805.412,1612.519 
											" />
            <polygon style="fill:#FFFFFF;" points="1187.837,2169.531 657.003,2176.687 657.003,2126.075 1187.837,2120.474 					" />
            <polygon style="opacity:0.6;fill:#FFFFFF;" points="1187.837,2246.181 883.999,2251.668 883.999,2201.722 1187.837,2197.125 
											" />
            <polygon style="opacity:0.6;fill:#FFFFFF;" points="805.412,2253.087 862.638,2252.054 862.638,2202.045 805.412,2202.911 
											" />
            <polygon style="opacity:0.6;fill:#FFFFFF;" points="1187.837,2316.7 883.999,2323.466 883.999,2273.52 1187.837,2267.644 					
						" />
            <polygon style="opacity:0.6;fill:#FFFFFF;" points="805.412,2325.217 862.638,2323.942 862.638,2273.933 805.412,2275.04 					
						" />
            <polygon style="opacity:0.6;fill:#FFFFFF;" points="1187.837,2387.219 883.999,2395.264 883.999,2345.318 1187.837,2338.162 
											" />
            <polygon style="opacity:0.6;fill:#FFFFFF;" points="805.412,2397.346 862.638,2395.83 862.638,2345.821 805.412,2347.169 					
						" />
            <polygon style="fill:#FFFFFF;" points="1187.837,1739.968 657.003,1733.507 657.003,1682.895 1187.837,1690.912 					" />
            <polygon style="opacity:0.6;fill:#FFFFFF;" points="1187.837,1816.619 883.999,1814.311 883.999,1764.365 1187.837,1767.562 
											" />
            <polygon style="opacity:0.6;fill:#FFFFFF;" points="805.412,1813.714 862.638,1814.149 862.638,1764.14 805.412,1763.537 					
						" />
            <polygon style="opacity:0.6;fill:#FFFFFF;" points="1187.837,1887.137 883.999,1886.11 883.999,1836.163 1187.837,1838.081 
											" />
            <polygon style="opacity:0.6;fill:#FFFFFF;" points="805.412,1885.844 862.638,1886.037 862.638,1836.028 805.412,1835.667 
											" />
            <polygon style="opacity:0.6;fill:#FFFFFF;" points="1187.837,2029.091 883.999,2030.638 883.999,1980.692 1187.837,1980.034 
											" />
            <polygon style="opacity:0.6;fill:#FFFFFF;" points="805.412,2031.039 862.638,2030.747 862.638,1980.738 805.412,1980.862 
											" />
            <polygon style="opacity:0.6;fill:#FFFFFF;" points="1187.837,2099.609 883.999,2102.437 883.999,2052.49 1187.837,2050.553 
											" />
            <polygon style="opacity:0.6;fill:#FFFFFF;" points="805.412,2103.168 862.638,2102.635 862.638,2052.626 805.412,2052.991 
											" />
            <polygon style="opacity:0.6;fill:#FFFFFF;" points="1187.837,1957.656 883.999,1957.908 883.999,1907.961 1187.837,1908.6 
											" />
            <polygon style="opacity:0.6;fill:#FFFFFF;" points="805.412,1957.973 862.638,1957.925 862.638,1907.916 805.412,1907.796 
											" />
            <polygon style="fill:#FFFFFF;" points="1187.837,2457.713 657.003,2474.005 657.003,2423.394 1187.837,2408.657 					" />
            <polygon style="opacity:0.6;fill:#FFFFFF;" points="1187.837,2534.364 883.999,2545.08 883.999,2495.133 1187.837,2485.307 
											" />
            <polygon style="opacity:0.6;fill:#FFFFFF;" points="805.412,2547.852 862.638,2545.833 862.638,2495.824 805.412,2497.675 
											" />
            <polygon style="opacity:0.6;fill:#FFFFFF;" points="1187.837,2604.883 883.999,2616.878 883.999,2566.932 1187.837,2555.826 
											" />
            <polygon style="opacity:0.6;fill:#FFFFFF;" points="805.412,2619.981 862.638,2617.721 862.638,2567.712 805.412,2569.804 
											" />
            <polygon style="opacity:0.6;fill:#FFFFFF;" points="1187.837,2675.401 883.999,2688.677 883.999,2638.73 1187.837,2626.345 
											" />
            <polygon style="opacity:0.6;fill:#FFFFFF;" points="805.412,2692.11 862.638,2689.61 862.638,2639.6 805.412,2641.933 					" />
            <polygon style="opacity:0.6;fill:#FFFFFF;" points="1252.344,2672.827 1240.653,2673.338 1240.653,1403.936 1252.344,1404.314 
											" />
          </g>
          <path style="opacity:0.6;fill:#FFFFFF;" d="M2702.786,2731.84c-515.399,10.776-631.303,84.367-777.754-3.81
					c-201.238-121.164-109.591-336.696-305.658-449.753c-246.497-142.136-530.697,118.178-659.348-8.733
					c-128.118-126.385,113.904-423.84-26.199-755.411c-56.224-133.061-151.96-219.485-218.093-269.035l-133.407-5.78
					c-51.197-2.218-93.08,31.677-93.08,75.568v1581.969c0,43.892,41.883,77.105,93.08,74.053l2367.629-141.146
					c37.587-2.241,68.022-34.426,68.022-71.757v-23.92C2947.018,2731.567,2837.102,2729.031,2702.786,2731.84z" />
        </g>
      </g>
      <g>
        <g>

          <linearGradient id="SVGID_00000155825186914322476140000005838584894568698535_" gradientUnits="userSpaceOnUse" x1="210.5755" y1="579.8454" x2="582.2934" y2="1489.0063" gradientTransform="matrix(-0.9881 -0.1536 -0.1536 0.9881 3548.4795 206.009)">
            <stop offset="0" style="stop-color:#AA80F9" />
            <stop offset="0.9964" style="stop-color:#6165D7" />
          </linearGradient>
          <path style="fill:url(#SVGID_00000155825186914322476140000005838584894568698535_);" d="M2638.261,1654.576
					c126.712,114.93,288.073,145.278,369.334,72.235l0.055,0.04l0.307-0.36c3.319-2.995,6.559-6.097,9.588-9.45
					c3.823-4.234,7.365-8.667,10.584-13.245l98.265-110.65l20.41-23.003l-147.097-129.384c-21.381-33.26-48.609-65.612-81.136-95.15
					c-36.595-33.18-76.082-59.286-115.657-77.945l-147.24-129.469l-115.076,143.585c-0.419,0.468-0.892,0.896-1.311,1.364
					c-4.341,4.748-8.258,9.782-11.802,15.031c-5.65,8.307-10.349,17.169-14.158,26.545
					C2476.502,1415.422,2525.238,1552.024,2638.261,1654.576z" />

          <linearGradient id="SVGID_00000057843187106254083040000010155770109023002297_" gradientUnits="userSpaceOnUse" x1="518.572" y1="1649.3173" x2="532.8345" y2="1253.028" gradientTransform="matrix(-0.9881 -0.1536 -0.1536 0.9881 3548.4795 206.009)">
            <stop offset="0" style="stop-color:#AA80F9" />
            <stop offset="0.9964" style="stop-color:#6165D7" />
          </linearGradient>
          <path style="opacity:0.3;fill:url(#SVGID_00000057843187106254083040000010155770109023002297_);" d="M2637.352,1655.536
					c34.238,32.547,73.05,60.046,115.151,78.662c43.204,19.103,104.231,36.498,152.031,32.496
					c79.48-6.654,116.981-57.044,165.555-111.129c18.719-20.843,38.825-40.54,56.412-62.377
					c-46.149-5.875-106.048,9.22-149.333,24.448c-37.397,13.156-72.994,34.573-112.635,40.459
					c-87.404,12.979-180.767-41.242-224.473-115.596c-26.706-45.433-16.075-104.379-50.377-146.457
					c-22.173-27.199-56.462-42.085-76.355-71.321c3.564,5.238-8.844,42.408-9.733,50.314c-2.044,18.183-1.919,36.488,0.626,54.617
					c5.943,42.339,24.019,82.293,46.329,118.408C2574.201,1586.345,2603.547,1623.401,2637.352,1655.536z" />
        </g>

        <linearGradient id="SVGID_00000000180413102947304030000012919080837226655645_" gradientUnits="userSpaceOnUse" x1="-1903.6345" y1="-989.2481" x2="-1968.4773" y2="-505.503" gradientTransform="matrix(-0.7783 -0.6279 -0.6279 0.7783 982.394 612.9878)">
          <stop offset="0" style="stop-color:#AA80F9" />
          <stop offset="0.9964" style="stop-color:#6165D7" />
        </linearGradient>
        <polygon style="fill:url(#SVGID_00000000180413102947304030000012919080837226655645_);" points="2541.991,1038.553 
				3052.782,1152.84 3272.521,1627.902 3286.618,1639.274 3281.706,1645.362 3281.706,1645.362 2750.636,1526.655 
				2522.288,1032.708 2522.288,1032.708 2527.199,1026.62 			" />

        <linearGradient id="SVGID_00000080902634146505590350000012105487738606587527_" gradientUnits="userSpaceOnUse" x1="-1912.8282" y1="-1126.2062" x2="-1997.4948" y2="-50.3199" gradientTransform="matrix(-0.7783 -0.6279 -0.6279 0.7783 982.394 612.9878)">
          <stop offset="0" style="stop-color:#AA80F9" />
          <stop offset="0.9964" style="stop-color:#6165D7" />
        </linearGradient>
        <polygon style="fill:url(#SVGID_00000080902634146505590350000012105487738606587527_);" points="3059.541,1144.463 
				3288.089,1638.572 2756.819,1519.703 2528.27,1025.594 			" />
        <g>

          <linearGradient id="SVGID_00000000909476621852340800000004313341815153565365_" gradientUnits="userSpaceOnUse" x1="274.6786" y1="1737.5963" x2="336.8322" y2="1156.5952" gradientTransform="matrix(-0.9881 -0.1536 -0.1536 0.9881 3548.4795 206.009)">
            <stop offset="0" style="stop-color:#FFC444" />
            <stop offset="0.9964" style="stop-color:#F36F56" />
          </linearGradient>
          <path style="fill:url(#SVGID_00000000909476621852340800000004313341815153565365_);" d="M3081.179,1884.078
					c4.011,0.624,7.865-1.974,8.747-5.993l57.672-262.731c0.463-2.11,0.025-4.317-1.211-6.09l-219.263-314.428
					c-2.448-3.512-7.271-4.367-10.78-1.922c-3.509,2.446-4.369,7.273-1.924,10.781l217.325,311.648l-56.946,259.421
					c-0.918,4.177,1.727,8.307,5.904,9.224C3080.863,1884.025,3081.021,1884.054,3081.179,1884.078z" />
        </g>

        <linearGradient id="SVGID_00000125595032575672052130000001547703752512255674_" gradientUnits="userSpaceOnUse" x1="6977.791" y1="2683.1897" x2="7015.0308" y2="2335.0811" gradientTransform="matrix(0.9962 0.0876 -0.0876 0.9962 -3681.9045 -1133.3196)">
          <stop offset="0" style="stop-color:#FFC444" />
          <stop offset="0.9964" style="stop-color:#F36F56" />
        </linearGradient>
        <path style="fill:url(#SVGID_00000125595032575672052130000001547703752512255674_);" d="M3098.893,1871.663l-4.64-10.258
				c-1.775-3.892-5.514-6.503-9.781-6.808c-4.267-0.306-8.35,1.745-10.662,5.344l-5.52,9.766c-1.506,2.345-1.709,5.083-1.953,7.86
				l-7.532,85.632c-0.162,1.839,6.872,3.959,16.678,4.822c9.807,0.862,17.102,0.002,17.264-1.837l7.553-85.874
				C3100.56,1877.345,3100.128,1874.37,3098.893,1871.663z" />
      </g>
      <g>

        <linearGradient id="SVGID_00000137832969678081074190000012208785882334004366_" gradientUnits="userSpaceOnUse" x1="2693.8918" y1="1899.7993" x2="2413.2678" y2="3245.2522" gradientTransform="matrix(-1 0 0 1 5316.605 0)">
          <stop offset="0" style="stop-color:#FF9085" />
          <stop offset="1" style="stop-color:#FB6FBB" />
        </linearGradient>
        <path style="fill:url(#SVGID_00000137832969678081074190000012208785882334004366_);" d="M2560.074,2285.526
				c-24.414-26.067,43.173-123.995,79.349-166.906c31.603-37.487,64.086-76.019,103.974-71.14
				c35.021,4.283,69.099,41.216,71.14,76.613C2820.029,2219.316,2594.782,2322.583,2560.074,2285.526z" />

        <linearGradient id="SVGID_00000119113683441952496410000006343054523098448804_" gradientUnits="userSpaceOnUse" x1="-238.7172" y1="3348.5015" x2="-154.6752" y2="3348.5015" gradientTransform="matrix(0.9996 0.0289 -0.0289 0.9996 3110.9297 -31.2392)">
          <stop offset="0" style="stop-color:#311944" />
          <stop offset="1" style="stop-color:#893976" />
        </linearGradient>
        <path style="fill:url(#SVGID_00000119113683441952496410000006343054523098448804_);" d="M2853.212,3291.831
				c4.596,3.736,5.441,13.065,5.993,19.163c0.249,2.724,0.371,4.087,0.066,5.049c-2.22,7.018-15.832,7.756-37.175,9.937
				c-33.729,3.446-43.767,6.101-46.406,1.082c-2.474-4.704,3.513-12.406,4.187-13.255c3.624-4.565,8.073-6.226,16.673-9.056
				c15.913-5.238,26.665-8.106,29.921-8.974C2846.798,3290.349,2850.194,3289.378,2853.212,3291.831z" />
        <path style="fill:#D8DEE8;" d="M2833.153,3261.017l-3.376,38.436c0.958,1.856,12.383,7.423,21.457,2.649l8.673-37.781
				L2833.153,3261.017z" />

        <linearGradient id="SVGID_00000064312532117556199140000011776817550855500184_" gradientUnits="userSpaceOnUse" x1="354.2167" y1="3630.8911" x2="443.506" y2="3630.8911" gradientTransform="matrix(0.9642 0.2651 -0.2651 0.9642 3123.7549 -308.9189)">
          <stop offset="0" style="stop-color:#311944" />
          <stop offset="1" style="stop-color:#893976" />
        </linearGradient>
        <path style="fill:url(#SVGID_00000064312532117556199140000011776817550855500184_);" d="M2585.715,3286.892
				c5.508,6.083,6.763,17.284,1.974,22.802c-4.708,5.425-11.788,1.356-31.865,1.956c-21.507,0.643-27.123,5.722-41.738,1.69
				c-5.904-1.632-16.332-5.591-16.135-9.807c0.139-2.965,5.448-4.496,23.18-10.437c25.169-8.431,25.059-8.892,30.404-9.777
				C2564.96,3281.094,2578.44,3278.86,2585.715,3286.892z" />
        <path style="fill:#D8DEE8;" d="M2571.935,3251.814l-10.787,35.882c0.815,1.925,11.781,8.345,21.192,4.278l16.021-34.827
				L2571.935,3251.814z" />

        <linearGradient id="SVGID_00000065753197636240892130000014791829190840841136_" gradientUnits="userSpaceOnUse" x1="2784.5356" y1="3140.5554" x2="2546.3845" y2="2603.7058" gradientTransform="matrix(-1 0 0 1 5316.605 0)">
          <stop offset="0" style="stop-color:#311944" />
          <stop offset="1" style="stop-color:#893976" />
        </linearGradient>
        <path style="fill:url(#SVGID_00000065753197636240892130000014791829190840841136_);" d="M2667.78,2465.946
				c-1.545,120.59-9.774,256.18-29.519,403.49c-19.514,145.593-46.862,277.144-76.693,392.823
				c13.763,3.703,27.526,7.406,41.288,11.109c34.917-32.558,78.964-83.81,100.218-156.237
				c13.191-44.952,8.795-68.052,17.162-123.343c13.323-88.035,40.309-134.158,68.2-205.149
				c25.064-63.793,54.691-157.415,70.576-282.558C2795.267,2492.703,2731.523,2479.324,2667.78,2465.946z" />

        <linearGradient id="SVGID_00000122719436347351569760000006042858549428351674_" gradientUnits="userSpaceOnUse" x1="2190.4624" y1="3351.3318" x2="1952.3153" y2="2814.4917" gradientTransform="matrix(-0.9925 -0.1225 -0.1225 0.9925 5233.6001 108.1241)">
          <stop offset="0" style="stop-color:#311944" />
          <stop offset="1" style="stop-color:#893976" />
        </linearGradient>
        <path style="fill:url(#SVGID_00000122719436347351569760000006042858549428351674_);" d="M2792.012,2454.439
				c8.424,153.371,15.352,309.596,20.602,468.588c3.941,119.307,6.834,237.102,8.757,353.346
				c14.058,1.736,28.117,3.472,42.176,5.207c13.584-25.292,31.627-63.959,43.987-113.52c15.012-60.192,11.536-95.938,18.119-158.323
				c7.387-69.969,18.116-85.213,37.123-173.479c38.577-179.131,57.866-268.698,14.833-324.413
				C2963.64,2493.76,2919.848,2448.388,2792.012,2454.439z" />

        <linearGradient id="SVGID_00000096022232375670763310000014590794763421546626_" gradientUnits="userSpaceOnUse" x1="2596.7251" y1="1879.5328" x2="2316.1018" y2="3224.9832" gradientTransform="matrix(-1 0 0 1 5316.605 0)">
          <stop offset="0" style="stop-color:#FF9085" />
          <stop offset="1" style="stop-color:#FB6FBB" />
        </linearGradient>
        <path style="fill:url(#SVGID_00000096022232375670763310000014590794763421546626_);" d="M2996.904,2068.977
				c-32.923-9.258-81.175-20.086-140.268-23.426c-84.283-4.764-126.425-7.146-156.287,12.925
				c-68.972,46.357-15.574,153.348-43.807,418.569c-4.032,37.875-4.937,76.021-7.856,113.998c-4.835,62.88-5.936,66.293-1.56,72.666
				c27.436,39.956,129.798-20.311,279.83,3.512c83.946,13.33,122.019,44.039,145.017,21.889
				c26.821-25.831,3.814-95.307-15.989-155.115c-22.732-68.651-36.775-69.535-49.678-121.237
				c-13.487-54.04-5.329-81.865-3.229-167.083C3004.079,2204.899,3003.865,2144.216,2996.904,2068.977z" />
        <g style="opacity:0.3;">

          <linearGradient id="SVGID_00000119096411714386372020000006551461718317775019_" gradientUnits="userSpaceOnUse" x1="2355.3909" y1="3030.2109" x2="2461.8938" y2="2524.3237" gradientTransform="matrix(-1 0 0 1 5316.605 0)">
            <stop offset="0" style="stop-color:#FF9085" />
            <stop offset="1" style="stop-color:#FB6FBB" />
          </linearGradient>
          <path style="fill:url(#SVGID_00000119096411714386372020000006551461718317775019_);" d="M2792.883,2566.895
					c39.214-3.068,64.653,19.101,98.502,1.824c46.416-23.691,61.33-97.405,58.372-149.577
					c-4.494-79.268-49.757-100.163-41.955-151.401c4.219-27.71,24.003-64.498,95.033-102.084
					c0.947,31.633,0.767,58.596,0.239,80.018c-2.1,85.218-10.258,113.042,3.229,167.083c12.903,51.703,26.946,52.586,49.678,121.237
					c19.804,59.808,42.81,129.285,15.989,155.115c-22.998,22.149-61.071-8.56-145.017-21.889
					c-129.276-20.527-223.107,21.325-264.161,7.752C2712.403,2592.995,2757.398,2569.672,2792.883,2566.895z" />
        </g>

        <linearGradient id="SVGID_00000170248240218375848370000008243245466585241002_" gradientUnits="userSpaceOnUse" x1="2404.4873" y1="1839.4376" x2="2123.8638" y2="3184.8887" gradientTransform="matrix(-1 0 0 1 5316.605 0)">
          <stop offset="0" style="stop-color:#FF9085" />
          <stop offset="1" style="stop-color:#FB6FBB" />
        </linearGradient>
        <path style="fill:url(#SVGID_00000170248240218375848370000008243245466585241002_);" d="M2943.415,2074.419
				c28.006-23.011,84.319,3.037,99.372,10c83.945,38.829,159.315,143.464,140.64,254.041c-2.8,16.584-15.788,94.152-81.47,131.737
				c-59.266,33.913-139.292,25.191-203.41-22.841c-8.761-7.776-17.526-15.55-26.289-23.325c-8.62-9.318-17.242-18.636-25.863-27.955
				c13.551-11.272,36.576-27.533,68.913-37.967c42.634-13.757,73.672,10.928,93.453-7.839
				c13.651-12.952,13.682-35.828,10.312-49.693c-6.795-27.944-31.427-35.802-51.987-55.635
				C2918.781,2198.343,2909.882,2101.972,2943.415,2074.419z" />
        <g>

          <linearGradient id="SVGID_00000013168252026160871980000009665896228575013563_" gradientUnits="userSpaceOnUse" x1="2643.7334" y1="2590.5984" x2="2598.3235" y2="2461.9363" gradientTransform="matrix(-1 0 0 1 5316.605 0)">
            <stop offset="0.0036" style="stop-color:#E38DDD" />
            <stop offset="1" style="stop-color:#9571F6" />
          </linearGradient>
          <polygon style="fill:url(#SVGID_00000013168252026160871980000009665896228575013563_);" points="2540.942,2435.404 
					2916.328,2429.801 2816.507,2477.976 2539.982,2459.878 				" />

          <linearGradient id="SVGID_00000068646826300860453730000001038663971801782420_" gradientUnits="userSpaceOnUse" x1="2445.3569" y1="2404.1868" x2="2462.0073" y2="2519.2261" gradientTransform="matrix(-1 0 0 1 5316.605 0)">
            <stop offset="0.0036" style="stop-color:#E38DDD" />
            <stop offset="1" style="stop-color:#9571F6" />
          </linearGradient>
          <path style="fill:url(#SVGID_00000068646826300860453730000001038663971801782420_);" d="M2929.576,2439.776v0.001
					c0,7.025-4.396,13.3-10.998,15.701l-119.948,47.023l-0.546-32.6l118.245-40.101
					C2922.963,2427.893,2929.576,2432.874,2929.576,2439.776z" />
        </g>
        <path style="fill:#FFFFFF;" d="M2871.773,2417.565c2.304-0.514-11.223-27.469-21.844-24.358
				c-10.617,3.111-62.558,33.213-67.279,45.607c-4.721,12.394-4.721,12.394-4.721,12.394s22.657,1.771,36.708-2.95
				C2828.688,2443.535,2853.039,2421.742,2871.773,2417.565z" />
        <g>
          <g>

            <linearGradient id="SVGID_00000177457953521982833910000008017539914015221639_" gradientUnits="userSpaceOnUse" x1="2775.2764" y1="2414.2627" x2="2686.7432" y2="2288.5454" gradientTransform="matrix(-1 0 0 1 5316.605 0)">
              <stop offset="0.0036" style="stop-color:#E38DDD" />
              <stop offset="1" style="stop-color:#9571F6" />
            </linearGradient>
            <path style="fill:url(#SVGID_00000177457953521982833910000008017539914015221639_);" d="M2788.125,2241.165l26.46,240.921
						c0.913,8.313-10.725,20.698-19.079,20.302l-388.169-23.83c-6.379-0.303-11.69-4.997-12.769-11.291l-48.721-232.688
						c-1.453-8.468,13.768-17.213,22.356-16.973l406.777,11.438C2781.774,2229.237,2787.384,2234.408,2788.125,2241.165z" />

            <linearGradient id="SVGID_00000131355857678568741550000006876994918323706015_" gradientUnits="userSpaceOnUse" x1="2605.4536" y1="2622.3223" x2="2799.2043" y2="2228.7666" gradientTransform="matrix(-1 0 0 1 5316.605 0)">
              <stop offset="0.0036" style="stop-color:#E38DDD" />
              <stop offset="1" style="stop-color:#9571F6" />
            </linearGradient>
            <path style="fill:url(#SVGID_00000131355857678568741550000006876994918323706015_);" d="M2779.253,2248.188l26.461,240.924
						c0.913,8.313-5.817,15.474-14.171,15.08l-393.079-18.609c-6.377-0.302-11.688-4.997-12.769-11.29l-40.159-233.752
						c-1.455-8.469,5.206-16.151,13.795-15.908l406.778,11.438C2772.901,2236.26,2778.513,2241.434,2779.253,2248.188z" />
          </g>

          <linearGradient id="SVGID_00000076572339789113875500000012894460889670711470_" gradientUnits="userSpaceOnUse" x1="2510.8081" y1="2369.7253" x2="2936.4512" y2="2369.7253" gradientTransform="matrix(-1 0 0 1 5316.605 0)">
            <stop offset="0.0036" style="stop-color:#E38DDD" />
            <stop offset="1" style="stop-color:#9571F6" />
          </linearGradient>
          <path style="opacity:0.3;fill:url(#SVGID_00000076572339789113875500000012894460889670711470_);" d="M2548.438,2429.129
					c34.322-14.547,22.208-42.288,62.738-76.855c53.469-45.602,107.968-25.825,127.047-61.17c5.941-11.009,8.779-28.138-1.57-55.862
					l29.456,0.828c6.792,0.189,12.404,5.364,13.144,12.118l26.461,240.924c0.911,8.312-5.819,15.474-14.171,15.08l-393.079-18.609
					c-6.377-0.302-11.688-4.996-12.769-11.29l-5.542-32.256c11.926-6.637,26.178-12.672,42.807-16.046
					C2480.63,2414.295,2508.923,2445.877,2548.438,2429.129z" />
        </g>
        <path style="fill:#FFFFFF;" d="M2373.701,2451.886c-0.639-1.941,0.716-3.94,2.757-4.044c8.308-0.424,27.575-0.596,38.213,5.918
				c13.818,8.464,31.685,23.909,16.638,31.702l-14.05,7.279c-0.645,0.334-1.348,0.438-2.056,0.283
				c-4.992-1.098-26.005-5.759-28.303-6.917C2384.809,2485.054,2376.797,2461.279,2373.701,2451.886z" />
        <g>
          <path style="fill:#FFFFFF;" d="M2850.342,1953.468c-0.209,24.987,2.578,44.803,5.215,58.374
					c3.021,15.549,5.198,19.566,7.976,22.825c4.181,4.906,10.519,9.022,46.323,17.901c19.485,4.83,21.991,4.699,22.422,6.632
					c2.099,9.432-51.031,41.58-105.922,33.832c-33.594-4.741-64.159-23.907-62.283-33.972c1.889-10.129,35.445-4.694,45.446-23.018
					c6.958-12.748-0.841-30.845-10.06-45.832C2808.389,1973.48,2841.414,1970.198,2850.342,1953.468z" />
          <g>

            <linearGradient id="SVGID_00000054249509532517098960000012198693737999670168_" gradientUnits="userSpaceOnUse" x1="-389.0494" y1="1919.0068" x2="-452.6043" y2="1757.589" gradientTransform="matrix(1 0.0037 -0.0037 1 3277.5803 162.9159)">
              <stop offset="0" style="stop-color:#311944" />
              <stop offset="1" style="stop-color:#6B3976" />
            </linearGradient>
            <path style="fill:url(#SVGID_00000054249509532517098960000012198693737999670168_);" d="M2787.991,1963.348
						c-7.928-10.532-8.417-28.918,0.718-40.54c7.861-10.001,20.233-11.427,27.639-12.283c21.462-2.478,48.541,6.481,57.96,26.234
						c5.581,11.706-6.492,36.028-8.382,40.401c-2.142,4.944-6.022,6.64-9.613,10.379c-4.976,5.184-12.767,13.428-25.483,27.215
						c-0.988-4.068-2.491-9.105-4.877-14.563c-0.919-2.102-4.609-10.308-10.192-17.112
						C2804.576,1969.437,2795.507,1973.328,2787.991,1963.348z" />
            <path style="fill:#FFFFFF;" d="M2848.969,2003.159c0,0-14.109,23.147-42.2,21.319c-25.151-1.637-28.835-58.04-12.771-70.009
						c5.36-3.993,16.093-5.651,24.821-3.205c5.155,1.445,6.901,3.587,15.369,5.782c7.813,2.028,10.018,1.161,12.376,3.145
						c2.949,2.483,5.11,8.568,0.184,25.057c4.799-4.858,10.558-6.723,14.64-4.796c0.65,0.309,2.377,1.483,3.349,3.263
						C2868.254,1990.157,2862.37,1998.384,2848.969,2003.159z" />

            <linearGradient id="SVGID_00000044174436672022081800000011984877435790031531_" gradientUnits="userSpaceOnUse" x1="-408.4649" y1="1926.7361" x2="-472.0841" y2="1765.1547" gradientTransform="matrix(1 0.0037 -0.0037 1 3277.5803 162.9159)">
              <stop offset="0" style="stop-color:#311944" />
              <stop offset="1" style="stop-color:#6B3976" />
            </linearGradient>
            <path style="fill:url(#SVGID_00000044174436672022081800000011984877435790031531_);" d="M2847.701,1956.818
						c-1.213,0.905,2.495,5.43,2.771,11.835c0.539,12.432-12.046,27.356-24.884,28.622c-7.59,0.748-9.676-3.827-22.223-5.153
						c-7.768-0.82-14.235,0.168-18.303,1.057c-3.943,13.636-0.233,27.23,8.881,33.537c9.812,6.791,22.346,2.671,27.586,0.948
						c3.506-1.153,14.739-4.822,20.611-15.123c6.117-10.735,0.114-17.206,7.132-24.467c3.54-3.663,8.189-5.249,12.716-12.339
						c1.229-1.927,2.049-3.631,2.551-4.777C2858.051,1964.081,2849.458,1955.508,2847.701,1956.818z" />
            <path style="fill:#FFFFFF;" d="M2794.193,1998.233c0,0,5.432,2.838,14.819,2.31c0.456-0.027,0.96,0.108,1.019,0.344
						c0.216,0.89-5.806,4.883-11.355,3.324c-3.939-1.109-7.005-4.838-6.475-5.787
						C2792.425,1998.024,2793.316,1998.076,2794.193,1998.233z" />
          </g>
        </g>
      </g>
      <g>

        <linearGradient id="SVGID_00000100347693006849909290000007172291189134446776_" gradientUnits="userSpaceOnUse" x1="1611.1736" y1="2447.2078" x2="1699.0601" y2="2095.6609" gradientTransform="matrix(-1 0 0 1 2497.4333 0)">
          <stop offset="0.0036" style="stop-color:#6165D7" />
          <stop offset="1" style="stop-color:#AA80F9" />
        </linearGradient>
        <path style="fill:url(#SVGID_00000100347693006849909290000007172291189134446776_);" d="M830.258,2097.271
				c-6.669,2.521-108.388,42.973-129.296,149.138c-1.689,8.576-18.031,99.789,43.826,164.225
				c69.362,72.254,202.924,70.463,255.939,10.059c12.363-14.086,18.885-29.698,22.539-42.816l0,0l-13.969-37.111
				c-17.044-20.577-40.251-25.452-52.645-28.507c-30.554-7.53-53.622,6.08-71.121-8.655c-9.682-8.151-11.606-19.885-13.324-30.365
				c-5.852-35.698,14.297-57.673,15.764-79.688c1.097-16.457,6.857-52.517-14.624-76.032
				C859.745,2102.628,840.905,2098.574,830.258,2097.271z" />

        <linearGradient id="SVGID_00000021808199983694217340000008883621955019550651_" gradientUnits="userSpaceOnUse" x1="1352.531" y1="3276.0984" x2="1394.2216" y2="3313.1821" gradientTransform="matrix(-0.9902 -0.14 -0.14 0.9902 2600.2761 206.9384)">
          <stop offset="0" style="stop-color:#444B8C" />
          <stop offset="0.9964" style="stop-color:#26264F" />
        </linearGradient>
        <path style="fill:url(#SVGID_00000021808199983694217340000008883621955019550651_);" d="M790.623,3280.439
				c-1.187-6.536-22.293-12.451-32.744-3.697c-5.189,4.346-8.763,13.158-5.76,17.137c1.092,1.448-3.382,3.994,0.905,4.044
				C767.242,3298.088,791.804,3286.934,790.623,3280.439z" />

        <linearGradient id="SVGID_00000091732058320830127120000004263702389882442120_" gradientUnits="userSpaceOnUse" x1="467.4243" y1="3313.2354" x2="467.4243" y2="3240.6069" gradientTransform="matrix(-0.9902 -0.14 -0.14 0.9902 1684.075 77.4224)">
          <stop offset="0" style="stop-color:#FFC444" />
          <stop offset="0.9964" style="stop-color:#F36F56" />
        </linearGradient>
        <path style="fill:url(#SVGID_00000091732058320830127120000004263702389882442120_);" d="M768.501,3282.818l-21.706-3.068
				c10.056-12.108,8.194-50.666,8.194-50.666l23.085,5.152c0,0-2.63,10.584-7.105,26.196
				C769.437,3265.775,768.753,3274.139,768.501,3282.818z" />

        <linearGradient id="SVGID_00000119796310603099609530000007509049157924068540_" gradientUnits="userSpaceOnUse" x1="1356.7224" y1="3271.3872" x2="1398.4127" y2="3308.4709" gradientTransform="matrix(-0.9902 -0.14 -0.14 0.9902 2600.2761 206.9384)">
          <stop offset="0" style="stop-color:#444B8C" />
          <stop offset="0.9964" style="stop-color:#26264F" />
        </linearGradient>
        <path style="fill:url(#SVGID_00000119796310603099609530000007509049157924068540_);" d="M770.426,3280.144
				c0,0-26.134-6.021-28.961-0.838c-2.827,5.185-5.021,19.064,11.559,18.616C769.605,3297.475,771.899,3284.54,770.426,3280.144z" />

        <linearGradient id="SVGID_00000023961016182395323760000010003260349859120293_" gradientUnits="userSpaceOnUse" x1="1400.0024" y1="3284.6282" x2="1441.6947" y2="3321.7136" gradientTransform="matrix(-1 0 0 1 2497.4333 0)">
          <stop offset="0" style="stop-color:#444B8C" />
          <stop offset="0.9964" style="stop-color:#26264F" />
        </linearGradient>
        <path style="fill:url(#SVGID_00000023961016182395323760000010003260349859120293_);" d="M1088.465,3304.947
				c-2.089-6.305-23.816-9.208-32.94,0.922c-4.529,5.03-6.835,14.254-3.304,17.774c1.284,1.282-2.789,4.429,1.462,3.878
				C1067.784,3325.695,1090.542,3311.211,1088.465,3304.947z" />

        <linearGradient id="SVGID_00000049214689775214534500000017676728445203489198_" gradientUnits="userSpaceOnUse" x1="514.8524" y1="3321.7876" x2="514.8524" y2="3249.156" gradientTransform="matrix(-1 0 0 1 1572.123 0)">
          <stop offset="0" style="stop-color:#FFC444" />
          <stop offset="0.9964" style="stop-color:#F36F56" />
        </linearGradient>
        <path style="fill:url(#SVGID_00000049214689775214534500000017676728445203489198_);" d="M1066.892,3310.398h-21.922
				c8.263-13.396,1.022-51.314,1.022-51.314l23.579,1.871c0,0-1.123,10.848-3.368,26.932
				C1065.434,3293.393,1065.927,3301.77,1066.892,3310.398z" />

        <linearGradient id="SVGID_00000018926024369438972670000002207113600845034114_" gradientUnits="userSpaceOnUse" x1="839.006" y1="3355.094" x2="567.1426" y2="2257.449" gradientTransform="matrix(1 0 0 1 221.6861 0)">
          <stop offset="0" style="stop-color:#444B8C" />
          <stop offset="0.9964" style="stop-color:#26264F" />
        </linearGradient>
        <path style="fill:url(#SVGID_00000018926024369438972670000002207113600845034114_);" d="M1123.708,2481.377
				c10.155,33.536,24.658,87.662,33.993,155.571c26.629,193.698-29.969,199.877-19.4,414.52
				c3.374,68.515-59.357,226.503-64.886,229.991c-2.676,0.259-5.579,0.434-8.676,0.34c-5.456-0.165-13.149-1.001-22.094-3.683
				c-9.937-1.712-45.765-98.752-37.46-156.447c5.876-40.836,4.173-84.66,0.766-172.309c-0.552-14.202-36.888-276.309-36.888-276.309
				l0,0c-11.053,97.017-23.764,179.451-34.784,243.363c-35.406,205.338-150.524,329.623-156.529,331.616
				c-1.186,0.476-11.988,4.4-20.82-1.42c-3.931-2.591-5.269-5.934-5.269-5.934c-3.079-2.411,0.908-205.007,36.021-357.478
				c50.966-221.31,28.773-273.092,44.92-371.943C846.573,2425.721,1123.708,2481.377,1123.708,2481.377z" />

        <linearGradient id="SVGID_00000039096470157974462340000000366008464950631330_" gradientUnits="userSpaceOnUse" x1="1281.3568" y1="2536.7961" x2="593.9247" y2="2058.7122">
          <stop offset="0.0036" style="stop-color:#6165D7" />
          <stop offset="1" style="stop-color:#AA80F9" />
        </linearGradient>
        <path style="fill:url(#SVGID_00000039096470157974462340000000366008464950631330_);" d="M1137.357,2514.811
				c-30.605,15.707-109.432,43.854-203.378,29.871c-41.652-6.202-75.192-19.816-99.23-32.293c-0.733-0.367-1.468-0.734-2.165-1.101
				c24.404-73.799,5.284-113.286-3.743-149.689c-12.88-51.89-13.065-47.964-23.671-89.212
				c-17.467-68.037-20.331-137.542-8.33-151.744c32.368-38.349,90.717-39.743,120.993-40.661
				c33.834-0.991,111.634-12.918,154.459,25.615c0.735,0.66-8.036,5.358-3.706,10.422c4,4.697,17.761,21.175,30.238,43.413
				c9.027,16.111,17.211,34.899,25.432,62.863c14.496,49.358,18.679,91.413,20.073,109.726c0.441,6.055,0.846,11.927,1.211,17.578
				C1151.23,2440.535,1144,2484.425,1137.357,2514.811z" />

        <linearGradient id="SVGID_00000182513126659575813490000011547878011546635163_" gradientUnits="userSpaceOnUse" x1="1404.1946" y1="3279.9175" x2="1445.8859" y2="3317.0022" gradientTransform="matrix(-1 0 0 1 2497.4333 0)">
          <stop offset="0" style="stop-color:#444B8C" />
          <stop offset="0.9964" style="stop-color:#26264F" />
        </linearGradient>
        <path style="fill:url(#SVGID_00000182513126659575813490000011547878011546635163_);" d="M1068.425,3307.481
				c0,0-26.719-2.304-28.792,3.225c-2.073,5.528-2.304,19.579,14.051,16.815C1070.038,3324.757,1070.498,3311.627,1068.425,3307.481
				z" />
        <g>

          <linearGradient id="SVGID_00000037691952767458630020000011157547236776909724_" gradientUnits="userSpaceOnUse" x1="1535.0822" y1="1831.4052" x2="1760.8577" y2="2115.4595" gradientTransform="matrix(-0.9976 0.0697 0.0697 0.9976 2456.6868 20.5189)">
            <stop offset="0" style="stop-color:#FFC444" />
            <stop offset="0.9964" style="stop-color:#F36F56" />
          </linearGradient>
          <path style="fill:url(#SVGID_00000037691952767458630020000011157547236776909724_);" d="M1015.225,2036.739
					c9.22-18.409,3.15-38.277,1.794-42.568c-5.674-17.963-7.503-20.619-11.165-24.248l-5.149-4.735c0,0-0.312-0.202-0.644-0.397
					c-3.494-2.06-16.204-4.917-18.901-4.863c-8.615,0.169-23.935,32.177-30.623,80.32c-0.694,1.75-1.378,3.518-2.055,5.303
					c-4.21,11.11-7.727,21.993-10.66,32.57c-57.677,8.961-65.254,16.331-65.237,20.28c0.034,8.313,33.762,15.565,58.877,17.468
					c54.777,4.148,109.513-14.048,108.551-24.141c-0.418-4.394-11.596-9.377-57.982-12.183c0.544-7.681,1.087-15.363,1.63-23.044
					C987.34,2055.411,1008.435,2050.302,1015.225,2036.739z" />
          <path style="fill:#26264F;" d="M1020.469,1954.962c-2.9,14.755-12.901,29.18-16.934,31.03c-0.521,0.239-3.49,1.777-6.476,4.809
					c-0.407,0.412-0.792,0.913-1.178,1.582c-5.031,8.68,7.649,22.486,3.989,26.101c-2.655,2.622-11.929-3.361-13.628-0.982
					c-1.6,2.238,5.773,8.938,3.926,11.632c-1.395,2.034-6.145-0.99-10.045,1.786c-1.943,1.382-1.728,2.817-4.441,7.666
					c-1.534,2.742-3.508,5.686-4.902,7.267c-6.777,7.683-21.84,8.06-23.951,4.054c-0.587-1.116,0.234-1.8,0.07-5.197
					c0,0-0.152-3.149-1.573-7.029c-2.03-5.545-8.56-10.49-14.83-17.14c-11.609-12.314-13.676-21.298-14.236-24.307
					c-0.199-1.071-0.297-1.87-0.367-2.446c-1.405-11.56,1.665-27.548,8.456-36.434c11.376-14.885,28.355-3.497,46.639-16.892
					c21.095-15.454,15.664-43.194,25.688-44.206C1007.724,1895.138,1025.831,1927.679,1020.469,1954.962z" />

          <linearGradient id="SVGID_00000159440571138207789370000006342674389146551741_" gradientUnits="userSpaceOnUse" x1="1544.6062" y1="1823.8363" x2="1770.3766" y2="2107.8843" gradientTransform="matrix(-0.9976 0.0697 0.0697 0.9976 2456.6868 20.5189)">
            <stop offset="0" style="stop-color:#FFC444" />
            <stop offset="0.9964" style="stop-color:#F36F56" />
          </linearGradient>
          <path style="fill:url(#SVGID_00000159440571138207789370000006342674389146551741_);" d="M995.232,2013.989
					c-2.659-5.671-9.92-2.227-11.199,4.199c-1.28,6.425,3.662,14.318,9.955,14.215
					C1000.282,2032.301,998.81,2021.622,995.232,2013.989z" />
        </g>
        <g>

          <linearGradient id="SVGID_00000008117031663436703690000012681118800056670397_" gradientUnits="userSpaceOnUse" x1="804.969" y1="2371.4063" x2="846.4828" y2="2371.4063">
            <stop offset="0.0036" style="stop-color:#6165D7" />
            <stop offset="1" style="stop-color:#AA80F9" />
          </linearGradient>
          <path style="fill:url(#SVGID_00000008117031663436703690000012681118800056670397_);" d="M843.382,2465.573
					c-0.069,0-0.146-0.004-0.215-0.011c-1.084-0.119-1.861-1.096-1.738-2.176c3.975-35.806-3.452-61.851-10.003-84.833
					c-1.607-5.628-3.168-11.091-4.498-16.484c-7.289-29.39-10.48-40.75-13.863-52.779c-2.222-7.892-4.49-15.981-8.035-29.578
					c-0.269-1.053,0.361-2.126,1.407-2.399c1.061-0.3,2.137,0.361,2.407,1.407c3.529,13.563,5.797,21.632,8.012,29.505
					c3.391,12.06,6.589,23.447,13.886,52.898c1.33,5.351,2.876,10.768,4.467,16.35c6.651,23.331,14.193,49.772,10.126,86.351
					C845.227,2464.827,844.374,2465.573,843.382,2465.573z" />
        </g>

        <linearGradient id="SVGID_00000160153488677532428310000007055070857038264997_" gradientUnits="userSpaceOnUse" x1="834.7493" y1="2435.8474" x2="1147.5969" y2="2435.8474">
          <stop offset="0.0036" style="stop-color:#6165D7" />
          <stop offset="1" style="stop-color:#AA80F9" />
        </linearGradient>
        <path style="opacity:0.3;fill:url(#SVGID_00000160153488677532428310000007055070857038264997_);" d="M1137.357,2514.811
				c-30.605,15.707-109.432,43.854-203.378,29.871c-41.652-6.202-75.192-19.816-99.23-32.293
				c10.9-8.477,24.332-22.679,46.533-46.826c26.9-29.211,58.422-18.312,76.954-7.303c13.358,7.89,29.91,8.11,43.451,0.624
				c13.577-7.523,22.166-21.652,22.569-37.138c0.22-7.119-0.111-15.229-0.991-24.404c-6.349-66.46,85.725-72.111,85.725-72.111
				c12.991-6.752,25.323,4.147,36.551,24.367C1151.23,2440.535,1144,2484.425,1137.357,2514.811z" />

        <linearGradient id="SVGID_00000103962331498745273440000016294641087828367787_" gradientUnits="userSpaceOnUse" x1="1389.173" y1="2224.6248" x2="1451.5505" y2="2303.1038">
          <stop offset="0" style="stop-color:#FFC444" />
          <stop offset="0.9964" style="stop-color:#F36F56" />
        </linearGradient>
        <path style="fill:url(#SVGID_00000103962331498745273440000016294641087828367787_);" d="M1459.232,2218.757
				c-3.704,0.355-8.187,4.108-11.338,5.895c-4.479,2.541-8.99,5.035-13.557,7.415c-8.817,4.592-18.153,8-28.236,7.813
				c0.28-1.437,0.779-2.878,1.346-4.253c1.707-3.996,3.959-7.448,2.615-8.646c-1.925-1.744-10.39,1.853-18.201,9.337
				c-3.161,2.979-6.177,6.648-8.646,10.826c-3.986,6.792-3.314,10.508-6.649,15.687c-4.958,4.444-8.678,5.421-8.678,5.421v1.417
				l0.561,1.744c-4.433,3.379-9.439,5.377-13.361,6.685c6.902,1.853,13.645,3.742,20.512,5.631l4.771,7.957
				c0,0,26.018-5.45,41.714-14.969c7.339-4.469,9.866-9.991,10.483-14.569c0.436-3.052-0.008-5.668-0.407-7.339
				c-0.326-1.199-0.621-1.926-0.621-1.926s21.433-8.901,29.898-28.156C1462.716,2221.82,1462.84,2218.411,1459.232,2218.757z" />

        <linearGradient id="SVGID_00000083072276249162824040000009223949013064246670_" gradientUnits="userSpaceOnUse" x1="1797.6149" y1="2574.8423" x2="1140.6423" y2="2117.9419" gradientTransform="matrix(-1 0 0 1 2497.4333 0)">
          <stop offset="0.0036" style="stop-color:#6165D7" />
          <stop offset="1" style="stop-color:#AA80F9" />
        </linearGradient>
        <path style="fill:url(#SVGID_00000083072276249162824040000009223949013064246670_);" d="M1368.438,2260.247
				c12.237,8.563,18.799,20.191,22.201,27.614c-8.997,21.116-29.401,60.326-71.633,89.222
				c-69.246,47.379-170.78,48.973-241.501-5.059c-84.492-64.552-98.61-188.338-63.122-241.348
				c4.085-6.103,17.517-26.166,38.368-28.468c13.168-1.454,31.091,3.976,59.409,37.13c59.005,69.085,38.164,112.222,73.024,132.434
				C1237.457,2302.081,1315.136,2222.947,1368.438,2260.247z" />
      </g>
      <g>

        <linearGradient id="SVGID_00000077300855132009150140000007324538771382349735_" gradientUnits="userSpaceOnUse" x1="-2835.7993" y1="1113.3756" x2="-2663.5347" y2="1113.3756" gradientTransform="matrix(1 0 0 1 4938.5596 0)">
          <stop offset="0" style="stop-color:#FFC444" />
          <stop offset="0.9964" style="stop-color:#F36F56" />
        </linearGradient>
        <path style="fill:url(#SVGID_00000077300855132009150140000007324538771382349735_);" d="M2246.245,934.604
				c-21.689-6.335-50.677,33.491-74.775,66.599c-36.052,49.531-78.173,107.401-66.826,176.891
				c11.164,68.367,69.776,121.612,86.48,113.996c14.287-6.514-13.182-52.496,7.862-113.996
				c16.98-49.625,45.115-49.643,63.982-98.296C2286.384,1019.416,2272.928,942.398,2246.245,934.604z" />

        <linearGradient id="SVGID_00000015341535141904420910000017134475497209290399_" gradientUnits="userSpaceOnUse" x1="-2130.8665" y1="1436.8164" x2="-1796.8092" y2="1436.8164" gradientTransform="matrix(1 0 0 1 3936.9702 0)">
          <stop offset="0" style="stop-color:#AA80F9" />
          <stop offset="0.9964" style="stop-color:#6165D7" />
        </linearGradient>
        <path style="fill:url(#SVGID_00000015341535141904420910000017134475497209290399_);" d="M2235.513,1249.511
				c-111.71,27.12-185.293,70.656-228.266,101.451c-23.29,16.69-34.048,27.1-39.855,42.272
				c-33.091,86.464,136.922,217.197,155.04,230.888c7.915-18.453,15.828-36.906,23.741-55.36
				c-17.567-96.425-46.815-126.676-71.29-135.672c-6.846-2.517-18.339-5.215-18.116-8.454c0.527-7.661,65.103,3.256,126.815-19.323
				c61.535-22.516,123.36-79.487,112.321-117.152C2293.885,1281.284,2285.445,1261.409,2235.513,1249.511z" />

        <linearGradient id="SVGID_00000063595589336656583690000012575420326338836128_" gradientUnits="userSpaceOnUse" x1="4828.5132" y1="825.7117" x2="4842.9526" y2="1085.6217" gradientTransform="matrix(-0.9565 0.2918 0.2918 0.9565 6470.6406 -392.2555)">
          <stop offset="0.0036" style="stop-color:#E38DDD" />
          <stop offset="1" style="stop-color:#9571F6" />
        </linearGradient>
        <path style="fill:url(#SVGID_00000063595589336656583690000012575420326338836128_);" d="M2127.191,1881.501
				c0,0,10.399,3.704,10.437,11.928c0.039,8.223-10.533,44.449-22.017,57.321c-11.484,12.871-12.511-6.332-11.801-18.702
				c0.709-12.37,3.721-40.06,6.56-45.415C2113.21,1881.281,2127.191,1881.501,2127.191,1881.501z" />

        <linearGradient id="SVGID_00000007419441225550175170000009419055558088293560_" gradientUnits="userSpaceOnUse" x1="-1973.8383" y1="1449.385" x2="-1639.7813" y2="1449.385" gradientTransform="matrix(1 0 0 1 3936.9702 0)">
          <stop offset="0" style="stop-color:#AA80F9" />
          <stop offset="0.9964" style="stop-color:#6165D7" />
        </linearGradient>
        <path style="opacity:0.3;fill:url(#SVGID_00000007419441225550175170000009419055558088293560_);" d="M2093.802,1375.923
				c-20.297-0.398-67.854-4.186-80.516,19.323c-10.563,19.614,7.943,49.347,19.325,67.634
				c30.942,49.717,60.974,54.802,82.127,85.348c8.187,11.824,15.606,28.338,17.967,51.934c4.49-10.468,8.979-20.934,13.467-31.401
				c-17.567-96.424-46.815-126.676-71.29-135.671c-6.846-2.517-18.339-5.215-18.116-8.454c0.527-7.661,65.103,3.256,126.815-19.323
				c56.094-20.525,112.24-69.64,113.402-106.704C2208.157,1362.317,2141.303,1376.854,2093.802,1375.923z" />

        <linearGradient id="SVGID_00000134940327558305768790000009596930969471207570_" gradientUnits="userSpaceOnUse" x1="2111.4768" y1="1885.7133" x2="2133.1992" y2="1885.7133">
          <stop offset="0" style="stop-color:#311944" />
          <stop offset="1" style="stop-color:#A03976" />
        </linearGradient>
        <path style="fill:url(#SVGID_00000134940327558305768790000009596930969471207570_);" d="M2133.199,1846.557
				c-0.613,12.673-1.688,23.269-2.658,31.137c-2.146,17.407-4.119,24.295-6.821,30.569c-2.357,5.466-8.248,17.392-11.061,16.565
				c-2.858-0.839,0.082-14.051,2.308-50.795c0.324-5.333,1.306-22.311,1.306-22.311l0,0L2133.199,1846.557z" />

        <linearGradient id="SVGID_00000170992018589817782510000000836412847780412314_" gradientUnits="userSpaceOnUse" x1="-1952.4917" y1="1229.4036" x2="-1652.9681" y2="1593.3406" gradientTransform="matrix(1 0 0 1 3936.9702 0)">
          <stop offset="0" style="stop-color:#AA80F9" />
          <stop offset="0.9964" style="stop-color:#6165D7" />
        </linearGradient>
        <path style="fill:url(#SVGID_00000170992018589817782510000000836412847780412314_);" d="M2299.927,1256.758
				c-64.364,38.806-106.146,82.928-130.438,112.724c-28.677,35.174-72.297,88.677-88.089,168.456
				c-8.419,42.524-4.276,80.67,4.352,155.222c8.57,74.046,20.854,134.331,30.464,175.502c4.949,1.987,9.898,3.974,14.847,5.96
				c13.258-24.356,30.6-62.913,36.817-112.218c10.171-80.667-20.006-106.3-5.521-163.507
				c12.547-49.558,48.904-79.944,121.615-140.718c59.742-49.932,114.827-79.556,135.275-141.836
				c3.473-10.576,6.424-23.55,0.764-35.43C2407.812,1255.312,2361.137,1246.379,2299.927,1256.758z" />

        <linearGradient id="SVGID_00000045585548731150521360000004670457785065794187_" gradientUnits="userSpaceOnUse" x1="-1057.0287" y1="648.2777" x2="-1453.1744" y2="980.01" gradientTransform="matrix(0.9987 -0.0509 0.0509 0.9987 3842.7783 27.2223)">
          <stop offset="0" style="stop-color:#444B8C" />
          <stop offset="0.9964" style="stop-color:#26264F" />
        </linearGradient>
        <path style="fill:url(#SVGID_00000045585548731150521360000004670457785065794187_);" d="M2351.305,939.219
				c-16.707-3.593-44.181-2.879-70.374-23.505c-7.885-6.209-35.82-28.207-32.428-59.681c2.986-27.709,29.248-42.6,32.47-44.374
				c18.592-10.233,37.126-7.958,57.682-5.148c26.655,3.644,35.508,10.926,54.03,15.92c45.822,12.351,61.318-13.429,107.452-11.254
				c58.965,2.779,64.066,46.327,113.676,47.414c55.694,1.219,66.367-53.288,121.354-62.522
				c76.324-12.819,191.805,69.346,189.479,164.065c-1.343,54.706-42.079,117.402-94.11,136.224
				c-30.328,10.971-63.054,7.487-72.396,27.208c-6.648,14.035,8.298,24.849,6.885,49.304c-1.816,31.527-28.96,53.651-33.344,57.224
				c-40.688,33.165-131.913,16.412-194.208-30.516C2425.139,1114.95,2442.14,958.763,2351.305,939.219z" />

        <linearGradient id="SVGID_00000167383798433378833160000016116373076866508725_" gradientUnits="userSpaceOnUse" x1="1333.2311" y1="1240.1919" x2="1654.9447" y2="950.9444" gradientTransform="matrix(-1 0 0 1 3834.0215 0)">
          <stop offset="0" style="stop-color:#FFC444" />
          <stop offset="0.9964" style="stop-color:#F36F56" />
        </linearGradient>
        <path style="fill:url(#SVGID_00000167383798433378833160000016116373076866508725_);" d="M2480.34,927.974
				c-37.836-4.662-81.477-8.21-129.971-8.869c-102.471-1.392-117.141,11.601-120.894,21.221c-6.998,17.93,4.989,26.917-1.818,58.182
				c-4.07,18.693-0.223,27.213-8.091,47.298c-7.668,19.575-1.654,30.099,5.127,75.998c8.67,58.693,12.669,88.522-3.755,112.182
				c-11.412,16.44-24.179,17.832-22.963,25.641c2.593,16.638,60.118,7.462,132.95,39.402c21.084,9.245,40.49,20.64,56.764,30.194
				c38.107,22.372,45.157,30.927,62.804,41.063c55.808,32.057,139.64,35.146,183.579-3.623
				c16.381-14.454,28.319-35.701,22.948-43.479c-7.315-10.589-40.03,13.464-70.05-1.208c-19.887-9.72-16.109-25.445-39.101-43.972
				c-27.671-22.298-46.908-10.614-65.743-25.123c-29.38-22.632-16.014-76.82-7.767-167.672
				C2477.773,1047.598,2481.198,993.892,2480.34,927.974z" />

        <linearGradient id="SVGID_00000089551661011415849160000006408787440006113212_" gradientUnits="userSpaceOnUse" x1="2295.1355" y1="908.1672" x2="2408.5645" y2="908.1672">
          <stop offset="0" style="stop-color:#311944" />
          <stop offset="1" style="stop-color:#A03976" />
        </linearGradient>
        <path style="fill:url(#SVGID_00000089551661011415849160000006408787440006113212_);" d="M2369.445,906.867
				c13.976,8.67,36.567,20.002,39.056,23.078c2.488,3.072-68.442,15.218-112.576-7.054c0,0-6.842-3.801,19.764-9.122
				c5.669-1.134,4.561-12.163,3.801-23.565l5.321-9.882C2324.811,880.321,2355.471,898.192,2369.445,906.867z" />

        <linearGradient id="SVGID_00000047020075329558104930000017197866355324665261_" gradientUnits="userSpaceOnUse" x1="2309.4978" y1="1202.1615" x2="2307.051" y2="978.3066">
          <stop offset="0" style="stop-color:#311944" />
          <stop offset="1" style="stop-color:#A03976" />
        </linearGradient>
        <path style="fill:url(#SVGID_00000047020075329558104930000017197866355324665261_);" d="M2334.187,873.607
				c0,0,5.483,23.257-15,34.752c-18.34,10.294-49.368-31.901-43.573-47.582c1.933-5.231,8.838-11.953,16.057-14.213
				c5.076-1.59,24.284-0.977,32.511,15.195c2.155-4.729,6.013-7.207,8.606-6.43c3.29,0.983,3.773,6.972,3.885,8.327
				C2337.054,868.359,2335.157,872.007,2334.187,873.607z" />

        <linearGradient id="SVGID_00000065074566738812321810000017559049357467017867_" gradientUnits="userSpaceOnUse" x1="1343.8" y1="1251.9469" x2="1665.5153" y2="962.6979" gradientTransform="matrix(-1 0 0 1 3834.0215 0)">
          <stop offset="0" style="stop-color:#FFC444" />
          <stop offset="0.9964" style="stop-color:#F36F56" />
        </linearGradient>
        <path style="opacity:0.3;fill:url(#SVGID_00000065074566738812321810000017559049357467017867_);" d="M2302.428,1246.433
				c21.102,8.746,23.95,27.648,53.127,38.37c27.833,10.227,37.172-2.588,64.933,5.903c41.696,12.754,57.638,52.987,63.949,49.192
				c5.782-3.477,0.237-41.965-26.563-66.901c-30.779-28.638-63.93-15.523-83.626-45.256c-7.663-11.569-13.572-30.049-6.887-44.272
				c9.059-19.274,32.718-12.59,45.256-28.531c22.526-28.641-30.189-80.298-15.742-123.963c5.766-17.426,24.124-39.268,83.329-53.888
				c-0.803,43.769-3.325,80.347-5.846,108.124c-8.247,90.852-21.613,145.042,7.767,167.673
				c18.834,14.509,38.072,2.825,65.743,25.123c22.992,18.527,19.214,34.252,39.101,43.972c30.02,14.672,62.734-9.381,70.05,1.208
				c5.372,7.778-6.567,29.025-22.948,43.479c-43.939,38.768-127.771,35.68-183.579,3.624
				c-17.646-10.136-24.696-18.692-62.804-41.063c-16.274-9.555-35.681-20.949-56.764-30.195
				c-51.112-22.415-94.655-24.584-116.994-29.633C2258.283,1239.821,2285.301,1239.334,2302.428,1246.433z" />
        <g>

          <linearGradient id="SVGID_00000152974099213073251500000014209069335424415918_" gradientUnits="userSpaceOnUse" x1="1449.8184" y1="1297.8639" x2="1742.4293" y2="1297.8639" gradientTransform="matrix(-1 0 0 1 3834.0215 0)">
            <stop offset="0.0036" style="stop-color:#E38DDD" />
            <stop offset="1" style="stop-color:#9571F6" />
          </linearGradient>
          <path style="fill:url(#SVGID_00000152974099213073251500000014209069335424415918_);" d="M2098.759,1276.117l267.711,13.027
					c3.685,0.181,7.046,2.154,8.995,5.285l7.408,11.89c3.686,5.918-0.743,13.552-7.712,13.286l-283.569-10.802L2098.759,1276.117z" />

          <linearGradient id="SVGID_00000036942093576399579900000017151680746293082804_" gradientUnits="userSpaceOnUse" x1="1588.953" y1="1221.0155" x2="1990.5842" y2="1221.0155" gradientTransform="matrix(-1 0 0 1 3834.0215 0)">
            <stop offset="0.0036" style="stop-color:#E38DDD" />
            <stop offset="1" style="stop-color:#9571F6" />
          </linearGradient>
          <path style="fill:url(#SVGID_00000036942093576399579900000017151680746293082804_);" d="M1852.998,1128.218l276.575,5.359
					c8.184,0.159,15.678,4.616,19.721,11.732l95.775,168.506l-292.097-11.638c-8.017-0.319-15.333-4.66-19.454-11.545
					l-88.735-148.244C1841.004,1136.078,1845.644,1128.075,1852.998,1128.218z" />

          <linearGradient id="SVGID_00000152972671433704926910000015781024192369951884_" gradientUnits="userSpaceOnUse" x1="-156.5949" y1="1114.464" x2="35.2494" y2="1304.7734" gradientTransform="matrix(1 0 0 1 2093.7429 0)">
            <stop offset="0.0036" style="stop-color:#E38DDD" />
            <stop offset="1" style="stop-color:#9571F6" />
          </linearGradient>
          <path style="opacity:0.3;fill:url(#SVGID_00000152972671433704926910000015781024192369951884_);" d="M2149.295,1145.31
					c-4.045-7.117-11.539-11.574-19.723-11.733l-6.061-0.117c-0.904,8.928-3.644,17.095-9.106,23.688
					c-17.054,20.585-45.388,7.888-66.507,29.673c-23.198,23.93-1.768,52.418-22.508,74.69
					c-21.833,23.442-57.135,4.355-97.717,19.357l5.844,9.762c4.121,6.886,11.437,11.227,19.454,11.546l292.097,11.638
					L2149.295,1145.31z" />
        </g>
        <g>

          <linearGradient id="SVGID_00000034072171829157744500000006835333418525354901_" gradientUnits="userSpaceOnUse" x1="1466.5436" y1="1238.0302" x2="1220.8619" y2="996.2798" gradientTransform="matrix(-1 0 0 1 3834.0215 0)">
            <stop offset="0" style="stop-color:#FFC444" />
            <stop offset="0.9964" style="stop-color:#F36F56" />
          </linearGradient>
          <path style="fill:url(#SVGID_00000034072171829157744500000006835333418525354901_);" d="M2322.615,1276.259
					c-3.018-7.966-6.034-15.931-9.051-23.9c33.341-9.141,79.452-22.647,126.748-39.547c11.687-4.176,15.964-9.574,19.09-13.72
					c24.249-32.159-37.461-88.894-36.355-162.51c0.766-51.03,31.703-109.403,58.963-110.065
					c55.412-1.347,177.588,233.776,74.687,334.127C2505.625,1310.451,2410.205,1316.232,2322.615,1276.259z" />
        </g>

        <linearGradient id="SVGID_00000173841374473112212160000009667989556139507373_" gradientUnits="userSpaceOnUse" x1="2240.6501" y1="1266.4308" x2="2324.625" y2="1266.4308">
          <stop offset="0" style="stop-color:#311944" />
          <stop offset="1" style="stop-color:#A03976" />
        </linearGradient>
        <path style="fill:url(#SVGID_00000173841374473112212160000009667989556139507373_);" d="M2313.565,1252.359
				c-20.931-11.119-45.986,0.278-47.6,1.042c-4.6,2.17-11.293,6.038-18.056,12.946c-0.765,1.043-9.844,13.624-6.537,17.655
				c2.651,3.23,12.919,0.552,25.259-7.122c5.172-0.725,12.873-1.392,22.098-0.542c16.94,1.563,24.701,6.914,30.851,2.295
				c4.503-3.381,6.038-10.532,4.417-15.848C2322.258,1257.075,2317.108,1254.243,2313.565,1252.359z" />
      </g>
      <g>
        <g>

          <linearGradient id="SVGID_00000111873427792645641140000003932426284413979522_" gradientUnits="userSpaceOnUse" x1="-72.7402" y1="2916.0015" x2="-344.9017" y2="3239.6265" gradientTransform="matrix(-1 0 0 1 1362.8925 0)">
            <stop offset="0.0036" style="stop-color:#E38DDD" />
            <stop offset="1" style="stop-color:#9571F6" />
          </linearGradient>
          <path style="fill:url(#SVGID_00000111873427792645641140000003932426284413979522_);" d="M1456.548,3262.678
					c-16.4-81.045-9.337-146.173-1.889-185.501c9.037-47.713,27.409-144.709,104.516-198.774
					c6.076-4.26,66.397-45.748,93.489-25.143c13.972,10.626,17.162,36.29,11.053,56.546c-15.774,52.3-86.892,46.498-110.52,106.019
					c-7.868,19.822-9.327,44.009-3.839,46.29c6.756,2.808,26.024-26.768,27.86-29.586c17.178-26.367,17.339-41.295,30.436-45.344
					c8.043-2.487,18.643-0.153,23.385,6.198c10.798,14.464-10.531,47.421-16.495,56.634c-15.598,24.1-28.624,29.575-31.791,50.093
					c-1.363,8.834-1.121,21.894,4.119,23.93c7.087,2.753,20.614-15.705,29.292-27.546c23.332-31.835,25.818-50.343,37.418-51.67
					c10.821-1.238,23.016,13.227,26.148,22.041C1688.28,3090.921,1653.92,3142.122,1456.548,3262.678z" />
          <path style="opacity:0.28;fill:#FFFFFF;" d="M1459.017,3248.776c-2.45-75.307,9.74-135.008,20.783-174.183
					c14.194-50.357,40.892-145.072,115.792-186.06c5.323-2.913,44.482-24.342,55.422-12.865c7.294,7.651,0.829,28.65-9.896,42.556
					c-18.304,23.73-39.387,14.316-69.277,37.608c-26.821,20.9-36.24,49.046-38.598,56.411c-8.746,27.324-4.202,50.75-2.969,59.381
					C1534.957,3104.407,1525.366,3158.107,1459.017,3248.776z" />
          <path style="opacity:0.28;fill:#FFFFFF;" d="M1485.738,3229.972c42-37.616,51.707-68.435,52.453-90.061
					c0.581-16.848-3.978-36.845,8.907-55.422c8.242-11.883,14.456-9.969,28.701-22.762c29.757-26.725,33.453-62.75,39.587-61.36
					c3.414,0.774,5.185,12.592,2.97,23.752c-4.573,23.031-22.585,25.446-40.577,53.443c-12.291,19.126-16.559,37.72-18.804,47.504
					c-5.479,23.874-1.758,32.25-4.948,45.525C1549.891,3187.795,1534.925,3209.999,1485.738,3229.972z" />
        </g>
        <g>

          <linearGradient id="SVGID_00000156547364469339087210000002529533208274261153_" gradientUnits="userSpaceOnUse" x1="83.4322" y1="3259.9871" x2="61.8768" y2="3064.0288" gradientTransform="matrix(-0.9986 0.0527 0.0527 0.9986 1370.7856 28.5205)">
            <stop offset="0" style="stop-color:#AA80F9" />
            <stop offset="0.9964" style="stop-color:#6165D7" />
          </linearGradient>
          <path style="fill:url(#SVGID_00000156547364469339087210000002529533208274261153_);" d="M1481.782,3275.771
					c72.807,4.173,94.449,8.536,128.759-3.156c32.24-10.987,65.31-32.62,62.405-42.552c-2.083-7.124-22.324-7.029-34.413-6.972
					c-32.442,0.151-59.196,10.089-77.968,19.693c16.19-10.988,32.381-21.975,48.571-32.962c11.305-4.045,30.435-12.628,47.38-30.763
					c10.609-11.354,34.988-42.104,25.825-56.879c-9.571-15.434-55.042-12.317-81.253,9.572
					c-12.577,10.503-12.593,18.542-29.45,36.878c-15.32,16.665-31.137,27.243-42.249,33.628
					c10.412-13.016,24.574-33.348,35.583-60.749c16.728-41.636,29.356-107.504,8.08-119.478
					c-14.114-7.942-42.097,8.423-56.093,27.82c-11.348,15.726-10.235,28.916-18.044,79.448c-3.395,21.969-6.724,39.66-8.886,50.635
					c-21.653-47.497-27.935-87.457-29.203-116.826c-1.63-37.738,4.615-67.308-9.819-75.173c-12.865-7.011-35.838,6.667-47.49,19.502
					c-47.16,51.948,15.063,173.865,21.64,186.446c-17.304-13.104-41.151-33.607-64.247-63.241
					c-24.698-31.69-35.128-55.279-47.684-53.167c-12.488,2.101-20.718,28.686-19.781,49.26
					c2.612,57.358,77.522,91.041,85.517,94.514c-6.302,1.015-16.985,2.081-29.581-0.324c-27.93-5.331-36.642-22.262-64.978-28.01
					c-10.837-2.198-32.997-4.475-35.727,2.235c-4.902,12.044,51.068,57.277,118.979,74.524
					C1392.546,3275.995,1386.594,3270.316,1481.782,3275.771z" />
          <path style="opacity:0.28;fill:#FFFFFF;" d="M1529.836,3234.276c33.147-14.736,28.642-34.775,64.905-59.588
					c23.222-15.89,28.617-10.099,53.503-25.29c13.688-8.355,24.876-17.936,33.958-27.412c0.043,0.067,0.098,0.127,0.139,0.194
					c9.163,14.775-15.215,45.525-25.825,56.879c-16.946,18.135-36.075,26.718-47.38,30.763
					c-16.19,10.987-32.381,21.975-48.571,32.962c18.772-9.604,45.526-19.542,77.968-19.693c10.539-0.05,27.268-0.126,32.767,4.574
					c-9.742,6.041-18.508,8.948-25.641,10.403c-16.264,3.319-26.467-0.394-40.536,8.087c-11.287,6.804-10.346,12.584-20.284,16.268
					c-9.353,3.467-14.13-0.191-37.209-3.981c-22.45-3.686-33.86-5.413-42.931,0.286c-6.856,4.307-10.497,11.412-12.506,17.661
					c-2.326-0.142-4.705-0.285-7.147-0.428c1.805-7.175,5.122-15.399,11.433-22.744
					C1506.485,3241.571,1517.435,3239.789,1529.836,3234.276z" />
          <path style="opacity:0.28;fill:#FFFFFF;" d="M1435.379,3259.747c-5.238-1.254-7.741,2.491-15.015,3.436
					c-13.517,1.755-18.583-9.397-34.473-14.697c-18.806-6.272-23.575,5.395-42.306-0.408c-14.828-4.594-12.917-12.239-32.289-23.401
					c-20.614-11.879-29.344-7.006-44.494-16.81c-4.87-3.151-10.426-7.841-15.716-15.137c6.661-3.611,24.089-1.686,33.317,0.186
					c28.336,5.748,37.048,22.679,64.978,28.01c12.596,2.405,23.279,1.339,29.581,0.324c-7.995-3.473-82.905-37.156-85.517-94.514
					c-0.869-19.085,6.153-43.328,17.141-48.417c-1.307,13.25-1.489,24.575-1.287,33.484c0.469,20.727,0.838,31.267,7.394,39.913
					c11.376,15.001,25.241,7.181,44.149,22.775c17.213,14.196,11.215,25.206,29.171,39.422
					c15.496,12.269,24.678,7.801,39.258,17.748c9.147,6.24,20.256,18.058,26.93,42.791c-3.039-0.138-5.949-0.263-8.717-0.375
					C1444.848,3267.06,1441.025,3261.098,1435.379,3259.747z" />
          <path style="opacity:0.28;fill:#FFFFFF;" d="M1451.733,3181.58c-9.071-24.709-24.82-22.169-31.391-43.93
					c-6.532-21.632,7.758-28.356,4.115-59.681c-2.729-23.468-11.59-26.923-12.179-42.963c-0.435-11.825,3.734-27.936,23.009-47.906
					c5.845-1.536,11.363-1.54,15.721,0.834c14.434,7.865,8.189,37.435,9.819,75.173c1.268,29.369,7.55,69.329,29.203,116.826
					c2.162-10.976,5.491-28.667,8.886-50.635c7.808-50.532,6.696-63.722,18.044-79.448c13.997-19.396,41.98-35.762,56.093-27.82
					c0.807,0.454,1.558,0.995,2.269,1.599c-7.04,4.799-13.533,10.697-18.993,17.974c-18.613,24.804-8.025,42.575-24.899,91.501
					c-16.229,47.055-32.695,49.961-45.757,90.621c-4.172,12.985-8.102,30.174-8.913,51.764c-4.768-0.264-9.261-0.497-13.512-0.706
					c-4.888-16.016-7.193-30.346-8.176-42.505C1452.905,3205.509,1457.86,3198.271,1451.733,3181.58z" />
        </g>
      </g>
      <g>
        <g>

          <linearGradient id="SVGID_00000079482359719750949520000006841312753641125017_" gradientUnits="userSpaceOnUse" x1="1422.3923" y1="656.7786" x2="1741.1746" y2="732.0815">
            <stop offset="0" style="stop-color:#311944" />
            <stop offset="1" style="stop-color:#893976" />
          </linearGradient>
          <path style="fill:url(#SVGID_00000079482359719750949520000006841312753641125017_);" d="M1633.565,538.733
					c104.985,3.222,193.16,67.321,210.342,148.461c0.022,0.106,0.044,0.212,0.066,0.319c0.93,4.441,1.646,8.933,2.142,13.469
					c0.033,0.299,0.069,0.598,0.1,0.898c0.217,2.119,0.386,4.249,0.506,6.387c0.022,0.388,0.037,0.776,0.056,1.165
					c0.104,2.185,0.174,4.376,0.174,6.579c0,94.291-96.235,165.747-213.385,159.684c-3.116-0.162-6.213-0.387-9.294-0.654
					c-0.301-0.026-0.605-0.047-0.906-0.075c-2.916-0.263-5.814-0.58-8.696-0.934c-0.448-0.055-0.898-0.108-1.346-0.165
					c-2.79-0.357-5.561-0.762-8.316-1.205c-0.52-0.083-1.038-0.167-1.557-0.254c-2.703-0.451-5.39-0.941-8.057-1.471
					c-0.541-0.108-1.079-0.22-1.619-0.331c-2.654-0.546-5.293-1.123-7.909-1.746c-0.507-0.121-1.009-0.249-1.515-0.373
					c-2.599-0.635-5.183-1.299-7.742-2.009c-0.459-0.128-0.914-0.264-1.372-0.394c-2.304-0.653-4.589-1.338-6.858-2.051
					c-0.575-0.181-1.155-0.354-1.728-0.538c-2.302-0.741-4.578-1.522-6.843-2.324c-0.489-0.172-0.99-0.326-1.477-0.502
					c0.006-0.006,0.012-0.011,0.018-0.017c-77.874-28.09-132.624-91.309-132.624-162.008
					C1425.725,606.804,1518.107,535.188,1633.565,538.733z" />

          <linearGradient id="SVGID_00000119102695698087060490000011904253611115534220_" gradientUnits="userSpaceOnUse" x1="-1946.403" y1="570.2269" x2="-1673.1083" y2="1077.1075" gradientTransform="matrix(-1 0 0 1 -258.321 0)">
            <stop offset="0.0036" style="stop-color:#E38DDD" />
            <stop offset="1" style="stop-color:#9571F6" />
          </linearGradient>
          <path style="fill:url(#SVGID_00000119102695698087060490000011904253611115534220_);" d="M1403.498,698.645
					c0,91.841,92.381,171.074,207.84,177.05c117.149,6.064,213.385-65.393,213.385-159.684c0-94.291-96.235-173.683-213.385-177.279
					C1495.879,535.188,1403.498,606.804,1403.498,698.645z" />
          <g style="opacity:0.3;">

            <linearGradient id="SVGID_00000110453408018147720620000004141031945011388851_" gradientUnits="userSpaceOnUse" x1="-2026.5072" y1="603.7167" x2="-1758.6921" y2="1141.1571" gradientTransform="matrix(-1 0 0 1 -258.321 0)">
              <stop offset="0.0036" style="stop-color:#E38DDD" />
              <stop offset="1" style="stop-color:#9571F6" />
            </linearGradient>
            <path style="fill:url(#SVGID_00000110453408018147720620000004141031945011388851_);" d="M1560.374,830.279
						c25.281-48.434-0.276-95.972,33.923-126.62c34.895-31.271,80.467,0.995,129.804-23.771
						c19.156-9.616,40.508-28.656,56.415-68.994c27.702,29.663,44.205,66.169,44.205,105.117
						c0,94.291-96.235,165.748-213.385,159.684c-26.598-1.377-51.958-6.638-75.234-15.025
						C1547.573,850.706,1555.174,840.241,1560.374,830.279z" />
          </g>
        </g>
        <g>
          <path style="fill:#FFFFFF;" d="M1505.689,661.552c-9.014-0.031-15.975,3.458-20.897,10.455
					c-4.914,6.988-7.368,16.741-7.368,29.266c0,26.065,9.392,39.253,28.265,39.565c7.954,0.131,17.615-1.776,29-5.736v20.986
					c-9.359,3.852-19.777,5.659-31.243,5.431c-16.399-0.327-28.883-5.73-37.498-16.189c-8.592-10.429-12.878-25.241-12.878-44.46
					c0-12.104,2.104-22.695,6.318-31.784c4.219-9.1,10.291-16.082,18.228-20.943c7.957-4.874,17.31-7.316,28.074-7.316
					c11.007,0,22.106,2.769,33.3,8.32l-7.814,20.318c-4.263-2.116-8.545-3.96-12.848-5.534
					C1514.031,662.358,1509.819,661.566,1505.689,661.552z" />
          <path style="fill:#FFFFFF;" d="M1636.059,729.204c0,10.832-3.834,19.3-11.483,25.391c-7.632,6.077-18.22,8.974-31.731,8.705
					c-12.396-0.247-23.319-2.845-32.787-7.785v-23.343c7.781,3.687,14.382,6.308,19.796,7.858c5.422,1.552,10.39,2.367,14.902,2.442
					c5.422,0.09,9.588-0.903,12.494-2.979c2.907-2.078,4.363-5.215,4.363-9.411c0-2.342-0.641-4.435-1.923-6.279
					c-1.281-1.841-3.16-3.621-5.639-5.341c-2.476-1.717-7.515-4.47-15.105-8.253c-7.096-3.497-12.408-6.831-15.941-10.008
					c-3.532-3.172-6.349-6.849-8.453-11.032c-2.104-4.178-3.154-9.05-3.154-14.618c0-10.484,3.457-18.718,10.381-24.711
					c6.938-6.006,16.557-9.014,28.878-9.014c6.073,0,11.876,0.736,17.411,2.209c5.544,1.476,11.351,3.557,17.425,6.242
					l-8.059,19.737c-6.275-2.648-11.453-4.496-15.541-5.547c-4.083-1.048-8.094-1.58-12.034-1.594
					c-4.678-0.016-8.262,1.085-10.753,3.302c-2.492,2.216-3.736,5.113-3.736,8.694c0,2.225,0.503,4.168,1.51,5.829
					c1.006,1.663,2.609,3.274,4.811,4.837c2.202,1.564,7.423,4.39,15.68,8.484c10.951,5.44,18.48,10.875,22.561,16.3
					C1634.013,714.751,1636.059,721.381,1636.059,729.204z" />
          <path style="fill:#FFFFFF;" d="M1737.025,730.645c0,11.009-3.96,19.613-11.863,25.802c-7.883,6.174-18.818,9.114-32.771,8.836
					c-12.799-0.255-24.078-2.899-33.854-7.921v-23.719c8.036,3.748,14.851,6.413,20.441,7.99c5.598,1.579,10.727,2.408,15.387,2.485
					c5.6,0.093,9.9-0.915,12.901-3.024c3.004-2.111,4.506-5.298,4.506-9.563c0-2.38-0.661-4.507-1.983-6.381
					c-1.324-1.871-3.266-3.681-5.825-5.429c-2.557-1.745-7.761-4.544-15.599-8.389c-7.328-3.555-12.812-6.944-16.461-10.173
					c-3.647-3.224-6.556-6.961-8.728-11.211c-2.172-4.246-3.256-9.197-3.256-14.854c0-10.653,3.566-19.02,10.716-25.109
					c7.167-6.103,17.097-9.16,29.821-9.16c6.271,0,12.265,0.748,17.981,2.245c5.724,1.5,11.724,3.615,17.999,6.344l-8.326,20.059
					c-6.481-2.692-11.829-4.57-16.051-5.639c-4.216-1.066-8.36-1.606-12.427-1.62c-4.832-0.016-8.531,1.102-11.105,3.355
					c-2.574,2.252-3.858,5.195-3.858,8.834c0,2.261,0.519,4.235,1.558,5.923c1.04,1.69,2.696,3.327,4.97,4.916
					c2.274,1.59,7.666,4.462,16.19,8.623c11.311,5.529,19.086,11.055,23.302,16.568
					C1734.912,715.956,1737.025,722.695,1737.025,730.645z" />
        </g>
      </g>
      <g>
        <g>

          <linearGradient id="SVGID_00000002353176026951133440000001260518181095312568_" gradientUnits="userSpaceOnUse" x1="1637.4055" y1="723.2391" x2="1092.6184" y2="1048.9879">
            <stop offset="0" style="stop-color:#311944" />
            <stop offset="1" style="stop-color:#893976" />
          </linearGradient>
          <path style="fill:url(#SVGID_00000002353176026951133440000001260518181095312568_);" d="M1174.181,810.726
					c116.816,3.585,214.926,74.908,234.045,165.191c0.025,0.118,0.049,0.236,0.073,0.355c1.035,4.941,1.832,9.939,2.383,14.987
					c0.036,0.333,0.077,0.666,0.111,1c0.242,2.358,0.43,4.728,0.563,7.107c0.024,0.431,0.041,0.864,0.062,1.296
					c0.116,2.431,0.193,4.869,0.193,7.321c0,104.916-107.08,184.425-237.43,177.678c-3.467-0.18-6.912-0.43-10.341-0.727
					c-0.335-0.029-0.673-0.053-1.008-0.083c-3.245-0.292-6.469-0.645-9.676-1.04c-0.499-0.062-0.999-0.12-1.497-0.184
					c-3.104-0.398-6.188-0.848-9.253-1.341c-0.578-0.092-1.155-0.186-1.732-0.282c-3.008-0.502-5.998-1.047-8.966-1.637
					c-0.602-0.12-1.201-0.245-1.801-0.369c-2.953-0.607-5.889-1.249-8.8-1.943c-0.564-0.134-1.123-0.278-1.686-0.416
					c-2.892-0.707-5.767-1.445-8.614-2.235c-0.511-0.142-1.017-0.294-1.527-0.438c-2.563-0.727-5.106-1.489-7.631-2.282
					c-0.64-0.202-1.286-0.393-1.923-0.598c-2.561-0.825-5.094-1.694-7.614-2.586c-0.544-0.192-1.101-0.363-1.643-0.558
					c0.007-0.007,0.013-0.012,0.02-0.019c-86.649-31.255-147.568-101.598-147.568-180.264
					C942.921,886.469,1045.712,806.782,1174.181,810.726z" />

          <linearGradient id="SVGID_00000082370146658669642480000004683232073452353169_" gradientUnits="userSpaceOnUse" x1="-1493.1625" y1="845.7697" x2="-1189.0713" y2="1409.7688" gradientTransform="matrix(-1 0 0 1 -258.321 0)">
            <stop offset="0" style="stop-color:#FF9085" />
            <stop offset="1" style="stop-color:#FB6FBB" />
          </linearGradient>
          <path style="fill:url(#SVGID_00000082370146658669642480000004683232073452353169_);" d="M918.189,988.659
					c0,102.19,102.791,190.352,231.26,197.002c130.35,6.747,237.43-72.762,237.43-177.678c0-104.916-107.08-193.255-237.43-197.256
					C1020.98,806.783,918.189,886.469,918.189,988.659z" />
          <g style="opacity:0.3;">

            <linearGradient id="SVGID_00000114062618259588947040000008149831284927498158_" gradientUnits="userSpaceOnUse" x1="-1582.2935" y1="883.0334" x2="-1284.2993" y2="1481.0359" gradientTransform="matrix(-1 0 0 1 -258.321 0)">
              <stop offset="0" style="stop-color:#FF9085" />
              <stop offset="1" style="stop-color:#FB6FBB" />
            </linearGradient>
            <path style="fill:url(#SVGID_00000114062618259588947040000008149831284927498158_);" d="M1092.742,1135.126
						c28.13-53.892-0.308-106.786,37.746-140.888c38.827-34.795,89.535,1.108,144.432-26.45
						c21.315-10.7,45.073-31.885,62.772-76.768c30.824,33.005,49.187,73.625,49.187,116.962
						c0,104.916-107.08,184.425-237.43,177.678c-29.595-1.532-57.813-7.386-83.712-16.719
						C1078.499,1157.855,1086.957,1146.211,1092.742,1135.126z" />
          </g>
        </g>
        <g>
          <path style="fill:#FFFFFF;" d="M1071.808,1051.667l-93.572-45.516V992.07l93.572-48.495v24.087l-64.834,30.845l64.834,29.173
					V1051.667z" />
          <path style="fill:#FFFFFF;" d="M1172.39,925.308l-53.911,148.114l-26.962-0.799l53.328-147.316H1172.39z" />
          <path style="fill:#FFFFFF;" d="M1192.506,1030.174l69.883-27.843l-69.883-33.636V944.02l102.091,52.395v14.997l-102.091,43.333
					V1030.174z" />
        </g>
      </g>
      <g>
        <g>

          <linearGradient id="SVGID_00000049907383435585200030000018013297074942056088_" gradientUnits="userSpaceOnUse" x1="1383.5292" y1="1285.8352" x2="1702.3114" y2="1361.1381">
            <stop offset="0" style="stop-color:#FFC444" />
            <stop offset="0.9964" style="stop-color:#F36F56" />
          </linearGradient>
          <path style="fill:url(#SVGID_00000049907383435585200030000018013297074942056088_);" d="M1594.702,1167.789
					c104.985,3.222,193.16,67.321,210.342,148.461c0.022,0.106,0.044,0.212,0.066,0.319c0.93,4.441,1.646,8.933,2.142,13.469
					c0.033,0.299,0.069,0.598,0.1,0.898c0.217,2.119,0.386,4.249,0.506,6.387c0.022,0.388,0.037,0.776,0.056,1.165
					c0.104,2.185,0.174,4.376,0.174,6.579c0,94.291-96.235,165.747-213.385,159.684c-3.116-0.162-6.212-0.387-9.294-0.653
					c-0.302-0.026-0.605-0.047-0.906-0.075c-2.917-0.263-5.814-0.58-8.697-0.934c-0.448-0.055-0.898-0.108-1.345-0.165
					c-2.79-0.357-5.561-0.762-8.316-1.205c-0.52-0.083-1.038-0.167-1.557-0.254c-2.703-0.451-5.39-0.941-8.058-1.471
					c-0.541-0.108-1.079-0.22-1.619-0.331c-2.654-0.546-5.293-1.123-7.909-1.746c-0.507-0.121-1.009-0.25-1.515-0.373
					c-2.599-0.635-5.183-1.299-7.742-2.009c-0.459-0.128-0.914-0.264-1.372-0.394c-2.304-0.654-4.589-1.338-6.858-2.051
					c-0.575-0.181-1.155-0.354-1.728-0.538c-2.302-0.741-4.578-1.522-6.843-2.324c-0.489-0.172-0.99-0.326-1.477-0.501
					c0.006-0.006,0.012-0.011,0.018-0.017c-77.874-28.09-132.624-91.309-132.624-162.008
					C1386.862,1235.861,1479.243,1164.245,1594.702,1167.789z" />

          <linearGradient id="SVGID_00000106125535575510160820000013750837032172519556_" gradientUnits="userSpaceOnUse" x1="-1907.5398" y1="1199.2834" x2="-1634.2451" y2="1706.1641" gradientTransform="matrix(-1 0 0 1 -258.321 0)">
            <stop offset="0" style="stop-color:#FFC444" />
            <stop offset="0.9964" style="stop-color:#F36F56" />
          </linearGradient>
          <path style="fill:url(#SVGID_00000106125535575510160820000013750837032172519556_);" d="M1364.635,1327.701
					c0,91.841,92.381,171.074,207.84,177.05c117.149,6.064,213.385-65.393,213.385-159.684c0-94.291-96.235-173.683-213.385-177.279
					C1457.016,1164.245,1364.635,1235.861,1364.635,1327.701z" />
          <g style="opacity:0.3;">

            <linearGradient id="SVGID_00000003791597669612487710000008509566613781732008_" gradientUnits="userSpaceOnUse" x1="-1987.644" y1="1232.7733" x2="-1719.829" y2="1770.2137" gradientTransform="matrix(-1 0 0 1 -258.321 0)">
              <stop offset="0" style="stop-color:#FFC444" />
              <stop offset="0.9964" style="stop-color:#F36F56" />
            </linearGradient>
            <path style="fill:url(#SVGID_00000003791597669612487710000008509566613781732008_);" d="M1521.511,1459.336
						c25.281-48.434-0.276-95.972,33.923-126.62c34.895-31.271,80.467,0.995,129.804-23.771
						c19.156-9.616,40.508-28.656,56.415-68.993c27.702,29.663,44.205,66.168,44.205,105.117
						c0,94.291-96.235,165.748-213.385,159.684c-26.598-1.377-51.958-6.638-75.234-15.025
						C1508.709,1479.762,1516.311,1469.298,1521.511,1459.336z" />
          </g>
        </g>
        <g>
          <path style="fill:#FFFFFF;" d="M1472.125,1296.66c-8.246,0.075-14.571,3.699-19.021,10.84
					c-4.424,7.101-6.627,16.964-6.627,29.618c0,26.332,8.455,39.861,25.648,40.6c7.329,0.315,16.298-1.429,26.963-5.274v21.722
					c-8.775,3.692-18.461,5.221-29.021,4.624c-14.927-0.844-26.153-6.68-33.832-17.439c-7.603-10.651-11.376-25.545-11.376-44.764
					c0-12.104,1.85-22.704,5.565-31.836c3.733-9.175,9.129-16.279,16.223-21.31c7.16-5.078,15.638-7.746,25.477-7.969
					c10.155-0.23,20.493,2.393,31.018,7.925l-7.358,21.136c-3.993-2.146-7.99-4.004-11.991-5.579
					C1479.812,1297.388,1475.924,1296.625,1472.125,1296.66z" />
          <path style="fill:#FFFFFF;" d="M1552.638,1348.875l-29.861-0.694v-18.57l29.861,0.35v-33.684l17.394-0.154v34.042l31.659,0.371
					v19.481l-31.659-0.736v33.605l-17.394-0.757V1348.875z" />
          <path style="fill:#FFFFFF;" d="M1659.047,1351.349l-33.824-0.786v-19.753l33.824,0.396v-35.872l19.742-0.175v36.278l36,0.421
					v20.787l-36-0.837v35.813l-19.742-0.86V1351.349z" />
        </g>
      </g>
      <g>

        <linearGradient id="SVGID_00000065041698338336541820000018173637120771113875_" gradientUnits="userSpaceOnUse" x1="1288.4309" y1="1743.061" x2="1317.7897" y2="2599.9514">
          <stop offset="0.0036" style="stop-color:#E38DDD" />
          <stop offset="1" style="stop-color:#9571F6" />
        </linearGradient>
        <path style="fill:url(#SVGID_00000065041698338336541820000018173637120771113875_);" d="M1101.301,1918.764
				c-20.445-25.604-32.219-55.664-32.219-87.819c0-93.5,99.554-169.297,222.36-169.297s222.36,75.797,222.36,169.297
				c0,93.5-99.554,169.297-222.36,169.297c-46.026,0-88.786-10.647-124.262-28.883c-23.45,4-59.85,10.722-79.058,14.297
				c-5.656,1.052-10.29-4.478-8.265-9.863L1101.301,1918.764z" />
        <g style="opacity:0.2;">

          <linearGradient id="SVGID_00000108999398940528832120000002398374985017135291_" gradientUnits="userSpaceOnUse" x1="315.222" y1="1713.9597" x2="701.1429" y2="2222.2095" gradientTransform="matrix(-1 0 0 1 1770.3242 0)">
            <stop offset="0.0036" style="stop-color:#E38DDD" />
            <stop offset="1" style="stop-color:#9571F6" />
          </linearGradient>
          <path style="fill:url(#SVGID_00000108999398940528832120000002398374985017135291_);" d="M1169.761,1866.772
					c49.86-20.956,104.689,23.28,138.968-7.58c34.554-31.108-2.774-92.612,30.32-136.441c15.779-20.898,42.29-30.786,72.619-34.242
					c61.442,30.125,102.134,82.661,102.134,142.436c0,93.5-99.554,169.297-222.36,169.297c-46.026,0-88.786-10.647-124.262-28.883
					c-18.502,3.157-45.061,8.006-64.882,11.668C1116.919,1907.222,1143.813,1877.678,1169.761,1866.772z" />
        </g>
      </g>
      <g>
        <path style="fill:#FFFFFF;" d="M1435.574,1777.75c0,4.56-3.697,8.257-8.257,8.257h-275.607c-4.56,0-8.257-3.697-8.257-8.257
				v-1.298c0-4.56,3.697-8.257,8.257-8.257h275.607c4.56,0,8.257,3.697,8.257,8.257V1777.75z" />
        <path style="fill:#FFFFFF;" d="M1435.574,1827.624c0,4.56-3.697,8.257-8.257,8.257h-275.607c-4.56,0-8.257-3.697-8.257-8.257
				v-1.298c0-4.56,3.697-8.257,8.257-8.257h275.607c4.56,0,8.257,3.697,8.257,8.257V1827.624z" />
        <path style="fill:#FFFFFF;" d="M1296.639,1877.257c0,4.693-3.805,8.498-8.498,8.498h-136.188c-4.693,0-8.498-3.805-8.498-8.498
				v-0.816c0-4.693,3.805-8.498,8.498-8.498h136.188c4.693,0,8.498,3.805,8.498,8.498V1877.257z" />
      </g>
    </g>
  </g>
</svg>