<svg id="Layer_1" data-name="Layer 1" xmlns="http://www.w3.org/2000/svg" viewBox="0 0 320 500">
  <defs>
    <style>
      .cls-1
      {
        fill: white;
      }
    </style>
  </defs>
  <rect class="cls-1" x="16.68" y="106.11" width="286.85" height="286.85" rx="61.63" />
  <path d="M241.89,400H78.31A68.7,68.7,0,0,1,9.68,331.32V167.74A68.7,68.7,0,0,1,78.31,99.11H241.89a68.7,68.7,0,0,1,68.63,68.63V331.32A68.7,68.7,0,0,1,241.89,400ZM78.31,113.11a54.68,54.68,0,0,0-54.63,54.63V331.32A54.68,54.68,0,0,0,78.31,386H241.89a54.68,54.68,0,0,0,54.63-54.63V167.74a54.68,54.68,0,0,0-54.63-54.63Z" />
  <path d="M185.89,352.74a4.42,4.42,0,0,1-2.85-1l-74.23-62.28c-.1-.1-11.91-11.1-12.78-18.29a.77.77,0,0,0-.07-.26L56.58,178a2.62,2.62,0,0,1,.07-2.19,2.59,2.59,0,0,1,1.7-1.36l112.41-28.12a1.31,1.31,0,0,1,.39-.05,1.63,1.63,0,0,1,1.46.92l.21.45c.32.67.49,1,.58,1.17a7.21,7.21,0,0,0,2.77,2.54,7.35,7.35,0,0,0,1.19.46q.34.1.69.18l.25,0,.24,0c.13.23.3.56.3.56a1,1,0,0,0,.93.56l.26,0,3.07-.8a3.22,3.22,0,0,1,.76-.09,3,3,0,0,1,1.55.42l.56.34a3.29,3.29,0,0,1,1.6,2.51,1.06,1.06,0,0,0,1.05.95,1.19,1.19,0,0,0,.32,0l2.69-.85a3.71,3.71,0,0,0,3.59,2.88,3.42,3.42,0,0,0,1.22-.22l2.16-.77a3.13,3.13,0,0,1,3.29.77c.48.5,1.58,1.65,2.07,2.29.35,1.67,7.85,40.4-10.28,61.22a1,1,0,0,0,.78,1.71c.67-.05,1.3-.07,2-.07,5.44,0,17.08,1.58,34,12.17,9,5.63,17.3,10.46,24.59,14.36l5.7,10.78a1,1,0,0,0,.92.56h.15l.24,0a2.05,2.05,0,0,1,.58.09,1.56,1.56,0,0,1,1.11,1.07,1.63,1.63,0,0,1-.31,1.54l-74.17,87.22A4.45,4.45,0,0,1,185.89,352.74Z" />
  <path d="M171.15,146.82a1.13,1.13,0,0,1,1,.64l.2.42a13.27,13.27,0,0,0,.62,1.25,7.63,7.63,0,0,0,3,2.72,8.36,8.36,0,0,0,1.27.49l.73.19.28,0,.17.33a1.54,1.54,0,0,0,1.37.82,1.58,1.58,0,0,0,.38-.05l3.08-.79a2.22,2.22,0,0,1,.63-.08,2.55,2.55,0,0,1,1.29.35l.57.34a2.79,2.79,0,0,1,1.35,2.13,1.55,1.55,0,0,0,1.55,1.4,1.49,1.49,0,0,0,.47-.07l2.25-.72a4.08,4.08,0,0,0,3.88,2.77,4.15,4.15,0,0,0,1.39-.24l2.15-.77a2.5,2.5,0,0,1,.89-.16,2.59,2.59,0,0,1,1.88.8c.45.47,1.49,1.55,2,2.18.55,2.79,7.47,40.36-10.2,60.65a1.53,1.53,0,0,0,1.15,2.54h.13c.57-.05,1.18-.07,1.83-.07,5.38,0,16.92,1.57,33.78,12.09,9,5.6,17.21,10.42,24.49,14.32L260.31,261a1.54,1.54,0,0,0,1.36.83l.22,0h.17a1.9,1.9,0,0,1,.45.07,1.06,1.06,0,0,1,.76.73,1.14,1.14,0,0,1-.21,1.08L212.57,323l-23.68,27.86a3.93,3.93,0,0,1-3,1.38,4,4,0,0,1-2.53-.92l-74.19-62.25c-.12-.11-11.79-11-12.64-18a1.82,1.82,0,0,0-.11-.4L57,177.85A2.13,2.13,0,0,1,58.47,175l112.41-28.12.27,0m20.63,9.26h0m-20.63-10.26a2.22,2.22,0,0,0-.51.06L58.23,174a3.11,3.11,0,0,0-2.11,4.24L95.5,271.06a.28.28,0,0,1,0,.13c.91,7.46,13,18.61,13,18.61l74.22,62.29a5,5,0,0,0,6.94-.58l74.17-87.23a2.12,2.12,0,0,0-1.05-3.42,2.87,2.87,0,0,0-.71-.1l-.31,0h-.08a.55.55,0,0,1-.48-.29l-5.68-10.76a.49.49,0,0,0-.22-.23c-5.81-3.1-14-7.73-24.56-14.35-17.14-10.69-28.92-12.24-34.31-12.24-.77,0-1.41,0-1.91.07h0a.53.53,0,0,1-.4-.88c18.2-20.9,10.91-59.11,10.41-61.61a.67.67,0,0,0-.11-.24c-.48-.62-1.46-1.66-2.11-2.33a3.59,3.59,0,0,0-2.6-1.11,3.68,3.68,0,0,0-1.22.21l-2.16.77a3,3,0,0,1-1.05.19,3.12,3.12,0,0,1-3-2.44v0a.55.55,0,0,0-.54-.43.45.45,0,0,0-.16,0l-2.7.86-.16,0a.55.55,0,0,1-.55-.5,3.78,3.78,0,0,0-1.84-2.89l-.57-.34a3.48,3.48,0,0,0-1.8-.49,3.27,3.27,0,0,0-.88.11l-3.08.79-.13,0a.56.56,0,0,1-.49-.29s-.29-.57-.4-.75a3,3,0,0,0-.72-.12c-.22-.05-.44-.1-.65-.17a6.32,6.32,0,0,1-1.12-.43,6.58,6.58,0,0,1-2.57-2.37c-.1-.15-.43-.85-.76-1.55a2.12,2.12,0,0,0-1.91-1.21Z" />
  <path class="cls-1" d="M111.6,271.1c0-1.68.91-32.93-22.87-71.54,0,0,61.16-13.57,110.08-29.75,0,0,5.18,33.74-8.55,52.14Z" />
  <path class="cls-1" d="M155.82,193.35s3.42,5.13,4.34,9.53c0,0,19.92-5.31,31.58-14.28v-8.95A336.2,336.2,0,0,1,155.82,193.35Z" />
  <path class="cls-1" d="M173.3,334.26a48.92,48.92,0,0,0,8,14.68,3.3,3.3,0,0,0,5.05,0l73.1-85.91a3.09,3.09,0,0,0,.29-3.59l-5-9.23Z" />
  <path class="cls-1" d="M104.93,279.51c5.92,1.22,24.29,9,68.37,54.75a52.69,52.69,0,0,0,4.06,8.67,1.1,1.1,0,0,1-1.68,1.36c-17.35-15.69-56.75-50.76-67-55.19l-4.94-7.88A1.13,1.13,0,0,1,104.93,279.51Z" />
  <path class="cls-1" d="M77.71,203.29c8.85,14.92,28.49,50.19,28.61,69.22a.84.84,0,0,1-1.62.32l-28.15-69A.65.65,0,0,1,77.71,203.29Z" />
  <path class="cls-1" d="M99.2,190.77l88.63-24.93a.46.46,0,0,0,.33-.52h0a.42.42,0,0,0-.22-.31,9.66,9.66,0,0,1-2.34-1.9,2.86,2.86,0,0,0-3-.85l-83.66,27.4-.62.21a.56.56,0,0,0,.33,1.06Z" />
  <path d="M98.45,191.69a1.3,1.3,0,0,1-.4-2.52l.61-.21,83.68-27.4a3.55,3.55,0,0,1,3.81,1.07,9.32,9.32,0,0,0,2.17,1.74,1.21,1.21,0,0,1,.57.82,1.19,1.19,0,0,1-.86,1.36L98.81,191.64A1.49,1.49,0,0,1,98.45,191.69Zm85-28.83a2.31,2.31,0,0,0-.64.1l-76.18,24.95L187,165.3a10,10,0,0,1-2-1.7A2.12,2.12,0,0,0,183.44,162.86Z" />
  <path class="cls-1" d="M71.1,184.79l112.69-32.3a1.57,1.57,0,0,1,1.25.17l1.22.73a2.09,2.09,0,0,1,1,1.49v0a1.89,1.89,0,0,1-1.22,2L77.11,196.63a3.78,3.78,0,0,1-4.09-1,45.84,45.84,0,0,1-4-5.07A3.78,3.78,0,0,1,71.1,184.79Z" />
  <path class="cls-1" d="M172.44,147.81h0a1.57,1.57,0,0,0-1.89-1l-29.62,7.6L60.34,175.55a1.75,1.75,0,0,0-.77,2.95l1.67,1.61,110.12-30.3A1.58,1.58,0,0,0,172.44,147.81Z" />
  <path class="cls-1" d="M95.53,271.12c2.77,6.15,5.32,10.57,8.54,13.6.9.85,2.09.33,1.43-.73l-8.07-12.87c-2.36-9.57-27.52-69.89-27.52-69.89l-8.67-20.62L60,179.41a.68.68,0,0,0-1.1.74Z" />
  <path d="M105,285.88a2.15,2.15,0,0,1-1.47-.63c-3-2.84-5.62-7-8.71-13.82v0l-36.66-91a1.42,1.42,0,0,1,2.3-1.56l1.38,1.31,8.73,20.76c1,2.46,25,60,27.53,69.89l8,12.77a1.38,1.38,0,0,1-1.09,2.28Zm-8.82-15.05c3,6.66,5.5,10.65,8.37,13.35a1,1,0,0,0,.27.18l-8.11-12.95,0-.11c-2.32-9.41-27.23-69.18-27.48-69.79L60.62,181l-1-.9Z" />
  <path class="cls-1" d="M192.19,224.91l-86.13,56.57h-.71a1.31,1.31,0,0,1-1.25-.9h0a.43.43,0,0,1,.18-.52c11.73-7.22,72.89-45,86.1-55a15.32,15.32,0,0,1,1.32-.9.45.45,0,0,1,.59.1h0A.47.47,0,0,1,192.19,224.91Z" />
  <path class="cls-1" d="M186.64,277.82c4.4-3.5,11.78-9,16.45-12.88a3.19,3.19,0,0,1,3.59-.32l9.34,5.23a3.19,3.19,0,0,1,.86,4.86c-3.18,3.72-9.13,10-15.76,13.85a3.19,3.19,0,0,1-3,.09l-10.9-5.48A3.19,3.19,0,0,1,186.64,277.82Z" />
  <path class="cls-1" d="M136,274.57l57.28-38.13a2.88,2.88,0,0,1,2.74-.24,210,210,0,0,0,22.17,8.14,2.9,2.9,0,0,1,.89,5.08c-11.61,8.77-42.29,32-57.45,44.23a2.86,2.86,0,0,1-3.12.3,143.13,143.13,0,0,1-22.73-14.72A2.9,2.9,0,0,1,136,274.57Z" />
</svg>