<svg width="365" height="293" viewBox="0 0 365 293" fill="none" xmlns="http://www.w3.org/2000/svg">
  <defs>
    <linearGradient id="my-cool-gradient">
      <stop offset="0%" stop-color="rgb(236, 65, 99)" />
      <stop offset="100%" stop-color="rgb(168, 36, 181)" />
    </linearGradient>
  </defs>
  <g fill="url(#my-cool-gradient)">
    <path d="M223 75H143C134.2 75 127.08 82.2 127.08 91L127 219L183 195L239 219V91C239 82.2 231.8 75 223 75Z" />


    <path d="M237.125 292.167C231.966 292.167 227.642 290.422 224.152 286.932C220.662 283.442 218.917 279.117 218.917 273.958C218.917 268.799 220.662 264.475 224.152 260.985C227.642 257.495 231.966 255.75 237.125 255.75H273.542C278.701 255.75 283.025 254.005 286.515 250.515C290.005 247.025 291.75 242.701 291.75 237.542V201.125C291.75 189.593 295.088 179.123 301.765 169.716C308.441 160.308 317.242 153.632 328.167 149.687V143.314C317.242 139.368 308.441 132.692 301.765 123.284C295.088 113.877 291.75 103.407 291.75 91.875V55.4584C291.75 50.2993 290.005 45.9749 286.515 42.4849C283.025 38.995 278.701 37.25 273.542 37.25H237.125C231.966 37.25 227.642 35.5051 224.152 32.0151C220.662 28.5252 218.917 24.2007 218.917 19.0417C218.917 13.8827 220.662 9.5582 224.152 6.06827C227.642 2.57834 231.966 0.833374 237.125 0.833374H273.542C288.715 0.833374 301.613 6.14414 312.234 16.7657C322.856 27.3872 328.167 40.2848 328.167 55.4584V91.875C328.167 97.0341 329.912 101.359 333.402 104.848C336.891 108.338 341.216 110.083 346.375 110.083C351.534 110.083 355.858 111.828 359.348 115.318C362.838 118.808 364.583 123.133 364.583 128.292V164.708C364.583 169.867 362.838 174.192 359.348 177.682C355.858 181.172 351.534 182.917 346.375 182.917C341.216 182.917 336.891 184.662 333.402 188.152C329.912 191.642 328.167 195.966 328.167 201.125V237.542C328.167 252.715 322.856 265.613 312.234 276.234C301.613 286.856 288.715 292.167 273.542 292.167H237.125ZM91.4583 292.167C76.2847 292.167 63.3872 286.856 52.7656 276.234C42.1441 265.613 36.8334 252.715 36.8334 237.542V201.125C36.8334 195.966 35.0884 191.642 31.5985 188.152C28.1085 184.662 23.784 182.917 18.625 182.917C13.466 182.917 9.14151 181.172 5.65158 177.682C2.16165 174.192 0.416687 169.867 0.416687 164.708V128.292C0.416687 123.133 2.16165 118.808 5.65158 115.318C9.14151 111.828 13.466 110.083 18.625 110.083C23.784 110.083 28.1085 108.338 31.5985 104.848C35.0884 101.359 36.8334 97.0341 36.8334 91.875V55.4584C36.8334 40.2848 42.1441 27.3872 52.7656 16.7657C63.3872 6.14414 76.2847 0.833374 91.4583 0.833374H127.875C133.034 0.833374 137.359 2.57834 140.848 6.06827C144.338 9.5582 146.083 13.8827 146.083 19.0417C146.083 24.2007 144.338 28.5252 140.848 32.0151C137.359 35.5051 133.034 37.25 127.875 37.25H91.4583C86.2993 37.25 81.9748 38.995 78.4849 42.4849C74.995 45.9749 73.25 50.2993 73.25 55.4584V91.875C73.25 103.407 69.9118 113.877 63.2354 123.284C56.559 132.692 47.7584 139.368 36.8334 143.314V149.687C47.7584 153.632 56.559 160.308 63.2354 169.716C69.9118 179.123 73.25 189.593 73.25 201.125V237.542C73.25 242.701 74.995 247.025 78.4849 250.515C81.9748 254.005 86.2993 255.75 91.4583 255.75H127.875C133.034 255.75 137.359 257.495 140.848 260.985C144.338 264.475 146.083 268.799 146.083 273.958C146.083 279.117 144.338 283.442 140.848 286.932C137.359 290.422 133.034 292.167 127.875 292.167H91.4583Z" />
  </g>
</svg>