<?xml version="1.0" encoding="UTF-8" standalone="no"?>
<svg
   id="Layer_1"
   data-name="Layer 1"
   viewBox="0 0 1080 1080"
   version="1.1"
   sodipodi:docname="logo-no-background.svg"
   inkscape:version="1.2.2 (b0a84865, 2022-12-01)"
   inkscape:export-filename="../Desktop/logo-no-background-final.svg"
   inkscape:export-xdpi="96"
   inkscape:export-ydpi="96"
   xmlns:inkscape="http://www.inkscape.org/namespaces/inkscape"
   xmlns:sodipodi="http://sodipodi.sourceforge.net/DTD/sodipodi-0.dtd"
   xmlns="http://www.w3.org/2000/svg"
   xmlns:svg="http://www.w3.org/2000/svg">
  <sodipodi:namedview
     id="namedview17"
     pagecolor="#ffffff"
     bordercolor="#000000"
     borderopacity="0.25"
     inkscape:showpageshadow="2"
     inkscape:pageopacity="0.0"
     inkscape:pagecheckerboard="0"
     inkscape:deskcolor="#d1d1d1"
     showgrid="false"
     inkscape:zoom="0.95641439"
     inkscape:cx="541.08345"
     inkscape:cy="686.41794"
     inkscape:window-width="1344"
     inkscape:window-height="817"
     inkscape:window-x="0"
     inkscape:window-y="37"
     inkscape:window-maximized="0"
     inkscape:current-layer="Layer_1" />
  <defs
     id="defs4">
    <style
       id="style2">.cls-1{fill:#fff;}</style>
  </defs>
  <path
     d="M617.61,369,523.3,407.3s23.43,35.54,18.64,95L601,468.05S624.05,435.22,617.61,369Zm-3.21,29.44C587,419.54,540.09,432,540.09,432c-2.15-10.36-10.2-22.41-10.2-22.41,42.25-12.91,84.51-32.24,84.51-32.24Z"
     id="path10" />
  <path
     d="M600.68,783.51a11.14,11.14,0,0,1-7.15-2.61L418.89,634.36c-.26-.25-28.22-26.3-30.3-43.46a1.69,1.69,0,0,0-.12-.44L295.83,372.08a6.82,6.82,0,0,1,4.61-9.29l264.47-66.16a4.44,4.44,0,0,1,5.13,2.43l.47,1c.71,1.5,1.15,2.43,1.35,2.73a16.05,16.05,0,0,0,6.25,5.74,16.45,16.45,0,0,0,2.7,1.05c.52.16,1,.29,1.57.4l.51.06c.22,0,.71.07.93.12.29.51.86,1.61.86,1.61a1.81,1.81,0,0,0,1.59.95,2.3,2.3,0,0,0,.45-.05l7.23-1.87a8,8,0,0,1,1.95-.25,7.81,7.81,0,0,1,4,1.1l1.32.79a8.44,8.44,0,0,1,4.1,6.43,1.78,1.78,0,0,0,1.78,1.62,1.7,1.7,0,0,0,.55-.08l6.33-2,.24,0a.8.8,0,0,1,.78.62,7.79,7.79,0,0,0,7.64,6.16,7.68,7.68,0,0,0,2.64-.46l5.07-1.81a8.13,8.13,0,0,1,2.71-.47,8,8,0,0,1,5.76,2.45c1.12,1.17,3.75,3.9,4.92,5.45a1.24,1.24,0,0,1,.18.34c.77,3.87,18.48,95.31-24.39,144.53a1.75,1.75,0,0,0-.27,1.88,1.73,1.73,0,0,0,1.59,1H621c1.39-.12,2.89-.17,4.47-.17,12.85,0,40.4,3.73,80.44,28.73,21.21,13.23,40.66,24.6,57.82,33.78a.76.76,0,0,1,.32.32L777.4,566a1.78,1.78,0,0,0,1.57,1l.26,0a5.79,5.79,0,0,1,.65,0,6.08,6.08,0,0,1,1.55.21,4.42,4.42,0,0,1,3.08,3,4.52,4.52,0,0,1-.86,4.28L609.14,779.6a11.1,11.1,0,0,1-8.46,3.91ZM425.28,637.59a.55.55,0,0,0,.22.18l.49.21c23.87,10.34,117.73,94,157,129.44a4.81,4.81,0,0,0,7.4-6,210.28,210.28,0,0,1-9.93-20.73l-1.23-2.84c-.35-.79-.69-1.8-1.06-2.86-.84-2.45-1.79-5.23-3.25-6.75-93.12-96.66-132-109.54-150.83-115.55L618.53,485a1.59,1.59,0,0,0-.88-2.91,1.53,1.53,0,0,0-.81.23,37.23,37.23,0,0,0-3.15,2.15c-31,23.62-174.13,112-202.51,129.43a1,1,0,0,0-.26.24c-16.25-21.58-23-41.34-23.09-41.54l-64.12-151-22.34-50.29a.66.66,0,0,0-.12-.17L298.93,369a.46.46,0,0,0-.33-.13.49.49,0,0,0-.46.69c.69,1.62,69.25,162.33,82.18,198.1,10.41,28.8,25.93,45.21,32.16,51Zm335.69-97a.48.48,0,0,0-.36.15L578.27,728.7a.54.54,0,0,0-.12.5l.29.92a109,109,0,0,0,18.17,33.14,9.28,9.28,0,0,0,7.12,3.42h.11a9.47,9.47,0,0,0,7.21-3.33L772.52,573.57a8.85,8.85,0,0,0,.87-10.35l-12-22.35a.53.53,0,0,0-.37-.26ZM626.24,501.77a7.26,7.26,0,0,0-4,1.21l-134.77,89.7a7.35,7.35,0,0,0-.56,11.78c20,16.46,44.14,29.75,53.57,34.69a7.13,7.13,0,0,0,3.35.83,7.26,7.26,0,0,0,4.53-1.6c35.34-28.44,106.29-82.23,135.16-104a7.32,7.32,0,0,0-2.24-12.82,498.12,498.12,0,0,1-52.11-19.14A7.18,7.18,0,0,0,626.24,501.77Zm30.18,61.94a8,8,0,0,0-5.08,1.82C644.73,571,636,577.75,627.47,584.3c-5.51,4.25-10.72,8.27-14.83,11.54A8,8,0,0,0,614,609.27l25.63,12.88a8.07,8.07,0,0,0,7.62-.22c15.85-9.14,30.11-24.42,37.21-32.71A8,8,0,0,0,682.31,577l-22-12.3A8,8,0,0,0,656.42,563.71ZM630.18,354.54l-.16,0c-113.76,37.63-257.5,69.68-258.94,70a.53.53,0,0,0-.35.3.48.48,0,0,0,0,.45c51.85,84.2,53.86,154.4,53.73,167.62v.42a.5.5,0,0,0,.26.44.5.5,0,0,0,.24.06.48.48,0,0,0,.26-.07L610.34,478.15a.37.37,0,0,0,.13-.12c32.06-43,20.33-122.27,20.2-123.06a.46.46,0,0,0-.23-.35A.5.5,0,0,0,630.18,354.54ZM350,442.8a.46.46,0,0,0-.23.06.51.51,0,0,0-.24.63l57.53,141a.51.51,0,0,0,.47.31h.09a.52.52,0,0,0,.41-.49c0-.48-.1-49.11-57.61-141.25A.5.5,0,0,0,350,442.8Zm244.9-131.06a8.47,8.47,0,0,0-3,.56l-11.76,3.37L334.42,386.1C327,388.23,323,390.66,322,393.73c-1.19,3.55,1.58,7.28,4.8,11.6a61.88,61.88,0,0,1,4.33,6.36c2.2,3.89,5.2,5.87,8.92,5.87a13.62,13.62,0,0,0,5.76-1.44c2.83-1.34,5.23-2.43,7.74-3.35l241.41-88c5.07-1.85,7.64-3.87,7.88-6.18.29-2.89-3.26-5.08-4.78-6A5.92,5.92,0,0,0,594.89,311.74Zm-1.63,23.54a5.46,5.46,0,0,0-1.65.24L416,393a.51.51,0,0,0-.32.62.5.5,0,0,0,.48.36l.13,0,186.17-51.78a.48.48,0,0,0,.36-.49.49.49,0,0,0-.38-.48s-2.22-.58-4.48-3.56A5.71,5.71,0,0,0,593.26,335.28ZM564,297.8a8,8,0,0,0-2.23.4l-1.63.51-.31.1c-.92.3-1.87.61-2.79.85L354.05,353.43,306.38,366c-3.42.89-4.23,1.1-4.52,3.18s3.67,5.08,4.13,5.42a.5.5,0,0,0,.29.09h.14L533,313.2,541.1,311c5.95-1.61,11.32-3.06,16.83-4.51l.65-.17c2.68-.66,8.24-2.05,9-4.67a2.88,2.88,0,0,0-1.07-2.85A3.38,3.38,0,0,0,564,297.8Z"
     id="path12" />
</svg>
